<?xml version="1.0" encoding="UTF-8"?>
<svg id="Calque_1" data-name="Calque 1" xmlns="http://www.w3.org/2000/svg" viewBox="0 0 24 26">
  <defs>
    <style>
      .cls-1 {
        fill: #fff;
      }
    </style>
  </defs>
  <g id="Android">
    <path class="cls-1" d="M3.99,25.29c-.57.37-1.25.48-1.9.33l11.28-11.27,3.65,3.65-13.04,7.29Z"/>
    <path class="cls-1" d="M.7,24.7c-.31-.42-.5-.93-.5-1.47V3.16c0-.54.18-1.06.5-1.47l11.52,11.51L.7,24.7Z"/>
    <path class="cls-1" d="M21.8,15.33l-3.28,1.84-3.98-3.98,3.98-3.98,3.29,1.84c.79.44,1.26,1.24,1.26,2.14s-.47,1.7-1.26,2.14Z"/>
    <path class="cls-1" d="M13.37,12.04L2.1.77c.18-.04.37-.07.56-.07.47,0,.93.13,1.33.39l13.04,7.29-3.66,3.65Z"/>
  </g>
</svg>