<?xml version="1.0" encoding="UTF-8"?>
<svg id="Calque_1" data-name="Calque 1" xmlns="http://www.w3.org/2000/svg" viewBox="0 0 26.53 28.34">
  <defs>
    <style>
      .cls-1 {
        fill: #fff;
      }
    </style>
  </defs>
  <g id="Apple">
    <path class="cls-1" d="M25.75,20.78c-.62,1.38-.92,2-1.73,3.22-1.12,1.7-2.7,3.83-4.66,3.85-1.74.02-2.19-1.13-4.55-1.12s-2.85,1.14-4.59,1.12c-1.96-.02-3.45-1.93-4.58-3.64-3.13-4.77-3.46-10.36-1.53-13.33,1.37-2.11,3.54-3.35,5.58-3.35s3.38,1.14,5.09,1.14,2.68-1.14,5.08-1.14c1.81,0,3.73.99,5.1,2.69-4.49,2.46-3.76,8.86.77,10.57Z"/>
    <path class="cls-1" d="M18.49,5.07c.87-1.12,1.53-2.7,1.29-4.31-1.42.1-3.09,1-4.06,2.18-.88,1.07-1.61,2.66-1.33,4.2,1.55.05,3.16-.88,4.1-2.08Z"/>
  </g>
</svg>