<svg width="25" height="24" viewBox="0 0 25 24" fill="none" xmlns="http://www.w3.org/2000/svg">
<path fill-rule="evenodd" clip-rule="evenodd" d="M12.3999 4C7.98162 4 4.3999 7.58172 4.3999 12C4.3999 16.4183 7.98162 20 12.3999 20C16.8182 20 20.3999 16.4183 20.3999 12C20.3999 7.58172 16.8182 4 12.3999 4ZM2.3999 12C2.3999 6.47715 6.87705 2 12.3999 2C17.9228 2 22.3999 6.47715 22.3999 12C22.3999 17.5228 17.9228 22 12.3999 22C6.87705 22 2.3999 17.5228 2.3999 12ZM17.107 7.29289C17.4018 7.58765 17.4828 8.03432 17.3103 8.4138L14.8103 13.9138C14.7102 14.1339 14.5338 14.3103 14.3137 14.4104L8.81371 16.9104C8.43422 17.0829 7.98755 17.0019 7.6928 16.7071C7.39804 16.4124 7.31704 15.9657 7.48954 15.5862L9.98954 10.0862C10.0896 9.86609 10.266 9.68968 10.4861 9.58963L15.9861 7.08963C16.3656 6.91714 16.8123 6.99814 17.107 7.29289ZM11.6551 11.2552L10.4137 13.9862L13.1447 12.7448L14.3861 10.0138L11.6551 11.2552Z" fill="#2E282A"/>
</svg>
