<svg width="25" height="24" viewBox="0 0 25 24" fill="none" xmlns="http://www.w3.org/2000/svg">
<path d="M9.19971 20C9.19971 20.5523 9.64742 21 10.1997 21H14.1997C14.752 21 15.1997 20.5523 15.1997 20V15L20.1997 15C20.752 15 21.1997 14.5523 21.1997 14V10C21.1997 9.44772 20.752 9 20.1997 9H15.1997L15.1997 4C15.1997 3.44772 14.752 3 14.1997 3H10.1997C9.64742 3 9.19971 3.44772 9.19971 4V9H4.19971C3.64742 9 3.19971 9.44772 3.19971 10V14C3.19971 14.5523 3.64742 15 4.19971 15H9.19971V20Z" stroke="#2E282A" stroke-width="2" stroke-linecap="round" stroke-linejoin="round"/>
</svg>
