<?xml version="1.0" encoding="UTF-8"?>
<svg xmlns="http://www.w3.org/2000/svg" xmlns:xlink="http://www.w3.org/1999/xlink" viewBox="0 0 500 500">
  <defs>
    <style>
      .cls-1, .cls-2 {
        fill: #88b89d;
      }

      .cls-3 {
        fill: #c8bdff;
      }

      .cls-4, .cls-5, .cls-6 {
        fill: #17014e;
      }

      .cls-7 {
        fill: #7d82b8;
      }

      .cls-5 {
        mix-blend-mode: multiply;
        opacity: .09;
      }

      .cls-8 {
        fill: #6aa785;
      }

      .cls-9 {
        fill: #686c99;
      }

      .cls-6, .cls-10, .cls-11, .cls-2, .cls-12, .cls-13, .cls-14 {
        stroke-linecap: round;
        stroke-linejoin: round;
      }

      .cls-6, .cls-11, .cls-12 {
        stroke: #17014e;
      }

      .cls-15, .cls-12 {
        fill: #fff;
      }

      .cls-10 {
        fill: #5dc3de;
        stroke: #5dc3de;
      }

      .cls-11, .cls-16, .cls-17, .cls-13, .cls-14 {
        fill: none;
      }

      .cls-2, .cls-17 {
        stroke: #88b89d;
      }

      .cls-18 {
        fill: #e3deff;
      }

      .cls-19 {
        fill: #ffaa08;
      }

      .cls-20 {
        fill: #4c956c;
      }

      .cls-21 {
        isolation: isolate;
      }

      .cls-17 {
        stroke-miterlimit: 10;
        stroke-width: 5px;
      }

      .cls-13 {
        stroke: #fff;
      }

      .cls-22 {
        fill: #d6ceff;
      }

      .cls-14 {
        stroke: #7d82b8;
      }

      .cls-23 {
        fill: #fffff5;
      }

      .cls-24 {
        clip-path: url(#clippath);
      }

      .cls-25 {
        fill: #9397c4;
      }

      .cls-26 {
        fill: #cd8b76;
      }
    </style>
    <clipPath id="clippath">
      <path class="cls-16" d="M171.83,432.76c-22.56,1.87-45.27,1.86-67.82-.02-2.4-.2-4.29-2.14-4.46-4.54-.64-8.73-.69-16.79-.05-24.53.21-2.52,2.33-4.46,4.86-4.46,22.34-.08,44.68-.09,66.91.93,2.45.11,4.44,2.04,4.66,4.48.67,7.66.75,15.42.37,23.49-.12,2.45-2.02,4.46-4.47,4.67Z"/>
    </clipPath>
  </defs>
  <g class="cls-21">
    <g id="OBJECTS">
      <g>
        <rect class="cls-22" x="233.51" y="134.54" width="6.47" height="13.58"/>
        <rect class="cls-22" x="243.89" y="128.23" width="6.47" height="19.88"/>
        <rect class="cls-22" x="254.26" y="123.87" width="6.47" height="24.25"/>
      </g>
      <path class="cls-22" d="M475.05,192.43c0-1.43-1.16-2.58-2.58-2.58s-2.58,1.16-2.58,2.58,1.16,2.58,2.58,2.58,2.58-1.16,2.58-2.58Z"/>
      <g>
        <path class="cls-3" d="M232.68,102.9c0-1.42-1.16-2.58-2.58-2.58s-2.58,1.16-2.58,2.58,1.16,2.58,2.58,2.58,2.58-1.16,2.58-2.58Z"/>
        <path class="cls-11" d="M203.12,92.32c0-1.05-.85-1.91-1.91-1.91s-1.91.85-1.91,1.91.85,1.91,1.91,1.91,1.91-.85,1.91-1.91Z"/>
      </g>
      <g>
        <circle class="cls-3" cx="44.02" cy="459.15" r="2.58"/>
        <path class="cls-11" d="M36.47,440.76c0-1.05-.85-1.91-1.91-1.91s-1.91.85-1.91,1.91.85,1.91,1.91,1.91,1.91-.85,1.91-1.91Z"/>
      </g>
      <path class="cls-11" d="M474.38,275.78c0-1.05-.85-1.91-1.91-1.91s-1.91.85-1.91,1.91.85,1.91,1.91,1.91,1.91-.85,1.91-1.91Z"/>
      <path class="cls-11" d="M94.89,340.92c0-1.05-.85-1.91-1.91-1.91s-1.91.85-1.91,1.91.85,1.91,1.91,1.91,1.91-.85,1.91-1.91Z"/>
      <g>
        <line class="cls-13" x1="68.51" y1="95.73" x2="68.51" y2="100.04"/>
        <line class="cls-13" x1="66.36" y1="97.88" x2="70.67" y2="97.88"/>
      </g>
      <g>
        <path class="cls-22" d="M68.51,402.8c0-1.42-1.16-2.58-2.58-2.58s-2.58,1.16-2.58,2.58,1.16,2.58,2.58,2.58,2.58-1.16,2.58-2.58Z"/>
        <g>
          <line class="cls-13" x1="73.12" y1="414.39" x2="73.12" y2="418.7"/>
          <line class="cls-13" x1="70.96" y1="416.54" x2="75.27" y2="416.54"/>
        </g>
      </g>
      <g>
        <path class="cls-8" d="M235.86,368.15c-9.97,8.88-20.15,18.03-26.47,29.79-1.05,1.96-2.01,4.03-2.26,6.24-.26,2.21.28,4.61,1.85,6.18,1.8,1.8,4.54,2.21,7.09,2.23,6.27.06,12.55-1.68,18.22-5.49-3.7,7.04-7.45,14.17-9.27,21.91-1.83,7.74-1.56,16.28,2.44,23.16,6.08,10.45,19.72,14.74,31.62,12.61,11.9-2.13,22.21-9.52,30.42-19.5-1.53,7.36-2.86,15.74,1.58,21.8,3.66,5,10.63,6.91,16.67,5.52,6.04-1.39,11.14-5.63,14.67-10.72,3.54-5.09,5.68-11.01,8.51-16.92,2.86,9.01,10.61,16.26,19.76,18.62,4.26,1.1,8.93,1.15,12.91-.74,4.72-2.24,7.89-6.97,9.45-11.96,1.56-4.99,1.71-10.3,3.12-17.24,7.41,7.35,20.68,5.23,28.15-2.05,7.47-7.28,10.32-18.05,11.69-28.39,1.68-12.68,1.47-26.21-4.71-37.41-4.8-8.72-12.9-15.3-21.86-19.63-8.96-4.33-18.79-6.56-28.63-8.09-42.15-6.54-89.77-1.24-124.93,30.09Z"/>
        <g>
          <path class="cls-20" d="M416.76,394.96c-2.96-3-7.53-3.75-11.76-3.75-12.54,0-24.99,5.23-33.77,14.18-4.44,4.52-8,10.06-9.44,16.23-1.44,6.17-.58,13.01,3.04,18.21,2.22,3.18,5.55,5.63,9.22,6.81.71-3.81,1.08-7.97,2.1-13,7.41,7.35,20.68,5.23,28.15-2.05,7.47-7.28,10.32-18.05,11.69-28.39.36-2.71.62-5.47.77-8.23Z"/>
          <path class="cls-20" d="M330.62,419.72c-7.09.73-13.7,5.13-17.12,11.38-3.56,6.52-4.1,15.14-10.11,19.51-4.29,3.12-10.39,3.23-15.33,4.91-.09,2.87.22,5.67,1.2,8.22,8.88-4.22,17.53-9.08,23.79-16.56,2.16-2.58,4-5.44,6.41-7.79,2.41-2.35,5.58-4.18,8.94-4.04,5.44.23,9.49,5.72,9.93,11.14.24,3-.35,5.94-1.36,8.79,3.67,3.98,8.45,6.95,13.7,8.3.92.24,1.87.41,2.82.55,1.37-5.94,2.57-11.97,2.47-18.06-.1-6.71-1.92-13.59-6.27-18.7-4.62-5.43-11.99-8.38-19.08-7.65Z"/>
          <path class="cls-20" d="M216.06,412.59c4.09.04,8.17-.7,12.09-2.26.1-.14.2-.28.3-.43,3.64-5.52,5.01-12.48,3.73-18.97-.96-4.9-3.43-9.47-6.93-13.03-6.16,6.01-11.81,12.48-15.86,20.03-1.05,1.96-2.01,4.03-2.26,6.24-.26,2.21.28,4.61,1.85,6.18,1.8,1.8,4.54,2.21,7.09,2.23Z"/>
          <path class="cls-20" d="M276.55,436.26c15.32-9.91,21.84-30.27,18.36-48.18-3.14-16.17-13.28-30.26-25.99-40.86-3.66,1.57-7.26,3.32-10.79,5.25,4.44,4.92,8.62,10.08,11.58,15.98,3.92,7.83,5.48,17.29,2.1,25.37-3.6,8.59-11.99,14.13-20.32,18.31-8.33,4.18-17.27,7.69-23.87,14.27-.99.99-1.91,2.09-2.74,3.24-1.67,7.57-1.31,15.84,2.58,22.53,4.03,6.93,11.39,11.13,19.36,12.57.58-5.82,3.2-11.45,7.42-15.5,6.23-5.99,15.07-8.28,22.33-12.97Z"/>
        </g>
      </g>
      <g>
        <path class="cls-8" d="M53.73,253.17c-6.53-10.22-10.09-22.32-10.13-34.44-.02-4.58,1.02-9.99,5.19-11.87,3.08-1.39,6.68-.24,9.74,1.19,5.98,2.79,11.46,6.62,13.42,10.32-5.03-13.68-1.94-30.02,7.74-40.93s25.54-15.91,40.56-12.5c2.39-9.55,6.08-19.18,13.19-25.98,7.11-6.81,18.37-10.05,29.18-3.31,2.44-4.3,4.9-8.63,8.21-12.3,3.31-3.67,7.58-6.67,12.43-7.57,4.86-.9,10.31.6,13.36,4.49,2.39,3.06,3.07,7.2,2.59,11.05-.48,3.85-2,7.49-3.84,13.09,3.24-5.47,9.23-9.21,15.57-9.72,6.34-.52,12.85,2.2,16.94,7.07,5.56,6.61,6.25,15.93,6.37,24.57.17,12.08-.3,24.27-3.13,36.02-2.83,11.75-8.15,23.11-16.65,31.7-11.36,11.48-27.34,17.09-43.08,20.71-37.39,8.58-76.89,7.8-117.64-1.57Z"/>
        <g>
          <path class="cls-20" d="M46.1,236.2c11.52-9.23,29.5-7.89,40.91-17.57,7.32-6.21,10.69-16.31,9.99-25.88-.59-8.14-3.87-15.89-8.51-22.64-3.27,2.01-6.25,4.45-8.8,7.32-.39.44-.75.9-1.11,1.35,6.35,6.87,9.12,17.1,6.54,26.14-3.21,11.25-14.41,19.69-26.11,19.68-3.31,0-6.63-.61-9.93-.32-1.74.15-3.53.63-5.06,1.47.41,3.53,1.11,7.02,2.08,10.44Z"/>
          <path class="cls-20" d="M234.23,166.32c-.12-8.64-.82-17.96-6.37-24.57-.28-.34-.58-.66-.88-.97-11.88.84-23.52,5.23-32.88,12.62-7.47,5.9-13.77,14.4-13.68,23.92.12,11.47,9.39,21.77,7.95,33.14-.91,7.22-6.01,13.2-11.55,17.91-5.54,4.71-11.79,8.7-16.4,14.32-3.49,4.25-5.9,9.84-5.61,15.2,5.56-.86,11.08-1.89,16.55-3.14,3.86-.89,7.73-1.89,11.54-3.07.84-7.02,3.94-13.78,8.87-18.85,3.99-4.1,9-7.08,13.02-11.15,4.02-4.06,7.08-9.85,5.64-15.38-1.01-3.88-4.05-6.95-5.26-10.78-2.45-7.7,3.51-16.04,10.98-19.12,5.67-2.34,11.88-2.45,18.06-2,.04-2.69.05-5.38,0-8.07Z"/>
          <path class="cls-20" d="M129.2,260.45c-6.99-13.65-9.76-29.85-4.79-44.29,3.55-10.3,10.85-19.5,11.6-30.37.75-10.83-5.17-20.88-10.88-30.11-.39-.64-.83-1.29-1.32-1.89-1.48,3.61-2.63,7.39-3.57,11.15-4.64-1.05-9.35-1.3-13.95-.82,7.37,14.69,7.31,32.98-.37,47.54-3.67,6.96-8.92,13.06-12.01,20.29-3.7,8.66-3.95,18.7-.88,27.59,12.21,1.14,24.27,1.45,36.17.9Z"/>
          <path class="cls-20" d="M184.26,130.55c4.33,2.66,9.77,3.93,14.61,2.63.13-.62.24-1.24.32-1.87.48-3.85-.19-7.99-2.59-11.05-3.05-3.89-8.5-5.39-13.36-4.49-3.5.65-6.68,2.39-9.43,4.68,2.98,3.89,6.29,7.54,10.44,10.09Z"/>
        </g>
      </g>
      <g>
        <path class="cls-3" d="M47.16,138.57c0-1.42-1.16-2.58-2.58-2.58s-2.58,1.16-2.58,2.58,1.16,2.58,2.58,2.58,2.58-1.16,2.58-2.58Z"/>
        <path class="cls-11" d="M58.77,145.61c0-1.05-.85-1.91-1.91-1.91s-1.91.85-1.91,1.91.85,1.91,1.91,1.91,1.91-.85,1.91-1.91Z"/>
      </g>
      <g>
        <path class="cls-14" d="M441.94,304.9h0c.04-1.66,1.41-2.97,3.07-2.93l19.49.44c1.66.04,2.97,1.41,2.93,3.07-.04,1.66-1.41,2.97-3.07,2.93l-19.5-.44c-1.66-.04-2.97-1.41-2.93-3.07Z"/>
        <path class="cls-14" d="M441.67,316.9h0c.04-1.66,1.41-2.97,3.07-2.93l19.49.44c1.66.04,2.97,1.41,2.93,3.07-.04,1.66-1.41,2.97-3.07,2.93l-19.49-.44c-1.66-.04-2.97-1.41-2.93-3.07Z"/>
        <path class="cls-14" d="M441.42,328.1h0c.04-1.66,1.41-2.97,3.07-2.93l19.49.44c1.66.04,2.97,1.41,2.93,3.07-.04,1.66-1.41,2.97-3.07,2.93l-19.5-.44c-1.66-.04-2.97-1.41-2.93-3.07Z"/>
      </g>
      <g>
        <path class="cls-14" d="M117.8,439.41h0c-.05-1.66,1.26-3.04,2.91-3.09l19.49-.56c1.66-.05,3.04,1.26,3.09,2.91.05,1.66-1.26,3.04-2.91,3.09l-19.49.56c-1.66.05-3.04-1.26-3.09-2.91Z"/>
        <path class="cls-14" d="M118.14,451.4h0c-.05-1.66,1.26-3.04,2.91-3.09l19.49-.56c1.66-.05,3.04,1.26,3.09,2.91.05,1.66-1.26,3.04-2.91,3.09l-19.49.56c-1.66.05-3.04-1.26-3.09-2.91Z"/>
        <path class="cls-14" d="M118.47,462.6h0c-.05-1.66,1.26-3.04,2.91-3.09l19.49-.56c1.66-.05,3.04,1.26,3.09,2.91.05,1.66-1.26,3.04-2.91,3.09l-19.49.56c-1.66.05-3.04-1.26-3.09-2.91Z"/>
      </g>
      <g>
        <path class="cls-14" d="M401.16,221.11h50.27c5.03,0,9.11,4.08,9.11,9.11v26.77c0,5.03-4.08,9.11-9.11,9.11h-50.27c-5.03,0-9.11-4.08-9.11-9.11v-26.77c0-5.03,4.08-9.11,9.11-9.11Z" transform="translate(173.13 664.31) rotate(-88.71)"/>
        <path class="cls-14" d="M413.65,225.73c8.73.13,17.47.25,26.21.38"/>
        <path class="cls-14" d="M413.37,238.23c8.73.13,17.47.25,26.21.38"/>
        <path class="cls-14" d="M413.09,250.73c8.73.13,17.47.25,26.21.38"/>
        <path class="cls-14" d="M412.8,263.72c8.73.13,17.47.25,26.21.38"/>
      </g>
      <g>
        <path class="cls-14" d="M97.25,362.47h34.31c3.43,0,6.22,2.79,6.22,6.22v18.27c0,3.43-2.79,6.22-6.22,6.22h-34.31c-3.43,0-6.22-2.79-6.22-6.22v-18.27c0-3.43,2.79-6.22,6.22-6.22Z" transform="translate(-265.9 483.69) rotate(-88.71)"/>
        <path class="cls-14" d="M105.78,365.62c5.96.09,11.92.17,17.89.26"/>
        <path class="cls-14" d="M105.59,374.15c5.96.09,11.92.17,17.89.26"/>
        <path class="cls-14" d="M105.4,382.68c5.96.09,11.92.17,17.89.26"/>
        <path class="cls-14" d="M105.2,391.55c5.96.09,11.92.17,17.89.26"/>
      </g>
      <g>
        <circle class="cls-14" cx="59.01" cy="358.08" r="16" transform="translate(-168.25 75.14) rotate(-29.41)"/>
        <path class="cls-14" d="M48.76,357.85c.13-5.66,4.82-10.15,10.48-10.02,5.66.13,10.15,4.82,10.02,10.48-.13,5.66-4.82,10.15-10.48,10.02-5.66-.13-10.15-4.82-10.02-10.48Z"/>
        <path class="cls-7" d="M54.66,357.98c.05-2.4,2.04-4.3,4.44-4.25,2.4.05,4.3,2.04,4.24,4.44-.05,2.4-2.04,4.3-4.44,4.25s-4.3-2.04-4.25-4.44Z"/>
      </g>
      <g>
        <circle class="cls-14" cx="277.82" cy="104.51" r="16" transform="translate(4.35 219.91) rotate(-43.5)"/>
        <path class="cls-14" d="M267.57,104.27c.13-5.66,4.82-10.15,10.48-10.02,5.66.13,10.15,4.82,10.02,10.48-.13,5.66-4.82,10.15-10.48,10.02-5.66-.13-10.15-4.82-10.02-10.48Z"/>
        <path class="cls-7" d="M273.48,104.41c.05-2.4,2.04-4.3,4.44-4.25,2.4.05,4.3,2.04,4.24,4.44s-2.04,4.3-4.44,4.25c-2.4-.05-4.3-2.04-4.25-4.44Z"/>
      </g>
      <g>
        <g>
          <path class="cls-5" d="M423.57,260.39c7.77,52.47,9.94,105.76,6.45,158.69-.51,7.72-6.47,14-14.16,14.92-49.82,5.98-99.82,6.67-149.27,2-7.84-.74-14-7.08-14.56-14.94-3.68-52.37-3.22-103.92.44-153.87.57-7.78,6.62-14.05,14.38-14.9,46.17-5.01,92.79-7.2,141.22-5.77,7.84.23,14.34,6.1,15.5,13.86Z"/>
          <path class="cls-23" d="M420.92,256.85c6.35,52.66,7.07,106,2.15,158.81-.72,7.71-6.85,13.82-14.56,14.53-49.96,4.63-99.96,3.96-149.27-2.05-7.82-.95-13.81-7.46-14.15-15.33-2.26-52.45-.4-103.96,4.61-153.8.78-7.76,7-13.87,14.78-14.5,46.28-3.76,92.95-4.68,141.32-1.94,7.83.44,14.17,6.49,15.11,14.28Z"/>
          <path class="cls-19" d="M414.3,245.6c6.24,54.81,7.47,110.19,3.65,165.22-.4,5.79-4.9,10.46-10.67,11.08-51.5,5.52-101.84,5.67-152.97,4.79,1.53.73,3.18,1.23,4.94,1.45,49.31,6.01,99.3,6.68,149.27,2.05,7.71-.71,13.84-6.83,14.56-14.53,4.92-52.81,4.2-106.15-2.15-158.81-.56-4.65-3.05-8.66-6.62-11.25Z"/>
          <path class="cls-11" d="M407.27,421.9c-45.26,4.85-89.63,5.55-134.42,5.06"/>
          <path class="cls-11" d="M419.92,366.91c-.3,14.65-.96,29.29-1.97,43.91-.1,1.45-.46,2.82-1.03,4.09"/>
          <path class="cls-11" d="M419.85,326.42c.23,9.4.31,18.81.24,28.21"/>
        </g>
        <g>
          <g>
            <rect class="cls-11" x="271.08" y="396.53" width="14.51" height="14.51"/>
            <path class="cls-2" d="M292.88,393.32c-3.93,4.34-8.12,8.44-12.53,12.28-2.49-3.75-5.62-11.76-5.62-11.76,2,1.85,4.31,3.96,6.72,6.24,4.16-2.66,7.01-4.34,11.43-6.77Z"/>
          </g>
          <g>
            <path class="cls-26" d="M299.23,398.47h0c0-1.26,1.02-2.28,2.28-2.28h27.3c1.26.01,2.28,1.03,2.28,2.29,0,1.26-1.02,2.28-2.28,2.28h-27.3c-1.26-.01-2.28-1.03-2.28-2.29Z"/>
            <line class="cls-11" x1="300.13" y1="409.87" x2="353.34" y2="409.87"/>
            <line class="cls-11" x1="300.13" y1="404.32" x2="401.33" y2="404.32"/>
          </g>
        </g>
        <g>
          <g>
            <rect class="cls-11" x="271.08" y="370.59" width="14.51" height="14.51"/>
            <path class="cls-10" d="M292.88,367.38c-3.93,4.34-8.12,8.44-12.53,12.28-2.49-3.75-5.62-11.76-5.62-11.76,2,1.85,4.31,3.96,6.72,6.24,4.16-2.66,7.01-4.34,11.43-6.77Z"/>
          </g>
          <g>
            <path class="cls-26" d="M299.23,372.53h0c0-1.26,1.02-2.28,2.28-2.28h55.3c1.26.01,2.28,1.03,2.28,2.29,0,1.26-1.02,2.28-2.28,2.28h-55.3c-1.26-.01-2.28-1.03-2.28-2.29Z"/>
            <line class="cls-11" x1="300.13" y1="383.92" x2="328.86" y2="383.92"/>
            <line class="cls-11" x1="337.02" y1="383.92" x2="361.75" y2="383.92"/>
            <line class="cls-11" x1="300.13" y1="378.38" x2="401.33" y2="378.38"/>
          </g>
        </g>
        <g>
          <g>
            <rect class="cls-11" x="271.08" y="344.64" width="14.51" height="14.51"/>
            <path class="cls-10" d="M292.88,341.44c-3.93,4.33-8.12,8.44-12.53,12.28-2.49-3.75-5.62-11.76-5.62-11.76,2,1.85,4.31,3.96,6.72,6.24,4.16-2.66,7.01-4.34,11.43-6.77Z"/>
          </g>
          <g>
            <path class="cls-26" d="M299.23,346.59h0c0-1.26,1.02-2.28,2.28-2.28h27.3c1.26.01,2.28,1.03,2.28,2.29,0,1.26-1.02,2.28-2.28,2.28h-27.3c-1.26-.01-2.28-1.03-2.28-2.29Z"/>
            <line class="cls-11" x1="300.13" y1="357.98" x2="386.22" y2="357.98"/>
            <line class="cls-11" x1="300.13" y1="352.44" x2="401.33" y2="352.44"/>
          </g>
        </g>
        <g>
          <g>
            <rect class="cls-11" x="271.08" y="318.7" width="14.51" height="14.51"/>
            <path class="cls-10" d="M292.88,315.49c-3.93,4.33-8.12,8.44-12.53,12.28-2.49-3.75-5.62-11.76-5.62-11.76,2,1.85,4.31,3.96,6.72,6.24,4.16-2.66,7.01-4.34,11.43-6.77Z"/>
          </g>
          <g>
            <path class="cls-26" d="M299.23,320.65h0c0-1.26,1.02-2.28,2.28-2.28h27.3c1.26.01,2.28,1.03,2.28,2.29,0,1.26-1.02,2.28-2.28,2.28h-27.3c-1.26-.01-2.28-1.03-2.28-2.29Z"/>
            <line class="cls-11" x1="300.13" y1="332.04" x2="370.28" y2="332.04"/>
            <line class="cls-11" x1="300.13" y1="326.5" x2="401.33" y2="326.5"/>
          </g>
        </g>
        <g>
          <rect class="cls-22" x="271.08" y="259.17" width="130.25" height="51.84" rx="10.68" ry="10.68"/>
          <g>
            <path class="cls-26" d="M359.82,271.18h0c0-1.26,1.02-2.28,2.28-2.28h27.3c1.26.01,2.28,1.03,2.28,2.29,0,1.26-1.02,2.28-2.28,2.28h-27.3c-1.26-.01-2.28-1.03-2.28-2.29Z"/>
            <line class="cls-11" x1="352.36" y1="280.12" x2="391.68" y2="280.12"/>
            <line class="cls-11" x1="352.36" y1="286.09" x2="391.68" y2="286.09"/>
            <line class="cls-11" x1="352.36" y1="292.05" x2="391.68" y2="292.05"/>
            <line class="cls-11" x1="352.36" y1="298.02" x2="391.68" y2="298.02"/>
          </g>
          <g>
            <rect class="cls-15" x="318.72" y="269.25" width="26.65" height="33.68" rx="6.83" ry="6.83"/>
            <line class="cls-11" x1="341.92" y1="272.2" x2="322.09" y2="299.74"/>
            <line class="cls-11" x1="322.09" y1="272.2" x2="341.92" y2="299.74"/>
          </g>
          <g>
            <rect class="cls-15" x="283.73" y="269.25" width="26.65" height="33.68" rx="6.83" ry="6.83"/>
            <line class="cls-11" x1="306.94" y1="272.2" x2="287.11" y2="299.74"/>
            <line class="cls-11" x1="287.11" y1="272.2" x2="306.94" y2="299.74"/>
          </g>
        </g>
      </g>
      <g>
        <g>
          <path class="cls-5" d="M324.01,389.53c-53.96,1.33-109.91-.95-162.67-5.84-6.44-.6-11.42-5.93-11.55-12.39-1.33-64.97-.12-129.94,4.02-193.89.42-6.51,5.73-11.63,12.26-11.87,53.21-1.97,106.7-1.63,163.08,1.88,6.56.41,11.73,5.75,11.94,12.32,2.08,65.05,2.67,131.17-4.74,198.46-.7,6.33-5.98,11.18-12.35,11.33Z"/>
          <path class="cls-23" d="M321.82,379.07c-53.87,3.35-109.87,3.18-162.77.28-6.46-.35-11.63-5.49-12.01-11.95-3.77-64.87-5.01-129.84-3.27-193.9.18-6.52,5.29-11.83,11.8-12.32,53.09-3.97,106.56-5.65,163.03-4.26,6.57.16,11.94,5.3,12.4,11.86,4.52,64.92,7.61,130.98,2.74,198.5-.46,6.36-5.56,11.39-11.91,11.79Z"/>
          <path class="cls-19" d="M319.25,370.21c-57.8,5.79-114.54,5.25-171.07,1.76,1.92,4.17,6.03,7.12,10.87,7.38,52.9,2.9,108.9,3.07,162.77-.28,6.36-.4,11.46-5.44,11.91-11.79,4.87-67.52,1.79-133.57-2.74-198.5-.36-5.12-3.71-9.36-8.29-11.06,5.47,67.39,7.38,135.08,5.7,202.67-.13,5.11-4.07,9.31-9.16,9.82Z"/>
          <path class="cls-11" d="M309.98,371.09c-47.33,4.2-93.96,4.26-140.39,2.06"/>
          <path class="cls-11" d="M322.65,369.26c-1.04.5-2.19.83-3.4.95-1.49.15-2.99.3-4.48.44"/>
          <path class="cls-11" d="M328.83,287.33c.26,19.64.22,39.28-.12,58.91"/>
          <path class="cls-11" d="M326.83,221.65c.92,19.24,1.54,38.5,1.88,57.76"/>
        </g>
        <g>
          <g>
            <path class="cls-4" d="M214.48,265c-4.09-8.35-3.75-18.72.88-26.79,4.63-8.06,13.41-13.59,22.69-14.27,9.27-.68,18.77,3.5,25.28,10.93-2.28-9.46-10.55-17.04-20.07-19.04-9.52-1.99-19.87,1.44-26.72,8.35-5.7,5.75-9.03,13.72-9.41,21.81-.39,8.09,2.11,16.23,7.35,19.01Z"/>
            <path class="cls-15" d="M264.83,191.05c-24.97-12.11-55.71-5.35-73.46,13.88-17.76,19.23-21.47,50.07-8.79,72.96,12.68,22.89,40.8,36.1,66.52,31.24,25.72-4.86,47.08-27.41,50.53-53.35,3.46-25.94-11.25-53.3-34.8-64.72ZM265.59,251.26c-1.56,11.7-11.2,21.88-22.8,24.07-11.6,2.19-24.29-3.77-30.01-14.09-5.72-10.33-4.05-24.24,3.96-32.92,8.01-8.67,21.88-11.73,33.15-6.26,10.62,5.15,17.26,17.5,15.7,29.2Z"/>
            <path class="cls-26" d="M265.41,252.3l33.86,5.77c.13-.76.25-1.53.36-2.3,3.46-25.94-11.25-53.3-34.8-64.72-6.83-3.31-14.09-5.2-21.39-5.82l-3.2,34.22c3.3.28,6.58,1.12,9.66,2.61,10.62,5.15,17.26,17.5,15.7,29.2-.05.35-.12.69-.18,1.04Z"/>
            <path class="cls-19" d="M210.5,239.72c1.17-4.22,3.27-8.17,6.25-11.4,5.82-6.3,14.73-9.61,23.49-8.87l3.2-34.22c-19.42-1.65-39.17,5.74-52.07,19.7-6.6,7.14-11.25,15.89-13.85,25.24l32.98,9.54Z"/>
            <path class="cls-25" d="M212.78,261.24c-3.59-6.49-4.27-14.39-2.29-21.52l-32.98-9.54c-4.4,15.81-2.91,33.33,5.07,47.72,4.06,7.33,9.71,13.66,16.35,18.72l21.24-26.93c-2.99-2.29-5.55-5.14-7.38-8.44Z"/>
            <path class="cls-1" d="M249.09,309.13c9.99-1.89,19.32-6.46,27.21-12.85l-21.24-26.74c-3.56,2.88-7.76,4.95-12.26,5.8-7.89,1.49-16.27-.79-22.63-5.65l-21.24,26.93c14.1,10.76,32.69,15.82,50.17,12.51Z"/>
            <path class="cls-4" d="M293.18,219.58c5.36,16.24,5.07,34.37-1.97,49.92-8.99,19.85-29.33,34.52-51.12,35.16-13.36.4-26.64-4.26-37.46-12.1-13.62-9.86-23.29-24.88-27.43-40.6.55,9.06,2.97,17.97,7.38,25.93,12.68,22.89,40.8,36.1,66.52,31.24,25.72-4.86,47.08-27.41,50.53-53.35,1.65-12.37-.84-25.06-6.44-36.19Z"/>
            <path class="cls-11" d="M213.43,189.82c-8.38,3.4-15.98,8.53-22.07,15.11-7.74,8.38-12.81,18.96-15.02,30.14M272.08,195.25c-2.31-1.57-4.73-2.98-7.26-4.2-13.76-6.68-29.27-7.62-43.4-3.9M287.46,210.2c-2.82-3.85-6.05-7.39-9.64-10.52"/>
          </g>
          <g>
            <path class="cls-4" d="M221.43,250.92c.13,8.5,7.19,16.34,15.63,17.36,8.44,1.02,17.16-4.91,19.32-13.13,2.16-8.22-2.54-17.67-10.38-20.92l-24.57,16.69Z"/>
            <path class="cls-9" d="M244.85,232.52c6.27,3.04,10.18,10.32,9.26,17.22-.92,6.9-6.6,12.9-13.45,14.2-6.84,1.29-14.32-2.22-17.7-8.31-3.37-6.09-2.39-14.3,2.34-19.41,4.72-5.12,12.9-6.92,19.55-3.69Z"/>
          </g>
        </g>
        <g>
          <g>
            <path class="cls-5" d="M167.35,331.13h88.4c3.34,0,6.05,2.71,6.05,6.05v19.9c0,3.34-2.71,6.05-6.05,6.05h-88.4c-3.34,0-6.05-2.71-6.05-6.05v-19.9c0-3.34,2.71-6.05,6.05-6.05Z" transform="translate(-1.16 .71) rotate(-.19)"/>
            <path class="cls-15" d="M165.09,328.9h88.4c3.34,0,6.05,2.71,6.05,6.05v19.9c0,3.34-2.71,6.05-6.05,6.05h-88.4c-3.34,0-6.05-2.71-6.05-6.05v-19.9c0-3.34,2.71-6.05,6.05-6.05Z" transform="translate(-4.7 2.9) rotate(-.78)"/>
            <path class="cls-19" d="M165.32,361.51l88.39-1.21c3.34-.05,6.01-2.79,5.97-6.13l-.04-2.65c-1.13,1.62-2.85,2.85-4.71,3.59-2.64,1.05-5.53,1.24-8.37,1.42-24.45,1.49-48.97,1.94-73.46,1.36-2.89-.07-5.8-.15-8.6-.89-1.93-.51-3.8-1.36-5.34-2.61l.02,1.16c.05,3.34,2.79,6.01,6.13,5.97Z"/>
            <path class="cls-11" d="M246.56,356.51c-24.45,1.49-48.97,1.94-73.46,1.36-2.89-.07-5.8-.15-8.6-.89-.76-.2-1.51-.45-2.24-.77"/>
            <line class="cls-11" x1="182.68" y1="329.26" x2="253.27" y2="328.3"/>
            <path class="cls-11" d="M159.13,351.39l-.22-15.75c-.05-3.34,2.63-6.09,5.97-6.13l11.81-.16"/>
          </g>
          <g>
            <rect class="cls-26" x="169.7" y="336.24" width="4.88" height="16.25" transform="translate(-4.69 2.39) rotate(-.78)"/>
            <rect class="cls-26" x="184.4" y="345.79" width="4.88" height="6.5" transform="translate(-4.76 2.59) rotate(-.78)"/>
            <rect class="cls-26" x="197.89" y="348.86" width="4.88" height="3.25" transform="translate(-4.78 2.78) rotate(-.78)"/>
            <rect class="cls-26" x="211.58" y="342.17" width="4.88" height="9.75" transform="translate(-4.73 2.96) rotate(-.78)"/>
            <rect class="cls-26" x="225.33" y="335.48" width="4.88" height="16.25" transform="translate(-4.68 3.15) rotate(-.78)"/>
            <rect class="cls-26" x="239.09" y="337.15" width="4.88" height="14.39" transform="translate(-4.69 3.34) rotate(-.78)"/>
            <rect class="cls-1" x="174.57" y="336.18" width="4.88" height="16.25" transform="translate(-4.7 2.46) rotate(-.78)"/>
            <rect class="cls-1" x="189.27" y="345.72" width="4.88" height="6.5" transform="translate(-4.76 2.66) rotate(-.78)"/>
            <rect class="cls-1" x="202.77" y="348.79" width="4.88" height="3.25" transform="translate(-4.78 2.84) rotate(-.78)"/>
            <rect class="cls-1" x="216.46" y="342.1" width="4.88" height="9.75" transform="translate(-4.73 3.03) rotate(-.78)"/>
            <rect class="cls-1" x="230.21" y="335.42" width="4.88" height="16.25" transform="translate(-4.68 3.22) rotate(-.78)"/>
            <rect class="cls-1" x="243.97" y="337.08" width="4.88" height="14.39" transform="translate(-4.69 3.41) rotate(-.78)"/>
            <line class="cls-11" x1="166.52" y1="352.57" x2="252.19" y2="351.39"/>
          </g>
        </g>
        <g>
          <g>
            <path class="cls-5" d="M283.76,328.08h24.4c3.34,0,6.05,2.71,6.05,6.05v19.9c0,3.34-2.71,6.05-6.05,6.05h-24.4c-3.34,0-6.05-2.71-6.05-6.05v-19.9c0-3.34,2.71-6.05,6.05-6.05Z" transform="translate(-11.7 10.42) rotate(-1.98)"/>
            <path class="cls-15" d="M281.45,326.02h24.4c3.34,0,6.05,2.71,6.05,6.05v19.9c0,3.34-2.71,6.05-6.05,6.05h-24.4c-3.34,0-6.05-2.71-6.05-6.05v-19.9c0-3.34,2.71-6.05,6.05-6.05Z" transform="translate(-2.79 2.41) rotate(-.47)"/>
            <path class="cls-19" d="M311.98,351.82v-.59c-2.85,2.12-6.88,2.67-10.56,2.85-5.83.28-11.69.14-17.5-.4-2.93-.28-6.07-.8-8.44-2.41v.86c.03,3.34,2.77,6.03,6.11,6l24.4-.2c3.34-.03,6.03-2.76,6-6.1Z"/>
            <path class="cls-11" d="M301.42,354.08c-5.83.28-11.69.14-17.5-.4-2.2-.21-4.52-.55-6.54-1.39"/>
            <path class="cls-11" d="M275.32,332.96v-.74c-.03-3.34,2.65-6.07,6-6.1l24.4-.2"/>
            <line class="cls-11" x1="275.45" y1="348.98" x2="275.35" y2="336.78"/>
          </g>
          <g>
            <path class="cls-11" d="M284.93,333.84c.2,4.6.19,9.2.13,14.1,5.79.11,11.58.06,17.6-.07-.19-4.6-.39-9.21-.94-13.67-2.75,2.52-5.5,5.05-8.25,7.57"/>
            <path class="cls-6" d="M286.86,331.73c-1.06-.9-2.83-.77-3.75.27-.91,1.05-.81,2.82.23,3.75,1.04.93,2.81.84,3.75-.19.94-1.02.91-2.85-.23-3.84Z"/>
            <path class="cls-12" d="M286.56,345.34c-1.06-.9-2.83-.77-3.75.27-.91,1.05-.81,2.82.23,3.75,1.04.93,2.81.84,3.75-.19.94-1.03.91-2.85-.23-3.84Z"/>
            <path class="cls-6" d="M303.8,345.73c-1.06-.9-2.83-.77-3.75.27-.91,1.05-.81,2.82.23,3.75,1.04.93,2.81.84,3.75-.19.94-1.03.91-2.85-.23-3.84Z"/>
            <path class="cls-6" d="M304.11,332.12c-1.06-.9-2.83-.77-3.75.27-.91,1.05-.81,2.82.23,3.75,1.04.93,2.81.84,3.75-.19.94-1.02.91-2.85-.23-3.84Z"/>
            <path class="cls-12" d="M295.17,339.42c-1.06-.9-2.83-.77-3.75.27-.91,1.05-.81,2.82.23,3.75,1.04.93,2.81.84,3.75-.19.94-1.02.91-2.85-.23-3.84Z"/>
          </g>
        </g>
        <g>
          <line class="cls-6" x1="286.37" y1="303.9" x2="302.07" y2="303.9"/>
          <line class="cls-6" x1="286.37" y1="308.5" x2="302.07" y2="308.5"/>
          <line class="cls-6" x1="286.37" y1="313.09" x2="295.96" y2="313.09"/>
        </g>
        <g>
          <line class="cls-11" x1="165.97" y1="177.95" x2="197.62" y2="177.95"/>
          <line class="cls-11" x1="165.97" y1="182.55" x2="197.62" y2="182.55"/>
          <line class="cls-11" x1="165.97" y1="187.14" x2="185.31" y2="187.14"/>
        </g>
        <g>
          <line class="cls-11" x1="280.25" y1="177.95" x2="304.7" y2="177.95"/>
          <line class="cls-11" x1="280.25" y1="182.55" x2="304.7" y2="182.55"/>
        </g>
      </g>
      <g>
        <g>
          <g>
            <path class="cls-5" d="M180.63,447.35c-26.18,1.45-52.4,2.1-78.62,1.95-4.54-.03-8.33-3.47-8.85-7.98-1.45-12.55-1.51-24.87-.49-36.2.39-4.27,3.78-7.64,8.04-8.08,26.28-2.71,52.7-3.64,78.65-2.08,4.27.26,7.81,3.49,8.36,7.73,1.56,11.97,2.07,24.07,1.35,36.17-.27,4.57-3.88,8.24-8.45,8.49Z"/>
            <path class="cls-23" d="M178.43,444.97c-26.21.77-52.44.74-78.64-.09-4.54-.14-8.24-3.68-8.64-8.21-1.12-12.58-.87-24.9.45-36.2.5-4.26,3.97-7.54,8.25-7.87,26.34-2.03,52.78-2.27,78.68-.04,4.26.37,7.71,3.69,8.16,7.95,1.24,12,1.45,24.12.42,36.2-.39,4.56-4.1,8.14-8.67,8.27Z"/>
            <path class="cls-19" d="M181.97,393.58c1.66,13.33,2.06,26.45,1.43,39.48-.16,3.36-2.82,6.07-6.18,6.28-28.79,1.79-57.08,1.87-85.26.36,1.4,2.99,4.36,5.07,7.82,5.18,26.2.83,52.43.86,78.64.09,4.57-.13,8.28-3.71,8.67-8.27,1.03-12.08.83-24.19-.42-36.2-.31-3.02-2.15-5.57-4.71-6.93Z"/>
            <path class="cls-11" d="M152.39,440.47c-18.87.54-37.58.34-56.22-.55"/>
            <path class="cls-11" d="M176.53,439.38c-5.85.36-11.68.65-17.49.86"/>
          </g>
          <g>
            <path class="cls-18" d="M171.83,432.76c-22.56,1.87-45.27,1.86-67.82-.02-2.4-.2-4.29-2.14-4.46-4.54-.64-8.73-.69-16.79-.05-24.53.21-2.52,2.33-4.46,4.86-4.46,22.34-.08,44.68-.09,66.91.93,2.45.11,4.44,2.04,4.66,4.48.67,7.66.75,15.42.37,23.49-.12,2.45-2.02,4.46-4.47,4.67Z"/>
            <path class="cls-3" d="M176.5,420.38c-.02,2.54-.08,5.11-.2,7.71-.12,2.45-2.02,4.46-4.47,4.67-3.95.33-7.9.58-11.85.79,2.12-4.61,4.68-9.02,7.68-13.12,0,0,5.2-.01,8.84-.05ZM113.77,406.91s-.87-4.63-1.56-7.74c-2.62,0-5.23.01-7.85.02-2.53,0-4.65,1.94-4.86,4.46-.19,2.25-.31,4.53-.38,6.85,4.89-1.2,9.77-2.4,14.65-3.6ZM139.88,434.13c-4.54-4.89-9.07-9.79-13.61-14.68-1.36.25-7.35,3.24-7.35,3.24,2.11,4.14,4.85,7.96,8.09,11.29,4.29.12,8.58.17,12.87.15ZM122.24,433.84c-1.92-3.38-8.23-12.18-8.23-12.18-4.27,3.28-8.54,6.56-12.81,9.85.76.68,1.73,1.14,2.81,1.23,6.07.51,12.15.87,18.23,1.1ZM135.19,411.4s20.03,11.17,20.65,10.79c5.77-5.85,8.97-14.13,8.75-22.34-7.56-.28-15.14-.45-22.72-.55-2.23,4.03-4.45,8.06-6.68,12.1Z"/>
            <g class="cls-24">
              <g>
                <path class="cls-11" d="M152.32,435.06c4.17-6.34,8.34-12.68,12.51-19.02l13.98.34"/>
                <g>
                  <path class="cls-11" d="M96.64,419.03c9.74-1.34,19.47-2.68,29.52-4.14l7.41-19.08"/>
                  <path class="cls-11" d="M126.15,414.75c8.15,6.86,16.3,13.72,24.45,20.58"/>
                  <path class="cls-11" d="M119.84,404.13c3.51.97,5.97,1.65,9.48,2.62"/>
                </g>
              </g>
            </g>
          </g>
        </g>
        <g>
          <path class="cls-5" d="M144.9,333.74c-.23-.02-.47-.03-.7-.05-17.75-1.17-31.17,15.73-26.5,32.89,3.57,13.09,8.52,25.72,14.81,37.87,2.18,4.21,8,4.72,10.93,1,8.19-10.39,15.57-21.42,22.05-32.95,9.34-16.61-1.59-37.41-20.6-38.76ZM155.18,362.15c-1.59,4.84-6.47,8.4-11.57,8.44-5.09.04-10.03-3.44-11.69-8.26-1.67-4.81.05-10.6,4.08-13.72,4.03-3.12,10.25-3.61,14.9-.11,4.07,3.06,5.88,8.82,4.29,13.66Z"/>
          <path class="cls-4" d="M127.17,365.8c-1.24-5.66,1.26-11.96,6.04-15.23,4.78-3.27,11.56-3.32,16.73.49-2.35-4.78-7.63-7.95-12.96-7.79-5.32.16-10.4,3.64-12.47,8.55-2.06,4.91-1,10.98,2.65,13.98Z"/>
          <path class="cls-26" d="M138.3,333.93c-.23,0-.47.01-.7.02-17.78.42-29.64,18.45-23.45,35.12,4.72,12.72,10.78,24.86,18.13,36.4,2.54,3.99,8.38,3.98,10.97.02,7.23-11.08,13.6-22.72,19.02-34.78,7.82-17.37-4.93-37.12-23.98-36.77ZM151.08,361.3c-1.16,4.96-5.7,8.94-10.77,9.44-5.07.49-10.29-2.54-12.39-7.18s-.89-10.56,2.84-14.03c3.73-3.47,9.88-4.51,14.83-1.44,4.33,2.68,6.65,8.26,5.49,13.22Z"/>
        </g>
      </g>
      <g>
        <g>
          <path class="cls-5" d="M179.47,321.92c-44.29,1.35-88.64.67-132.87-2.04-5.58-.34-10.05-4.8-10.29-10.38-.89-20.09-.29-39.77,2.24-58.83.69-5.24,4.99-9.26,10.27-9.55,43.08-2.39,88.82-2.84,133.22,1,5.21.45,9.41,4.52,9.95,9.72,2.04,19.75.28,40.42-2.01,60.38-.62,5.39-5.08,9.54-10.5,9.7Z"/>
          <path class="cls-23" d="M177.89,317.74c-44.26,2.19-88.61,2.35-132.88.48-5.58-.24-10.14-4.61-10.49-10.18-1.27-20.07-1.04-39.75,1.12-58.86.59-5.25,4.81-9.35,10.08-9.74,43.03-3.2,88.75-4.52,133.22-1.52,5.22.35,9.5,4.34,10.13,9.53,2.42,19.71,1.05,40.41-.86,60.4-.52,5.4-4.9,9.63-10.32,9.9Z"/>
          <path class="cls-19" d="M189.08,247.43c-.44-3.61-2.65-6.64-5.71-8.26,1.38,21.39,1.71,42.84.97,64.26-.16,4.7-3.86,8.51-8.55,8.83-42.87,2.93-84.4,2.8-125.75,0-5.31-.36-11.2-1.11-15.47-3.92.5,5.43,4.98,9.64,10.45,9.88,44.27,1.87,88.63,1.71,132.88-.48,5.42-.27,9.8-4.5,10.32-9.9,1.92-20,3.28-40.69.86-60.4Z"/>
          <path class="cls-11" d="M119.84,314.38c-23.46.18-46.67-.55-69.81-2.12-2.96-.2-6.1-.52-9.04-1.26"/>
          <path class="cls-11" d="M184.44,300.2c-.03,1.08-.07,2.15-.1,3.23-.16,4.7-3.86,8.51-8.55,8.83-11.6.79-23.09,1.36-34.52,1.71"/>
        </g>
        <path class="cls-26" d="M52.92,302.54h0c0-1.1.9-2,2-2h34.5c1.1,0,2,.91,2,2.01,0,1.1-.9,2-2,2h-34.5c-1.1,0-2-.91-2-2.01Z"/>
        <path class="cls-26" d="M97.92,302.55h0c0-1.1.9-2,2-2l67.96.02c1.1,0,2,.9,2,2,0,1.1-.9,2-2,2l-67.96-.02c-1.1,0-2-.9-2-2Z"/>
        <g>
          <path class="cls-9" d="M168.66,259.82l1.22,31.53-117.24.96v-18.47c3.5,1.3,8.53-.23,11.36-2.67,2.83-2.44,4.86-5.66,7.4-8.4,2.53-2.74,5.89-5.13,9.62-5.05,6.17.13,11.19,6.8,17.26,5.74,5.42-.95,8.06-7.47,13.13-9.59,4.6-1.93,9.96.31,13.71,3.59,3.75,3.28,6.52,7.56,10.26,10.85,3.74,3.29,9.09,5.54,13.7,3.64,3.17-1.31,5.29-4.27,7.62-6.79,2.33-2.52,5.81-4.86,11.95-5.34Z"/>
          <path class="cls-11" d="M54.05,253.4c-1.01-.63-2.49-.37-3.21.58-.72.95-.57,2.46.35,3.22.92.76,2.46.61,3.2-.32.74-.94.77-2.79-.33-3.47Z"/>
          <path class="cls-11" d="M169.65,246.96c-1.01-.63-2.49-.37-3.21.58-.72.95-.57,2.46.35,3.22.92.76,2.46.61,3.2-.32.74-.94.77-2.79-.34-3.47Z"/>
          <polyline class="cls-11" points="52.65 257.67 52.65 292.31 169.89 291.35 168.33 251.24"/>
        </g>
      </g>
      <g>
        <g>
          <path class="cls-5" d="M162.14,194.18c-23.6,1.59-47.32,1.43-70.89-.47-5.71-.46-10.29-5-10.75-10.71-1.64-20.01-1.6-39.76.13-58.91.52-5.73,5.04-10.26,10.77-10.76,24.59-2.16,49.33-1.71,73.17,1.87,5.36.81,9.41,5.25,9.89,10.64,1.72,19.12,1.24,38.5-1.45,58.12-.76,5.55-5.28,9.85-10.87,10.22Z"/>
          <path class="cls-23" d="M160.8,189.65c-23.52,2.54-47.22,3.34-70.86,2.4-5.73-.23-10.48-4.58-11.18-10.27-2.44-19.92-3.21-39.66-2.25-58.87.28-5.75,4.62-10.45,10.33-11.19,24.48-3.16,49.22-3.71,73.18-1.09,5.39.59,9.61,4.86,10.32,10.23,2.49,19.03,2.79,38.42.91,58.14-.53,5.58-4.88,10.05-10.45,10.65Z"/>
          <path class="cls-19" d="M170.34,120.86c-.53-4.08-3.1-7.52-6.66-9.2,3.43,21.02,4.8,42.38,4.01,63.66-.16,4.22-3.39,7.69-7.59,8.19-27.14,3.22-53.85,4.07-80,2.4,1.93,3.54,5.62,5.96,9.85,6.13,23.63.94,47.34.14,70.86-2.4,5.57-.6,9.91-5.07,10.45-10.65,1.88-19.71,1.58-39.1-.91-58.14Z"/>
          <path class="cls-11" d="M154.8,184.11c-23.47,2.52-46.62,3.26-69.35,2.11"/>
          <path class="cls-11" d="M167.84,170.12c-.04,1.74-.09,3.47-.15,5.21-.12,3.12-1.9,5.82-4.52,7.22"/>
        </g>
        <g>
          <path class="cls-26" d="M140.27,149.81l-.38-5.85,3.11-2.08c.71-.47.98-1.37.68-2.17-.56-1.51-1.27-2.94-2.11-4.28-.45-.72-1.33-1.05-2.13-.78l-3.54,1.2-4.41-3.87.73-3.67c.17-.83-.28-1.66-1.05-2.01-1.44-.66-2.95-1.17-4.52-1.53-.83-.19-1.68.19-2.06.95l-1.65,3.35-5.85.38-2.08-3.11c-.47-.71-1.37-.98-2.17-.68-1.51.56-2.94,1.27-4.28,2.11-.72.45-1.05,1.33-.78,2.13l1.2,3.54-3.87,4.41-3.67-.73c-.83-.17-1.66.28-2.01,1.05-.66,1.44-1.17,2.95-1.53,4.52-.19.83.19,1.68.95,2.06l3.35,1.65.38,5.85-3.11,2.08c-.71.47-.98,1.37-.68,2.17.56,1.51,1.27,2.94,2.11,4.28.45.72,1.33,1.05,2.13.78l3.54-1.2,4.41,3.87-.73,3.67c-.17.83.28,1.66,1.05,2.01,1.44.66,2.95,1.17,4.52,1.53.83.19,1.68-.19,2.06-.95l1.65-3.35,5.85-.38,2.08,3.11c.47.71,1.37.98,2.17.68,1.51-.56,2.94-1.27,4.28-2.11.72-.45,1.05-1.33.78-2.13l-1.2-3.54,3.87-4.41,3.67.73c.83.17,1.66-.28,2.01-1.05.66-1.44,1.17-2.95,1.53-4.52.19-.83-.19-1.68-.95-2.06l-3.35-1.65ZM121.99,159.62c-6.35.42-11.84-4.4-12.25-10.75-.42-6.35,4.4-11.84,10.75-12.25,6.35-.42,11.84,4.4,12.25,10.75.42,6.35-4.4,11.84-10.75,12.25Z"/>
          <path class="cls-26" d="M121.67,154.77c-3.67.24-6.84-2.54-7.08-6.21-.24-3.67,2.54-6.84,6.21-7.08,3.67-.24,6.84,2.54,7.08,6.21.24,3.67-2.54,6.84-6.21,7.08Z"/>
        </g>
      </g>
      <g>
        <g>
          <path class="cls-5" d="M448.54,219.88c-40.94,2.21-82.01,1.08-122.83-3.37-4.95-.54-8.93-5.23-9.49-11.27-3.08-33.33-3.49-66.61-1.77-99.64.32-6.16,4.21-11.16,9.22-11.87,42.11-6,84.74-6.73,127.34-2.73,5.31.5,9.46,5.82,9.64,12.33.94,35.02.34,70.08-2.13,104.87-.46,6.4-4.73,11.39-9.98,11.67Z"/>
          <path class="cls-23" d="M444.65,214.5c-40.9,3.29-81.97,3.24-122.86-.14-4.95-.41-9.02-4.99-9.68-11.01-3.67-33.24-4.66-66.51-3.52-99.57.21-6.17,4.01-11.27,9.01-12.11,41.99-7.11,84.6-8.96,127.26-6.08,5.32.36,9.56,5.57,9.85,12.08,1.55,34.99,1.57,70.06-.29,104.9-.34,6.42-4.53,11.51-9.77,11.93Z"/>
          <path class="cls-19" d="M454.71,97.67c-.23-5.25-3.04-9.64-6.9-11.34,3.6,27.87,2.87,56.37,2.12,84.62l-.83,31.35c-.12,4.34-2.9,7.85-6.44,8.15-28.28,2.37-55.26,1.86-82.19,1.36-16.17-.31-32.51-.65-47.29-4.32,1.65,3.89,4.88,6.58,8.62,6.89,40.89,3.38,81.97,3.43,122.86.14,5.24-.42,9.43-5.52,9.77-11.93,1.86-34.85,1.84-69.92.29-104.9Z"/>
          <path class="cls-11" d="M426.84,211.49c-22.61,1.13-44.51.72-66.39.31-14.18-.27-28.49-.56-41.76-3.11"/>
          <path class="cls-11" d="M443.45,210.32c-.26.06-.53.1-.8.12-2.33.2-4.66.37-6.97.53"/>
        </g>
        <g>
          <path class="cls-26" d="M334.08,141.22h0c0-1.47,1.19-2.67,2.67-2.68l27.21-.07c1.47,0,2.67,1.19,2.68,2.67,0,1.47-1.19,2.67-2.67,2.68l-27.21.07c-1.47,0-2.67-1.19-2.68-2.67Z"/>
          <g>
            <circle class="cls-11" cx="351.45" cy="115.88" r="18"/>
            <path class="cls-17" d="M367.4,124.23c1.31-2.5,2.05-5.34,2.05-8.35,0-9.94-8.06-18-18-18-5.54,0-10.5,2.5-13.8,6.44"/>
          </g>
          <g>
            <path class="cls-4" d="M344.67,120.4c-.35,0-.65-.04-.9-.12-.25-.08-.46-.19-.61-.33-.15-.14-.28-.32-.37-.54-.09-.22-.16-.45-.19-.69-.03-.24-.05-.52-.05-.84h1.62c0,.48.04.82.12,1.01.08.18.22.27.44.27h.04c.07,0,.12-.01.18-.03.05-.02.1-.05.13-.1.04-.05.07-.09.09-.13.03-.04.05-.11.06-.2.02-.09.03-.17.04-.23,0-.07.02-.16.02-.29s0-.24,0-.32c0-.09,0-.21,0-.37,0-.22,0-.4-.02-.55-.02-.15-.04-.29-.08-.43-.04-.14-.1-.24-.19-.31-.09-.07-.2-.1-.33-.1-.34,0-.56.25-.63.74h-1.45l.14-4.66h3.79v1.4h-2.44l-.1,1.66c.08-.09.2-.17.39-.24.18-.07.39-.11.6-.13.08,0,.15,0,.21,0,.51,0,.91.2,1.2.6.33.46.49,1.12.49,1.99,0,.31-.01.58-.03.82-.02.24-.06.48-.12.71-.06.24-.14.44-.24.61-.11.17-.24.32-.4.45-.16.13-.36.23-.6.3-.24.06-.51.1-.83.1Z"/>
            <path class="cls-4" d="M349.95,120.4c-.71,0-1.26-.21-1.64-.63-.38-.42-.57-.98-.57-1.69v-3.67c0-.74.18-1.31.55-1.74.37-.42.92-.63,1.66-.63s1.28.21,1.65.64c.37.42.55,1,.55,1.74v3.67c0,.7-.19,1.26-.58,1.68-.38.42-.93.63-1.63.63ZM349.95,118.92c.33,0,.5-.29.5-.88v-3.58c0-.08,0-.14,0-.19,0-.05,0-.11-.02-.2,0-.08-.02-.15-.05-.21-.02-.05-.05-.11-.08-.17-.04-.06-.08-.1-.14-.13-.06-.03-.13-.04-.21-.04-.06,0-.12,0-.17.02-.05.01-.09.04-.13.08-.04.04-.06.07-.09.1-.03.03-.04.08-.06.14-.02.06-.03.11-.04.14,0,.03-.01.09-.02.16,0,.07,0,.12,0,.14v3.72c0,.59.17.88.5.88Z"/>
            <path class="cls-4" d="M356.43,116.24c-.3.35-.79.52-1.47.52s-1.17-.18-1.46-.53c-.29-.35-.44-.9-.44-1.64v-.34c0-.75.14-1.29.43-1.62.29-.33.78-.5,1.47-.5s1.19.16,1.48.49c.29.33.44.86.44,1.6v.37c0,.74-.15,1.28-.45,1.63ZM354.71,115.66c.07.04.16.05.26.05s.19-.02.26-.05c.07-.04.12-.08.16-.14.04-.06.07-.14.09-.25.02-.11.03-.21.04-.32,0-.1,0-.24,0-.41v-.24c0-.18,0-.32,0-.41,0-.09-.01-.19-.03-.3-.02-.11-.05-.18-.09-.23-.04-.05-.09-.08-.16-.11-.07-.03-.16-.05-.27-.05s-.2.02-.27.05c-.07.03-.12.07-.16.12-.04.05-.07.12-.08.22-.02.1-.03.2-.04.3,0,.09,0,.23,0,.41v.25c0,.17,0,.31,0,.41,0,.1.02.21.04.32.02.11.05.19.09.25.04.06.09.1.16.14ZM355.98,120.26l2.46-8.1h.92l-2.46,8.1h-.92ZM360.38,120.27c-.68,0-1.16-.18-1.46-.53-.3-.35-.44-.9-.44-1.64v-.34c0-.75.14-1.29.43-1.62.29-.33.78-.5,1.47-.5s1.19.16,1.48.49c.29.33.44.86.44,1.6v.37c0,.74-.15,1.28-.45,1.63-.3.35-.79.52-1.47.52ZM360.12,119.17c.07.04.16.05.26.05s.19-.02.26-.05c.07-.04.12-.08.16-.14.04-.06.07-.14.09-.25.02-.11.03-.21.04-.32,0-.1,0-.24,0-.41v-.24c0-.18,0-.32,0-.41s-.01-.19-.03-.3c-.02-.11-.05-.18-.09-.23-.04-.05-.09-.08-.16-.11-.07-.03-.16-.05-.27-.05s-.2.02-.27.05c-.07.03-.12.07-.16.12-.04.05-.07.12-.08.22-.02.1-.03.2-.04.3,0,.09,0,.23,0,.41v.25c0,.17,0,.31,0,.41,0,.1.02.21.04.32.02.11.05.19.09.25.04.06.09.1.16.14Z"/>
          </g>
        </g>
        <g>
          <path class="cls-26" d="M397.07,141.22h0c0-1.47,1.19-2.67,2.67-2.68l27.21-.07c1.47,0,2.67,1.19,2.68,2.67,0,1.47-1.19,2.67-2.67,2.68l-27.21.07c-1.47,0-2.67-1.19-2.68-2.67Z"/>
          <g>
            <circle class="cls-11" cx="413.35" cy="115.88" r="18"/>
            <path class="cls-17" d="M420.57,99.39c-2.21-.97-4.65-1.51-7.22-1.51-9.94,0-18,8.06-18,18"/>
          </g>
          <g>
            <path class="cls-4" d="M403.84,120.26v-1.18l1.92-2.98c.03-.05.1-.15.19-.29.09-.14.16-.25.21-.32.04-.07.1-.17.18-.31.07-.13.13-.25.16-.34.04-.09.07-.2.1-.32.03-.12.04-.24.04-.35,0-.25-.06-.44-.17-.57-.09-.1-.2-.14-.34-.14-.04,0-.08,0-.12,0-.19.03-.33.13-.42.31-.09.18-.13.45-.13.81v.39h-1.62v-.42c0-.37.04-.7.13-1,.08-.3.21-.56.39-.79.18-.23.41-.41.71-.53.29-.13.64-.19,1.03-.19.72,0,1.27.19,1.64.56.37.38.56.9.56,1.58,0,.1,0,.2-.02.31s-.03.2-.04.28c-.01.08-.04.18-.08.28-.04.1-.07.19-.09.25-.02.06-.06.15-.12.26-.06.11-.1.19-.12.23-.03.05-.07.13-.15.24-.08.12-.12.19-.15.22-.02.03-.08.11-.16.24-.09.13-.14.2-.16.23l-1.48,2.21h2.35v1.31h-4.23Z"/>
            <path class="cls-4" d="M411.28,120.4c-.35,0-.65-.04-.9-.12-.25-.08-.46-.19-.61-.33-.15-.14-.28-.32-.37-.54-.09-.22-.16-.45-.19-.69-.03-.24-.05-.52-.05-.84h1.62c0,.48.04.82.12,1.01.08.18.22.27.44.27h.04c.07,0,.12-.01.18-.03.05-.02.1-.05.13-.1.04-.05.07-.09.09-.13s.05-.11.06-.2c.02-.09.03-.17.04-.23,0-.07.02-.16.02-.29,0-.13,0-.24,0-.32,0-.09,0-.21,0-.37,0-.22,0-.4-.02-.55-.02-.15-.04-.29-.08-.43-.04-.14-.1-.24-.19-.31-.09-.07-.2-.1-.33-.1-.34,0-.56.25-.63.74h-1.45l.14-4.66h3.79v1.4h-2.44l-.1,1.66c.08-.09.2-.17.39-.24.18-.07.39-.11.6-.13.08,0,.15,0,.21,0,.51,0,.91.2,1.2.6.33.46.49,1.12.49,1.99,0,.31-.01.58-.03.82-.02.24-.06.48-.12.71-.06.24-.14.44-.24.61-.11.17-.24.32-.4.45-.16.13-.36.23-.6.3-.24.06-.51.1-.83.1Z"/>
            <path class="cls-4" d="M417.71,116.24c-.3.35-.79.52-1.47.52s-1.17-.18-1.46-.53c-.29-.35-.44-.9-.44-1.64v-.34c0-.75.14-1.29.43-1.62.29-.33.78-.5,1.47-.5s1.19.16,1.48.49c.29.33.44.86.44,1.6v.37c0,.74-.15,1.28-.45,1.63ZM415.98,115.66c.07.04.16.05.26.05s.19-.02.26-.05c.07-.04.12-.08.16-.14.04-.06.07-.14.09-.25.02-.11.03-.21.04-.32,0-.1,0-.24,0-.41v-.24c0-.18,0-.32,0-.41,0-.09-.01-.19-.03-.3-.02-.11-.05-.18-.09-.23-.04-.05-.09-.08-.16-.11-.07-.03-.16-.05-.27-.05s-.2.02-.27.05c-.07.03-.12.07-.16.12-.04.05-.07.12-.08.22-.02.1-.03.2-.04.3,0,.09,0,.23,0,.41v.25c0,.17,0,.31,0,.41,0,.1.02.21.04.32.02.11.05.19.09.25.04.06.09.1.16.14ZM417.25,120.26l2.46-8.1h.92l-2.46,8.1h-.92ZM421.65,120.27c-.68,0-1.16-.18-1.46-.53-.3-.35-.44-.9-.44-1.64v-.34c0-.75.14-1.29.43-1.62.29-.33.78-.5,1.47-.5s1.19.16,1.48.49c.29.33.44.86.44,1.6v.37c0,.74-.15,1.28-.45,1.63-.3.35-.79.52-1.47.52ZM421.39,119.17c.07.04.16.05.26.05s.19-.02.26-.05c.07-.04.12-.08.16-.14.04-.06.07-.14.09-.25.02-.11.03-.21.04-.32,0-.1,0-.24,0-.41v-.24c0-.18,0-.32,0-.41,0-.09-.01-.19-.03-.3-.02-.11-.05-.18-.09-.23-.04-.05-.09-.08-.16-.11-.07-.03-.16-.05-.27-.05s-.2.02-.27.05c-.07.03-.12.07-.16.12-.04.05-.07.12-.08.22-.02.1-.03.2-.04.3,0,.09,0,.23,0,.41v.25c0,.17,0,.31,0,.41,0,.1.02.21.04.32.02.11.05.19.09.25.04.06.09.1.16.14Z"/>
          </g>
        </g>
        <g>
          <path class="cls-26" d="M336.08,198.15h0c0-1.47,1.19-2.67,2.67-2.68l27.21-.07c1.47,0,2.67,1.19,2.68,2.67,0,1.47-1.19,2.67-2.67,2.68l-27.21.07c-1.47,0-2.67-1.19-2.68-2.67Z"/>
          <g>
            <circle class="cls-11" cx="351.45" cy="171.82" r="18"/>
            <path class="cls-17" d="M345.09,188.67c1.98.75,4.12,1.16,6.36,1.16,9.94,0,18-8.06,18-18s-8.06-18-18-18-18,8.06-18,18c0,1.63.22,3.21.62,4.72"/>
          </g>
          <g>
            <path class="cls-4" d="M344.63,175.7c-.4,0-.75-.06-1.04-.18-.29-.12-.52-.3-.69-.53-.17-.23-.3-.5-.37-.8-.07-.28-.11-.59-.11-.94v-.09c0-.42.08-.8.24-1.13.15-.33.38-.57.69-.73-.23-.17-.41-.4-.56-.69-.15-.29-.22-.65-.23-1.06v-.09c0-.65.17-1.15.52-1.52.36-.38.88-.58,1.57-.58s1.2.19,1.56.58c.34.37.51.87.51,1.52v.09c0,.42-.09.78-.23,1.07-.14.29-.33.52-.56.68.3.16.53.4.69.73.16.33.24.71.24,1.13v.13c0,.34-.03.64-.1.9-.08.3-.2.56-.37.79-.17.23-.4.41-.7.53-.29.12-.64.18-1.05.18ZM344.63,174.47c.09,0,.16-.02.23-.05.07-.04.12-.09.16-.16.04-.07.07-.14.1-.21.03-.07.04-.16.06-.26.01-.1.02-.19.02-.26,0-.07,0-.15,0-.25,0-.12,0-.22,0-.31,0-.09-.01-.18-.02-.28-.01-.1-.03-.19-.06-.26-.03-.07-.06-.14-.1-.2-.04-.06-.09-.11-.16-.14-.07-.03-.14-.05-.23-.05-.1,0-.19.02-.26.07-.07.05-.13.11-.17.18-.04.07-.07.17-.09.29-.02.12-.04.23-.04.33,0,.1,0,.22,0,.37s0,.28.01.39.03.23.07.37c.03.14.09.24.18.32.08.07.19.11.31.11ZM344.63,170.7c.33,0,.5-.4.5-1.21,0-.27-.04-.49-.13-.64-.08-.16-.21-.23-.37-.23s-.3.08-.38.23-.13.37-.13.64c0,.81.17,1.21.51,1.21Z"/>
            <path class="cls-4" d="M349.95,175.72c-.71,0-1.26-.21-1.64-.63-.38-.42-.57-.98-.57-1.69v-3.67c0-.74.18-1.31.55-1.74.37-.42.92-.63,1.66-.63s1.28.21,1.65.64c.37.42.55,1,.55,1.74v3.67c0,.7-.19,1.26-.58,1.68s-.93.63-1.63.63ZM349.95,174.23c.33,0,.5-.29.5-.88v-3.58c0-.08,0-.14,0-.19,0-.05,0-.11-.02-.2,0-.08-.02-.15-.05-.21-.02-.05-.05-.11-.08-.17-.04-.06-.08-.1-.14-.13-.06-.03-.13-.04-.21-.04-.06,0-.12,0-.17.02-.05.01-.09.04-.13.08-.04.04-.06.07-.09.1-.03.03-.04.08-.06.14-.02.06-.03.11-.04.14,0,.03-.01.09-.02.16,0,.07,0,.12,0,.14v3.72c0,.59.17.88.5.88Z"/>
            <path class="cls-4" d="M356.44,171.55c-.3.35-.79.52-1.47.52s-1.17-.18-1.46-.53c-.29-.35-.44-.9-.44-1.64v-.34c0-.75.14-1.29.43-1.62.29-.33.78-.5,1.47-.5s1.19.16,1.48.49c.29.33.44.86.44,1.6v.37c0,.74-.15,1.28-.45,1.63ZM354.71,170.98c.07.04.16.05.26.05s.19-.02.26-.05c.07-.04.12-.08.16-.14.04-.06.07-.14.09-.25.02-.11.03-.21.04-.32,0-.1,0-.24,0-.41v-.24c0-.18,0-.32,0-.41s-.01-.19-.03-.3c-.02-.11-.05-.18-.09-.23-.04-.05-.09-.08-.16-.11-.07-.03-.16-.05-.27-.05s-.2.02-.27.05c-.07.03-.12.07-.16.12-.04.05-.07.12-.08.22-.02.1-.03.2-.04.3,0,.09,0,.23,0,.41v.25c0,.17,0,.31,0,.41,0,.1.02.21.04.32.02.11.05.19.09.25.04.06.09.1.16.14ZM355.98,175.57l2.46-8.1h.92l-2.46,8.1h-.92ZM360.38,175.59c-.68,0-1.16-.18-1.46-.53-.3-.35-.44-.9-.44-1.64v-.34c0-.75.14-1.29.43-1.62.29-.33.78-.5,1.47-.5s1.19.16,1.48.49c.29.33.44.86.44,1.6v.37c0,.74-.15,1.28-.45,1.63-.3.35-.79.52-1.47.52ZM360.12,174.48c.07.04.16.05.26.05s.19-.02.26-.05c.07-.04.12-.08.16-.14.04-.06.07-.14.09-.25.02-.11.03-.21.04-.32,0-.1,0-.24,0-.41v-.24c0-.18,0-.32,0-.41,0-.09-.01-.19-.03-.3-.02-.11-.05-.18-.09-.23s-.09-.08-.16-.11c-.07-.03-.16-.05-.27-.05s-.2.02-.27.05c-.07.03-.12.07-.16.12-.04.05-.07.12-.08.22-.02.1-.03.2-.04.3,0,.09,0,.23,0,.41v.25c0,.17,0,.31,0,.41,0,.1.02.21.04.32.02.11.05.19.09.25.04.06.09.1.16.14Z"/>
          </g>
        </g>
        <g>
          <path class="cls-26" d="M397.07,199.15h0c0-1.47,1.19-2.67,2.67-2.68l27.21-.07c1.47,0,2.67,1.19,2.68,2.67,0,1.47-1.19,2.67-2.67,2.68l-27.21.07c-1.47,0-2.67-1.19-2.68-2.67Z"/>
          <g>
            <circle class="cls-11" cx="413.35" cy="171.82" r="18"/>
            <path class="cls-17" d="M395.35,171.82c0,9.94,8.06,18,18,18,4.76,0,9.09-1.85,12.3-4.86"/>
          </g>
          <g>
            <path class="cls-4" d="M406.01,175.72c-.41,0-.77-.06-1.06-.18-.29-.12-.53-.29-.7-.52-.17-.23-.29-.5-.37-.79-.08-.3-.12-.64-.12-1.04v-.29h1.67v.28c0,.41.05.71.13.88.08.17.23.26.46.26s.36-.08.43-.25.11-.44.11-.83c0-.42-.06-.73-.18-.93-.12-.2-.34-.3-.67-.31h-.29v-1.17h.26c.34,0,.57-.1.69-.28s.19-.48.19-.9c0-.33-.04-.57-.13-.73-.09-.16-.24-.23-.45-.23s-.35.08-.43.25c-.08.17-.11.42-.12.74v.41h-1.67v-.49c0-.72.2-1.28.59-1.67.39-.39.94-.59,1.63-.59s1.26.19,1.65.56.59.92.59,1.63c0,.46-.09.85-.28,1.17-.19.32-.42.52-.71.6.66.24,1,.86,1,1.87,0,.38-.04.73-.12,1.03-.08.3-.21.56-.38.79-.17.23-.4.41-.69.53-.29.12-.63.18-1.03.18Z"/>
            <path class="cls-4" d="M411.3,175.69c-.39,0-.73-.07-1.02-.2-.29-.13-.52-.32-.7-.56-.18-.24-.31-.52-.39-.84-.09-.32-.13-.67-.13-1.07v-2.89c0-.34.02-.64.06-.9.04-.27.11-.52.21-.76.1-.24.23-.44.4-.6s.38-.28.64-.38c.26-.09.57-.14.92-.14.38,0,.71.04.97.13.27.09.48.22.64.41.16.18.28.4.35.65.07.25.11.55.11.89v.14h-1.58c0-.36-.03-.61-.09-.75-.06-.14-.19-.21-.4-.21-.22,0-.37.11-.44.33-.07.22-.1.65-.1,1.29v.72c.08-.14.21-.25.39-.33.18-.08.38-.12.61-.13h.05c.29,0,.55.06.77.17.23.12.41.28.55.5s.23.46.29.74c.06.27.1.58.1.92,0,.44-.04.83-.11,1.16-.07.33-.19.63-.36.89-.16.26-.39.46-.69.6-.29.14-.65.21-1.06.21ZM411.32,174.45c.11,0,.2-.03.27-.08.07-.06.12-.15.16-.27.04-.13.06-.27.07-.42.01-.15.02-.35.02-.59,0-.14,0-.24,0-.32,0-.07,0-.17-.01-.27,0-.11-.02-.19-.03-.25-.01-.06-.03-.12-.06-.19-.03-.07-.06-.12-.1-.15-.04-.03-.08-.06-.14-.09-.06-.02-.12-.04-.19-.04-.12,0-.23.04-.33.11-.1.07-.17.15-.22.24v1.3c0,.69.19,1.04.56,1.04Z"/>
            <path class="cls-4" d="M417.71,171.55c-.3.35-.79.52-1.47.52s-1.17-.18-1.46-.53c-.29-.35-.44-.9-.44-1.64v-.34c0-.75.14-1.29.43-1.62.29-.33.78-.5,1.47-.5s1.19.16,1.48.49c.29.33.44.86.44,1.6v.37c0,.74-.15,1.28-.45,1.63ZM415.98,170.98c.07.04.16.05.26.05s.19-.02.26-.05c.07-.04.12-.08.16-.14.04-.06.07-.14.09-.25.02-.11.03-.21.04-.32,0-.1,0-.24,0-.41v-.24c0-.18,0-.32,0-.41,0-.09-.01-.19-.03-.3-.02-.11-.05-.18-.09-.23-.04-.05-.09-.08-.16-.11-.07-.03-.16-.05-.27-.05s-.2.02-.27.05c-.07.03-.12.07-.16.12-.04.05-.07.12-.08.22-.02.1-.03.2-.04.3,0,.09,0,.23,0,.41v.25c0,.17,0,.31,0,.41,0,.1.02.21.04.32.02.11.05.19.09.25.04.06.09.1.16.14ZM417.25,175.57l2.46-8.1h.92l-2.46,8.1h-.92ZM421.65,175.59c-.68,0-1.16-.18-1.46-.53s-.44-.9-.44-1.64v-.34c0-.75.14-1.29.43-1.62.29-.33.78-.5,1.47-.5s1.19.16,1.48.49c.29.33.44.86.44,1.6v.37c0,.74-.15,1.28-.45,1.63-.3.35-.79.52-1.47.52ZM421.39,174.48c.07.04.16.05.26.05s.19-.02.26-.05c.07-.04.12-.08.16-.14.04-.06.07-.14.09-.25.02-.11.03-.21.04-.32,0-.1,0-.24,0-.41v-.24c0-.18,0-.32,0-.41,0-.09-.01-.19-.03-.3-.02-.11-.05-.18-.09-.23-.04-.05-.09-.08-.16-.11-.07-.03-.16-.05-.27-.05s-.2.02-.27.05c-.07.03-.12.07-.16.12-.04.05-.07.12-.08.22-.02.1-.03.2-.04.3,0,.09,0,.23,0,.41v.25c0,.17,0,.31,0,.41,0,.1.02.21.04.32.02.11.05.19.09.25.04.06.09.1.16.14Z"/>
          </g>
        </g>
      </g>
      <g>
        <path class="cls-3" d="M410.96,474.28c0-1.42-1.16-2.58-2.58-2.58s-2.58,1.16-2.58,2.58,1.16,2.58,2.58,2.58,2.58-1.16,2.58-2.58Z"/>
        <path class="cls-11" d="M419.16,453.29c0-1.05-.85-1.91-1.91-1.91s-1.91.85-1.91,1.91.85,1.91,1.91,1.91,1.91-.85,1.91-1.91Z"/>
        <g>
          <line class="cls-13" x1="436.24" y1="468.19" x2="436.23" y2="472.5"/>
          <line class="cls-13" x1="434.08" y1="470.34" x2="438.39" y2="470.35"/>
        </g>
      </g>
    </g>
  </g>
</svg>