<?xml version="1.0" encoding="UTF-8"?>
<svg id="Calque_1" data-name="Calque 1" xmlns="http://www.w3.org/2000/svg" xmlns:xlink="http://www.w3.org/1999/xlink" viewBox="0 0 1085.92 926.38">
  <defs>
    <style>
      .cls-1 {
        fill: #88b89d;
      }

      .cls-2 {
        fill: #a6cab6;
      }

      .cls-3 {
        fill: #8774b3;
      }

      .cls-4 {
        fill: #66532c;
      }

      .cls-5 {
        stroke-width: 2.16px;
      }

      .cls-5, .cls-6, .cls-7, .cls-8, .cls-9, .cls-10 {
        fill: none;
      }

      .cls-5, .cls-6, .cls-10 {
        stroke-miterlimit: 10;
      }

      .cls-5, .cls-8, .cls-9, .cls-10 {
        stroke-linecap: round;
      }

      .cls-5, .cls-8, .cls-10 {
        stroke: #010029;
      }

      .cls-11 {
        fill: #faabdc;
      }

      .cls-12 {
        fill: #999347;
      }

      .cls-13 {
        fill: #fff;
      }

      .cls-14 {
        mask: url(#mask);
      }

      .cls-15 {
        fill: #ed776a;
      }

      .cls-16 {
        fill: #ffaba1;
      }

      .cls-17 {
        fill: #010029;
      }

      .cls-6 {
        stroke: #fff;
      }

      .cls-6, .cls-8 {
        stroke-width: 1.41px;
      }

      .cls-18 {
        fill: #375a64;
      }

      .cls-8, .cls-9 {
        stroke-linejoin: round;
      }

      .cls-19 {
        fill: #755f36;
      }

      .cls-20 {
        fill: #1a2e35;
      }

      .cls-21 {
        fill: #ff99bc;
      }

      .cls-22 {
        clip-path: url(#clippath-1);
      }

      .cls-23 {
        fill: #7f6b29;
      }

      .cls-24 {
        fill: #718368;
      }

      .cls-25 {
        fill: #893d14;
      }

      .cls-26 {
        fill: #e18b76;
      }

      .cls-27 {
        fill: #00956a;
      }

      .cls-9 {
        stroke: #bfc7f8;
        stroke-width: 5.66px;
      }

      .cls-28 {
        fill: #fd76a5;
      }

      .cls-29 {
        fill: #a8a8a8;
      }

      .cls-30 {
        fill: #ececec;
      }

      .cls-31 {
        opacity: .3;
      }

      .cls-32 {
        fill: #dcdcdc;
      }

      .cls-33 {
        fill: #c8c8c8;
      }

      .cls-34 {
        fill: #755f36;
      }

      .cls-35 {
        fill: #080e11;
      }

      .cls-36 {
        fill: #fd7f6a;
      }

      .cls-37 {
        opacity: .64;
      }

      .cls-38 {
        fill: #b8dcce;
      }

      .cls-39 {
        opacity: .1;
      }

      .cls-40 {
        fill: #7c82ba;
      }

      .cls-41 {
        clip-path: url(#clippath-2);
      }

      .cls-42 {
        fill: #627559;
      }

      .cls-43 {
        fill: #66532c;
      }

      .cls-44 {
        clip-path: url(#clippath);
      }

      .cls-45 {
        fill: #bfc7f8;
      }

      .cls-10 {
        stroke-width: 2.12px;
      }

      .cls-46 {
        fill: #917831;
      }
    </style>
    <clipPath id="clippath">
      <polygon class="cls-7" points="906.06 464.46 891.72 455.37 833.84 520.68 830.61 451.13 852.39 417.34 838.05 408.25 829.04 417.48 824.75 325.33 793.2 325.33 790.36 386.46 765.23 360.71 750.88 369.8 788.42 428.02 783.03 543.98 770.25 530.89 755.91 539.97 781.38 579.48 777.42 664.56 840.53 664.56 835.95 566.14 906.06 464.46"/>
    </clipPath>
    <clipPath id="clippath-1">
      <polygon class="cls-7" points="231.94 494.82 218.41 486.25 198.76 506.38 194.5 414.76 216.72 380.31 203.19 371.74 192.99 382.2 192.03 361.61 162.27 361.61 157.35 467.45 135.89 445.47 122.37 454.03 155.58 505.54 147.39 681.53 206.91 681.53 200.5 543.58 231.94 494.82"/>
    </clipPath>
    <clipPath id="clippath-2">
      <polygon class="cls-7" points="548.7 352.39 532.46 342.1 514.05 360.97 509.5 263.22 536.82 220.85 520.58 210.57 507.67 223.8 506.48 198.12 470.75 198.12 466.5 289.59 451.71 274.44 435.48 284.73 464.62 329.93 459.99 429.44 433.4 402.19 417.16 412.47 457.84 475.58 452.89 582.17 524.34 582.17 516.01 403.09 548.7 352.39"/>
    </clipPath>
    <mask id="mask" x="904.12" y="270.19" width="51.81" height="102.24" maskUnits="userSpaceOnUse">
      <g id="mask0_370_2294" data-name="mask0 370 2294">
        <path class="cls-13" d="M946.92,356.79l-31.97-1.22c-1.37-.07-2.48-1.11-2.63-2.48l-6.13-60.63c-.17-1.66,1.2-3.06,2.83-3l31.98,1.22c1.37.07,2.48,1.11,2.63,2.48l6.13,60.63c.15,1.64-1.19,3.06-2.83,3Z"/>
      </g>
    </mask>
  </defs>
  <g class="cls-37">
    <g>
      <path class="cls-24" d="M719.59,212.73s-45.18-22.23-86.78,17.93c-41.6,40.16-12.19,86.06-12.19,86.06,0,0-49.77,21.14-45.18,66.9,5.74,57.17,74.59,84.42,144.15,62.19,0,0,25.1,31.56,71,31.56s74.53-24.38,77.79-30.84c0,0,37.68,31.56,78.56,15.78,40.88-15.78,33.71-54.51,33.71-54.51,0,0,53.07,15.78,70.28-29.4,17.21-45.18-6.45-91.08-27.25-100.41,0,0,7.17-46.7-25.1-71.4-32.27-24.7-86.06-6.77-86.06-6.77,0,0-21.83-83.66-102.36-79.12-80.53,4.54-90.57,92.03-90.57,92.03Z"/>
      <g>
        <path class="cls-42" d="M792.55,168.9c4.24,2.92,7.62,6.93,11.54,10.25,3.15,2.68,7.74-1.87,4.56-4.56-4.35-3.69-8.13-8.01-12.85-11.26-3.44-2.37-6.66,3.23-3.26,5.57h0Z"/>
        <path class="cls-42" d="M843.86,224.84c5.28-3.48,10.8-6.55,15.71-10.55,3.23-2.63-1.36-7.16-4.56-4.56-4.47,3.63-9.61,6.37-14.41,9.54-3.46,2.28-.23,7.87,3.26,5.57h0Z"/>
        <path class="cls-42" d="M777.33,223.48c.56,6.48-.61,12.89-.72,19.36-.07,4.16,6.39,4.16,6.45,0,.1-6.48,1.28-12.88.72-19.36-.36-4.11-6.81-4.15-6.45,0h0Z"/>
        <path class="cls-42" d="M702.96,251.7c7.42,1.43,14.95,2.23,22.23,4.3,4.01,1.14,5.71-5.09,1.72-6.22-7.29-2.07-14.81-2.88-22.23-4.3-4.07-.78-5.8,5.44-1.72,6.22h0Z"/>
        <path class="cls-42" d="M705.01,294.63c.79,4.5,1.95,8.9,2.04,13.49.08,4.16,6.54,4.16,6.45,0-.1-5.17-1.38-10.14-2.27-15.2-.72-4.09-6.94-2.35-6.22,1.72h0Z"/>
        <path class="cls-42" d="M643.05,292.97c5.61-2.8,11.22-5.53,17.16-7.56,3.91-1.34,2.23-7.58-1.72-6.22-6.46,2.22-12.6,5.16-18.7,8.21-3.72,1.86-.45,7.43,3.26,5.57h0Z"/>
        <path class="cls-42" d="M665.45,345.4c-.87,6.97-2.72,13.74-2.87,20.8-.09,4.16,6.37,4.16,6.45,0,.14-7.03,2-13.84,2.87-20.8.52-4.12-5.95-4.07-6.45,0h0Z"/>
        <path class="cls-42" d="M629.1,394.3c4.97,5.13,8.49,11.36,12.4,17.28,2.28,3.46,7.88.23,5.57-3.26-4.22-6.38-8.06-13.06-13.41-18.58-2.9-2.99-7.46,1.58-4.56,4.56h0Z"/>
        <path class="cls-42" d="M728.4,413.45c7.68-3.69,13.61-9.88,20.8-14.34,3.53-2.19.29-7.78-3.26-5.57-7.18,4.46-13.12,10.66-20.8,14.34-3.75,1.8-.48,7.36,3.26,5.57h0Z"/>
        <path class="cls-42" d="M782.13,301.9c8.82-1.67,16.97-5.62,25.82-7.17,4.09-.72,2.35-6.94-1.72-6.22-8.85,1.55-17,5.51-25.82,7.17-4.09.77-2.35,6.99,1.72,6.22h0Z"/>
        <path class="cls-42" d="M849.93,281.49c5.31,2.77,9.67,6.93,13.19,11.75,2.42,3.33,8.03.11,5.57-3.26-4.16-5.71-9.19-10.77-15.5-14.07-3.69-1.92-6.95,3.65-3.26,5.57h0Z"/>
        <path class="cls-42" d="M921.6,239.4c1.35,8.39,2.17,16.86,4.3,25.1,1.04,4.03,7.27,2.32,6.22-1.72-2.13-8.24-2.95-16.72-4.3-25.1-.66-4.1-6.88-2.35-6.22,1.72h0Z"/>
        <path class="cls-42" d="M972.24,285.08c6.39-3.27,12.39-7.24,18.65-10.76,3.63-2.04.37-7.62-3.26-5.57-6.26,3.52-12.25,7.49-18.65,10.76-3.71,1.9-.44,7.46,3.26,5.57h0Z"/>
        <path class="cls-42" d="M938.81,326.9c1.42,6.14,3.53,12.04,5.74,17.93,1.45,3.86,7.69,2.19,6.22-1.72-2.21-5.89-4.32-11.79-5.74-17.93-.94-4.05-7.16-2.34-6.22,1.72h0Z"/>
        <path class="cls-42" d="M997.28,348.52c7.13-2.52,13.39-6.6,19.42-11.08,3.3-2.45.09-8.06-3.26-5.57-5.54,4.12-11.32,8.11-17.88,10.43-3.9,1.38-2.22,7.62,1.72,6.22h0Z"/>
        <path class="cls-42" d="M863.03,375.88c7.4-.15,14.45-2.2,21.66-3.7,4.07-.85,2.35-7.07-1.72-6.22-6.63,1.38-13.12,3.33-19.94,3.47-4.16.09-4.16,6.54,0,6.45h0Z"/>
        <path class="cls-42" d="M898.53,404.93c-.05,6.02-.69,11.97-1.43,17.93-.51,4.12,5.95,4.07,6.45,0,.74-5.96,1.39-11.91,1.43-17.93.03-4.16-6.42-4.16-6.45,0h0Z"/>
        <path class="cls-42" d="M949.23,392.26c7.72-2.15,15.28-4.84,22.95-7.17,3.97-1.21,2.28-7.44-1.72-6.22-7.67,2.34-15.23,5.02-22.95,7.17-4,1.12-2.3,7.34,1.72,6.22h0Z"/>
      </g>
    </g>
    <g>
      <polygon class="cls-4" points="906.06 464.46 891.72 455.37 833.84 520.68 830.61 451.13 852.39 417.34 838.05 408.25 829.04 417.48 824.75 325.33 793.2 325.33 790.36 386.46 765.23 360.71 750.88 369.8 788.42 428.02 783.03 543.98 770.25 530.89 755.91 539.97 781.38 579.48 777.42 664.56 840.53 664.56 835.95 566.14 906.06 464.46"/>
      <g class="cls-44">
        <g>
          <path class="cls-34" d="M736.93,449.44c3.92,8.61,12.8,13.12,21.63,15.11,10.12,2.29,20.77,2.05,31.02.9s19.65-3.07,29.02-6.19c13.39-4.46,25.81-11.56,36.87-20.29s20.85-19.25,28.48-31.13c.91-1.41,1.78-2.84,2.62-4.3.98-1.69-1.64-3.22-2.62-1.53-6.89,11.87-15.98,22.4-26.39,31.33-10.39,8.91-22.25,16.33-35.03,21.29-5.33,2.06-10.81,3.61-16.37,4.92-4.29,1.01-8.63,1.81-13,2.42-.98.14-2.23.3-3.42.43-1.25.14-2.5.27-3.75.38-2.55.22-5.12.37-7.68.43s-5.14.04-7.71-.1-5.02-.37-7.26-.72c-2.37-.37-4.73-.87-7.03-1.54s-4.15-1.37-6.1-2.35c-.97-.48-1.91-1.02-2.81-1.6-.44-.29-.88-.59-1.31-.9-.12-.08-.23-.17-.34-.26.05.04.2.16-.03-.03s-.45-.36-.66-.54c-.79-.67-1.54-1.4-2.23-2.17-.19-.21-.37-.43-.55-.64-.07-.09-.43-.55-.29-.36-.32-.41-.62-.84-.9-1.28-.58-.89-1.09-1.83-1.53-2.8-.34-.74-1.42-.93-2.07-.54-.77.45-.88,1.33-.54,2.07h0Z"/>
          <path class="cls-34" d="M749.36,420.35c4.12,4.11,9.07,7.34,14.41,9.65s11.47,3.89,17.51,4.53,11.92.4,17.78-.66,11.14-2.86,16.15-5.63,9.19-6.29,12.53-10.75,5.49-9.82,6.26-15.35c1.09-7.82-.54-15.55-2.4-23.13-2.46-9.99-5.92-19.7-9.92-29.18-3.95-9.35-8.45-18.45-13.1-27.47s-9.49-17.99-14.09-27.06c-1.11-2.19-2.21-4.39-3.29-6.6-.36-.73-1.4-.93-2.07-.54-.75.44-.9,1.34-.54,2.07,4.4,8.99,9.1,17.82,13.74,26.68s9.23,17.74,13.39,26.84,7.84,18.32,10.72,27.85c1.47,4.87,2.72,9.8,3.72,14.79.73,3.67,1.24,6.76,1.22,10.56,0,1.47-.11,2.94-.29,4.4-.03.29,0,.04,0-.02-.01.09-.02.17-.04.26-.03.17-.05.34-.08.51-.06.38-.13.76-.2,1.13-.13.68-.29,1.35-.46,2.02-.34,1.32-.77,2.62-1.28,3.89-.04.09-.22.52-.08.19-.06.15-.13.29-.19.44-.14.31-.28.62-.43.92-.28.59-.58,1.17-.9,1.73-.65,1.16-1.37,2.28-2.16,3.35-.09.13-.19.25-.28.37-.04.06-.18.23.02-.03-.05.06-.1.12-.14.18-.21.26-.41.52-.63.77-.41.49-.84.97-1.28,1.44-.9.96-1.85,1.86-2.85,2.71-.24.2-.48.41-.73.6-.12.1-.25.2-.37.3-.06.05-.12.1-.19.15-.14.11.21-.16-.02.02-.54.4-1.08.8-1.64,1.19-2.23,1.53-4.61,2.84-7.09,3.93-.15.07-.3.13-.45.2-.08.03-.15.06-.23.1.05-.02.28-.12.02,0-.32.13-.65.27-.98.39-.64.25-1.28.49-1.93.71-1.33.46-2.67.86-4.03,1.22s-2.77.66-4.16.92c-.69.13-1.39.24-2.09.34-.07.01-.68.09-.3.04-.17.02-.34.04-.51.07-.36.04-.73.09-1.09.12-2.86.3-5.75.4-8.63.3-1.46-.05-2.91-.15-4.36-.3-.35-.04-.69-.08-1.04-.12-.17-.02-.35-.04-.52-.07-.23-.03.25.03.01,0-.11-.02-.22-.03-.32-.05-.73-.1-1.46-.22-2.19-.35-2.85-.51-5.66-1.23-8.4-2.17-.67-.23-1.33-.47-1.99-.72-.32-.12-.64-.25-.95-.38-.06-.03-.49-.2-.35-.14.18.07-.07-.03-.11-.05-.1-.04-.2-.08-.29-.13-1.3-.57-2.59-1.19-3.84-1.87s-2.46-1.4-3.63-2.18c-.59-.4-1.18-.8-1.75-1.23-.13-.1-.27-.2-.4-.3-.07-.06-.45-.34-.19-.15-.28-.22-.56-.44-.83-.67-1.05-.86-2.06-1.77-3.02-2.73-1.38-1.38-3.53.76-2.14,2.14h0Z"/>
          <path class="cls-34" d="M733.17,380.42c3.25,1.54,6.44,3.2,9.66,4.79,4.72,2.33,9.47,4.58,14.3,6.67,5.43,2.36,10.93,4.55,16.57,6.34,5.23,1.67,10.6,3.02,16.07,3.53,4.46.42,9.15.22,13.27-1.68,3.91-1.8,6.55-5.32,7.65-9.43,1.56-5.81.67-12.08-1.36-17.65-2.54-6.99-6.62-13.33-11.05-19.26-4.85-6.5-10.22-12.59-15.7-18.57-4.9-5.36-9.94-10.6-14.67-16.12-.96-1.12-1.9-2.25-2.81-3.4-.51-.64-1.61-.53-2.14,0-.63.63-.51,1.5,0,2.14,4.17,5.26,8.81,10.13,13.37,15.05,5.35,5.78,10.68,11.58,15.64,17.69,4.64,5.72,9.12,11.87,12.42,18.58.79,1.61,1.32,2.81,1.91,4.41.55,1.49,1.03,3.02,1.39,4.57.18.77.33,1.54.46,2.32.03.18.06.36.08.54-.04-.32.02.2.03.27.04.38.08.76.1,1.15.1,1.4.08,2.81-.04,4.2-.03.3-.06.6-.09.91-.05.4.04-.24-.02.15-.02.16-.05.32-.08.48-.1.58-.22,1.15-.37,1.72-.14.52-.3,1.02-.49,1.52-.04.12-.09.23-.14.35-.13.35.13-.27-.03.06-.11.23-.21.46-.33.69-.22.43-.46.84-.73,1.24-.12.19-.28.36-.39.55.01-.02.2-.24-.02.02-.08.1-.16.19-.24.29-.3.35-.63.69-.98,1-.16.15-.33.29-.5.43-.1.08-.4.26-.01.02-.1.06-.2.15-.3.22-.76.54-1.57.9-2.38,1.34.02-.01.29-.11-.03.01-.11.04-.21.08-.32.12-.23.09-.46.17-.69.24-.48.15-.96.29-1.45.4s-.98.21-1.48.29c-.12.02-.25.03-.37.06-.2.04.33-.03.12-.02-.06,0-.13.02-.19.02-.27.03-.54.06-.81.08-1.1.1-2.2.13-3.3.1-1.19-.02-2.38-.11-3.57-.23-.29-.03-.59-.07-.88-.1-.05,0-.53-.07-.3-.04.2.03-.27-.04-.36-.05-.63-.09-1.25-.19-1.87-.3-2.65-.47-5.27-1.11-7.85-1.84-5.51-1.56-10.9-3.57-16.19-5.76-.32-.13-.64-.27-.95-.4-.06-.02-.27-.11,0,0-.08-.03-.16-.07-.24-.1-.18-.08-.35-.15-.53-.23-.64-.28-1.29-.55-1.93-.83-1.28-.56-2.55-1.13-3.82-1.71-2.36-1.08-4.7-2.18-7.03-3.31-3.61-1.75-7.18-3.56-10.77-5.33-.59-.29-1.17-.58-1.76-.86-.74-.35-1.63-.21-2.07.54-.39.66-.2,1.72.54,2.07h0Z"/>
          <path class="cls-34" d="M848.64,462.43c-7.1,5.06-14.83,9.15-22.62,13.03s-16.18,7.74-24.13,11.9c-6.45,3.37-12.7,7.05-18.89,10.89-6.64,4.12-13.27,8.27-20.25,11.81-3.32,1.69-6.54,3.15-10.01,4.36-1.6.56-3.23,1.05-4.88,1.44-.81.19-1.63.36-2.45.5-.18.03-.35.06-.53.08-.1.02-.2.03-.3.04-.25.04.21-.03-.05,0-.39.05-.79.09-1.18.13-.75.06-1.5.1-2.25.1-1.95,0-1.95,3.04,0,3.03,7.02-.02,13.85-2.65,20.12-5.59,7.14-3.35,13.89-7.47,20.58-11.61,3.15-1.95,6.28-3.92,9.45-5.82,2.97-1.78,6-3.45,9.05-5.11,7.86-4.28,15.99-8.03,24.02-11.97s15.91-7.94,23.29-12.86c.86-.57,1.7-1.16,2.54-1.75.67-.47.98-1.32.54-2.07-.38-.66-1.4-1.02-2.07-.54h0Z"/>
          <path class="cls-34" d="M756.91,655.54c-.5-1.36-.91-2.75-1.23-4.16-.34-1.52-.53-2.76-.66-4.17-.28-3.02-.19-6.07.16-9.08.16-1.4.44-3.02.76-4.55s.74-3.19,1.19-4.77c.94-3.25,2.11-6.46,3.45-9.56,2.91-6.72,6.56-13.11,10.62-19.19s8.66-11.97,13.56-17.49c4.58-5.15,9.46-10.05,14.68-14.54,4.28-3.68,8.64-7.04,13.63-9.87,7.25-4.11,15.41-6.14,23.74-6s16.4,2.3,24.06,5.36c8.12,3.24,15.78,7.56,23.15,12.24,7.17,4.56,14.07,9.52,20.93,14.54,1.55,1.13,3.09,2.26,4.64,3.39.66.48,1.69.11,2.07-.54.45-.77.12-1.59-.54-2.07-6.81-4.97-13.59-9.99-20.6-14.68-7.42-4.97-15.1-9.62-23.21-13.37s-16.13-6.44-24.76-7.49-16.99-.12-24.84,3.05c-6.11,2.47-11.55,6.15-16.69,10.23-5.3,4.21-10.24,8.87-14.88,13.79-5.2,5.5-10.04,11.35-14.47,17.5-4.38,6.09-8.36,12.49-11.67,19.22-3.1,6.32-5.67,12.97-7.07,19.88-1.26,6.24-1.57,12.73-.17,18.98.32,1.41.73,2.8,1.23,4.16.28.77,1.03,1.29,1.86,1.06.74-.2,1.34-1.09,1.06-1.86h0Z"/>
          <path class="cls-34" d="M877.42,590.09c-4.9-3.43-10.2-6.34-15.88-8.29-4.74-1.63-9.78-2.52-14.8-2.42-4.63.09-9.23,1-13.55,2.66s-8.55,4.05-12.33,6.88c-4.07,3.05-7.77,6.54-11.14,10.33-3.59,4.03-6.85,8.36-9.84,12.85s-5.9,9.43-8.5,14.35c-2.63,4.97-5.05,10.05-7.3,15.21s-4.3,10.29-6.23,15.52c-1.75,4.76-3.39,9.57-4.9,14.41-.35,1.1-.69,2.21-1.02,3.32-.56,1.87,2.36,2.67,2.92.81,1.41-4.69,2.93-9.34,4.56-13.95,1.77-5.02,3.67-9.99,5.71-14.9.48-1.16.96-2.28,1.54-3.61.55-1.26,1.11-2.52,1.68-3.77,1.16-2.54,2.36-5.06,3.61-7.55,2.48-4.94,5.15-9.78,8.07-14.47,1.43-2.3,2.93-4.56,4.49-6.78.77-1.1,1.57-2.18,2.38-3.25.19-.25.37-.49.56-.74-.14.19.07-.09.11-.14.12-.15.23-.3.35-.45.41-.52.82-1.03,1.24-1.54,3.18-3.89,6.64-7.55,10.47-10.81.45-.38.9-.75,1.35-1.12.22-.18.44-.35.66-.52.07-.05.14-.11.2-.16-.02.01-.19.14-.05.04s.27-.21.41-.31c.93-.7,1.88-1.38,2.85-2.02,1.91-1.27,3.9-2.42,5.97-3.42.51-.25,1.03-.48,1.55-.71.08-.03.47-.2.14-.06.11-.05.22-.09.34-.14.26-.11.52-.21.79-.31,1.05-.41,2.12-.77,3.2-1.09s2.13-.58,3.22-.81c.55-.11,1.11-.21,1.67-.3.26-.04.52-.08.78-.12-.31.04.01,0,.14-.02.16-.02.32-.04.48-.06,2.28-.25,4.58-.29,6.87-.13.57.04,1.14.09,1.72.16.15.02.3.03.45.05.12.01.38.05.11.01.32.05.64.09.97.15,1.21.2,2.4.45,3.59.74,1.26.32,2.5.69,3.73,1.11.61.21,1.22.43,1.82.67.69.27,1.19.47,1.68.69,2.68,1.17,5.27,2.55,7.76,4.08,1.32.81,2.61,1.67,3.88,2.55.67.47,1.68.12,2.07-.54.44-.76.13-1.6-.54-2.07h0Z"/>
          <path class="cls-34" d="M863.8,616.62c-5.64-3.12-12.07-4.54-18.4-2.93-5.97,1.52-11.09,5.36-15.35,9.68-4.93,5.02-8.99,10.87-12.68,16.84s-7.24,12.55-10.67,18.93c-2.91,5.42-5.77,10.92-9.19,16.04-.34.51-.69,1.01-1.04,1.51-.48.67-.12,1.69.54,2.07.76.44,1.6.12,2.07-.54,3.38-4.74,6.12-9.93,8.89-15.05,3.35-6.21,6.65-12.46,10.26-18.53,1.84-3.09,3.76-6.14,5.81-9.1.49-.71,1-1.42,1.51-2.12.24-.33.48-.65.73-.98.12-.16.24-.32.37-.48.07-.09.14-.18.2-.27.27-.35-.18.23.09-.12,1.02-1.31,2.08-2.6,3.18-3.84s2.19-2.38,3.36-3.49c.56-.53,1.13-1.05,1.71-1.55.29-.25.58-.49.87-.73.12-.1.25-.2.37-.3.09-.07.19-.15.28-.22.25-.2-.21.16.07-.05,1.17-.86,2.35-1.69,3.61-2.41.61-.35,1.23-.67,1.86-.97.3-.14.6-.27.9-.4-.39.17.16-.06.24-.1.17-.07.34-.13.51-.19,1.29-.48,2.63-.85,3.99-1.08.16-.03.32-.05.48-.08.27-.05-.04,0-.08,0,.09-.01.18-.02.27-.03.36-.04.72-.07,1.07-.1.71-.05,1.42-.05,2.13-.03.33.01.67.03,1,.06.17.01.34.03.5.05.09.01.19.02.28.03.32.04-.3-.05.05,0,.73.12,1.45.25,2.17.42s1.48.4,2.21.66c.36.12.71.26,1.06.4.07.03.66.27.35.14.2.09.4.17.6.26.78.36,1.55.75,2.31,1.16,1.71.94,3.24-1.67,1.53-2.62h0Z"/>
          <path class="cls-34" d="M739.63,559c7.28,3.33,15.41,2.31,22.75-.32,8.12-2.91,15.57-7.46,22.73-12.2,3.38-2.24,6.7-4.55,10.05-6.82s6.67-4.4,9.95-6.68c7.48-5.19,14.95-10.47,21.67-16.63,6.76-6.21,12.6-13.36,17.15-21.34.61-1.07,1.2-2.16,1.77-3.25.38-.73.19-1.65-.54-2.07-.68-.4-1.69-.19-2.07.54-4.21,8.11-9.57,15.38-16.1,21.77s-13.27,11.29-20.44,16.32c-6.58,4.61-13.29,9.03-19.95,13.54-6.98,4.73-14.13,9.36-21.9,12.69-.7.3-1.77.72-2.64,1.04-.93.34-1.88.66-2.83.95-1.83.56-3.7,1-5.6,1.29-.34.05-.59.08-1.13.14-.46.05-.91.08-1.37.11-.9.05-1.8.05-2.7.01-.44-.02-.89-.06-1.33-.1-.2-.02-.39-.04-.59-.07.26.04.01,0-.04,0-.15-.02-.29-.05-.44-.07-.87-.15-1.73-.35-2.58-.61-.43-.13-.85-.27-1.26-.43-.19-.07-.37-.14-.56-.22-.28-.12-.11-.05-.05-.02-.14-.06-.27-.12-.41-.18-.74-.34-1.63-.21-2.07.54-.38.65-.2,1.73.54,2.07h0Z"/>
          <path class="cls-34" d="M850.1,487c-2.21,7.65-1.18,16.06,1.34,23.5,2.65,7.79,7.1,15.27,13.35,20.7,3.34,2.9,7.19,5.22,11.47,6.43,1.88.53,2.68-2.39.81-2.92s-3.11-1.04-4.77-1.93c-.83-.45-1.64-.93-2.42-1.46-.35-.24-.7-.48-1.05-.73-.18-.13-.37-.27-.55-.41.17.13-.03-.02-.05-.04-.12-.09-.24-.19-.36-.29-3.02-2.44-5.57-5.35-7.66-8.42-2.25-3.31-4.09-6.92-5.41-10.51-.69-1.87-1.27-3.79-1.73-5.73-.22-.93-.41-1.87-.57-2.81-.08-.47-.15-.93-.22-1.4.03.2-.04-.35-.06-.45-.03-.28-.06-.57-.09-.85-.2-2.06-.25-4.14-.11-6.2.04-.51.08-1.02.14-1.53.01-.12.03-.24.04-.36-.04.27.02-.1.03-.17.04-.24.07-.47.12-.71.17-.98.39-1.94.67-2.89.54-1.88-2.38-2.68-2.92-.81h0Z"/>
          <path class="cls-34" d="M872.33,461.9c-.89,2.9-.94,6.06-.74,9.06.25,3.82.94,7.61,1.89,11.31,1.98,7.65,5.1,15.38,10.06,21.61,2.24,2.81,5.04,5.33,8.49,6.5.77.26,1.66-.3,1.86-1.06.23-.83-.28-1.6-1.06-1.86-.16-.05-.32-.11-.48-.17-.4-.15.17.09-.16-.07s-.63-.3-.94-.47c-.63-.35-1.21-.75-1.79-1.17-.22-.16,0,0,.04.03-.07-.06-.15-.12-.22-.18-.14-.11-.27-.22-.4-.33-.3-.26-.59-.52-.88-.8-.58-.56-1.13-1.15-1.66-1.76-.27-.31-.52-.63-.78-.95-.03-.04-.18-.23,0,0-.05-.07-.11-.14-.16-.21-.16-.21-.32-.43-.48-.65-.51-.71-.99-1.44-1.46-2.18-1-1.6-1.9-3.27-2.71-4.98-.19-.41-.38-.82-.57-1.23-.09-.21-.19-.41-.28-.62-.05-.12-.1-.23-.15-.35,0,0-.19-.44-.09-.2-.38-.89-.73-1.79-1.07-2.7-.69-1.87-1.31-3.77-1.84-5.69s-.96-3.71-1.32-5.59c-.17-.91-.33-1.83-.46-2.75-.01-.1-.08-.59-.04-.29-.03-.23-.06-.45-.09-.68-.05-.45-.1-.89-.14-1.34-.16-1.77-.23-3.55-.14-5.32.02-.41.05-.81.09-1.22.02-.19.05-.39.07-.58.02-.23-.06.39,0,.04.02-.1.03-.2.05-.3.11-.69.27-1.38.47-2.05.58-1.87-2.35-2.67-2.92-.81h0Z"/>
        </g>
      </g>
    </g>
    <g>
      <path class="cls-42" d="M858.67,334.65s1.49-59.53,69.62-65.26c68.13-5.74,79.61,36.58,83.91,61.68,0,0,36.58-5.02,57.37,15.78,20.8,20.8,20.08,51.64,7.17,64.55,0,0,17.93,34.42-6.45,65.26-24.38,30.84-86.06,20.08-101.84,4.3,0,0-25.5,24.49-72.44,15.41-46.93-9.07-51.64-34.06-51.64-34.06,0,0-42.21-13.68-48.76-55.94-6.55-42.26,36.45-67.41,63.04-71.72Z"/>
      <g>
        <path class="cls-24" d="M893.02,316.13c4.39,4.35,9.03,8.46,12.4,13.69,2.25,3.48,7.84.25,5.57-3.26-3.69-5.71-8.62-10.24-13.41-15-2.96-2.93-7.52,1.63-4.56,4.56h0Z"/>
        <path class="cls-24" d="M934.75,314.21c6.91.56,13.51-.77,20.22-2.27,4.06-.91,2.34-7.13-1.72-6.22-6.18,1.38-12.14,2.55-18.51,2.04-4.15-.34-4.12,6.12,0,6.45h0Z"/>
        <path class="cls-24" d="M929.81,364.96c4.15,6.39,7.12,13.41,10.76,20.08,1.99,3.65,7.57.4,5.57-3.26-3.64-6.67-6.61-13.69-10.76-20.08-2.26-3.48-7.85-.25-5.57,3.26h0Z"/>
        <path class="cls-24" d="M985.67,367.28c7.73-.77,15.46-1.52,23.09-2.98,4.09-.78,2.35-7-1.72-6.22-7.07,1.36-14.22,2.04-21.37,2.75-4.1.41-4.14,6.87,0,6.45h0Z"/>
        <path class="cls-24" d="M1061.56,369.66c-4.78,5-7.68,11.32-11.26,17.15-2.19,3.56,3.4,6.8,5.57,3.26,3.28-5.34,5.89-11.27,10.25-15.84,2.88-3.01-1.68-7.58-4.56-4.56h0Z"/>
        <path class="cls-24" d="M1008.98,408.52c.69,5.5,1.46,10.99,2.15,16.5.51,4.07,6.97,4.12,6.45,0-.69-5.5-1.46-10.99-2.15-16.5-.51-4.07-6.97-4.12-6.45,0h0Z"/>
        <path class="cls-24" d="M1001.45,470.55c6.7-.05,13.38-.67,20.08-.72,4.16-.03,4.16-6.48,0-6.45-6.7.05-13.38.67-20.08.72-4.16.03-4.16,6.49,0,6.45h0Z"/>
        <path class="cls-24" d="M1045.06,439.49c3.69,2.99,7.07,6.33,10.76,9.32,1.37,1.11,3.22,1.34,4.56,0,1.15-1.15,1.37-3.45,0-4.56-3.69-2.99-7.07-6.33-10.76-9.32-1.37-1.11-3.22-1.34-4.56,0-1.15,1.15-1.37,3.45,0,4.56h0Z"/>
        <path class="cls-24" d="M959.72,439.94c-4.51,3.86-8.04,8.69-12.19,12.91-2.92,2.97,1.64,7.53,4.56,4.56,4.15-4.22,7.68-9.05,12.19-12.91,3.17-2.71-1.42-7.26-4.56-4.56h0Z"/>
        <path class="cls-24" d="M906.65,407.93c4.62,3.71,9.16,7.54,14.28,10.55,3.6,2.11,6.85-3.47,3.26-5.57-4.66-2.73-8.78-6.17-12.97-9.54-3.21-2.58-7.81,1.96-4.56,4.56h0Z"/>
        <path class="cls-24" d="M876.74,375.33c-3.74,5.04-9.09,8.9-14.62,11.75-3.7,1.91-.44,7.48,3.26,5.57,6.57-3.39,12.52-8.12,16.94-14.07,2.48-3.35-3.12-6.56-5.57-3.26h0Z"/>
        <path class="cls-24" d="M826.21,384.27c2.1,7.24,3.37,14.54,3.47,22.09.05,4.16,6.51,4.16,6.45,0-.1-8.1-1.44-16.04-3.7-23.81-1.16-3.99-7.39-2.29-6.22,1.72h0Z"/>
        <path class="cls-24" d="M855.86,445.45c7.62-.1,14.72-1.74,21.71-4.74,3.81-1.64.52-7.2-3.26-5.57-5.9,2.54-12.04,3.78-18.45,3.86-4.16.06-4.16,6.51,0,6.45h0Z"/>
        <path class="cls-24" d="M904.99,451.55v17.21c0,4.16,6.45,4.16,6.45,0v-17.21c0-4.16-6.45-4.16-6.45,0h0Z"/>
      </g>
    </g>
  </g>
  <g class="cls-37">
    <path class="cls-1" d="M8.77,364.3s-24.35-56.81,8.12-113.63c32.47-56.81,98.07-77.11,148.8-66.96,0,0,45.32-29.37,98.75-2.51,53.43,26.86,52.08,73.53,52.08,73.53,0,0,39.91,22.32,47.35,73.05,7.44,50.73-20.29,85.56-20.29,85.56,0,0-6.09,51.74-41.93,82.18-35.85,30.44-98.75,18.94-98.75,18.94,0,0-36.52,28.41-98.75-5.41,0,0-43.96,5.41-81.16-41.93-37.2-47.35-14.2-102.81-14.2-102.81Z"/>
    <g>
      <path class="cls-12" d="M78.28,233.21c3.48,3.56,6.38,7.61,9.47,11.5,2.44,3.07,6.72-1.26,4.3-4.3-3.09-3.89-5.99-7.94-9.47-11.5-2.75-2.81-7.05,1.5-4.3,4.3h0Z"/>
      <path class="cls-12" d="M105.64,295.91c6.67-3.82,12.44-8.96,18.2-14,2.96-2.59-1.36-6.88-4.3-4.3-5.38,4.71-10.74,9.48-16.97,13.05-3.4,1.95-.34,7.21,3.07,5.26h0Z"/>
      <path class="cls-12" d="M152,235.24c4.94,4.27,9.66,8.93,15.5,11.97,3.47,1.82,6.55-3.44,3.07-5.26-5.39-2.82-9.7-7.08-14.26-11.02-2.95-2.55-7.28,1.73-4.3,4.3h0Z"/>
      <path class="cls-12" d="M199.59,219.01c5.29-5.15,11.62-9.06,16.91-14.2,2.82-2.74-1.49-7.04-4.3-4.3-5.29,5.15-11.62,9.06-16.91,14.2-2.82,2.74,1.49,7.04,4.3,4.3h0Z"/>
      <path class="cls-12" d="M208.76,296.59c5.18,3.38,8.64,8.69,12.91,13.05,2.75,2.81,7.05-1.5,4.3-4.3-4.68-4.77-8.46-10.29-14.14-14-3.3-2.15-6.34,3.12-3.07,5.26h0Z"/>
      <path class="cls-12" d="M151.9,323.18c1.22,5.5.61,11.19.57,16.78-.03,3.93,6.06,3.92,6.09,0,.04-6.17.56-12.32-.79-18.39-.85-3.83-6.72-2.21-5.87,1.62h0Z"/>
      <path class="cls-12" d="M241.54,256.99c6.2-1.41,12.3-3.21,18.26-5.41,3.65-1.35,2.07-7.23-1.62-5.87-5.97,2.2-12.06,4-18.26,5.41-3.83.87-2.2,6.74,1.62,5.87h0Z"/>
      <path class="cls-12" d="M303.4,284.62c2.68,6.85,4.66,13.93,6.76,20.97,1.12,3.75,6.99,2.15,5.87-1.62-2.1-7.04-4.09-14.12-6.76-20.97-1.41-3.61-7.3-2.04-5.87,1.62h0Z"/>
      <path class="cls-12" d="M266.2,324.94c-2.92,7.02-7.07,13.47-10.51,20.24-1.78,3.49,3.48,6.57,5.26,3.07,3.69-7.25,8-14.16,11.13-21.69,1.51-3.62-4.39-5.19-5.87-1.62h0Z"/>
      <path class="cls-12" d="M275.09,403.76c6.93,1.47,13.59,3.84,20.29,6.09,3.73,1.25,5.32-4.63,1.62-5.87-6.7-2.25-13.36-4.62-20.29-6.09-3.83-.81-5.46,5.06-1.62,5.87h0Z"/>
      <path class="cls-12" d="M313.28,366.93c5.44-3.49,10.12-8,15.56-11.5,3.29-2.11.24-7.39-3.07-5.26-5.44,3.49-10.12,8-15.56,11.5-3.29,2.11-.24,7.39,3.07,5.26h0Z"/>
      <path class="cls-12" d="M240.5,422.34c-.74,4.83-2.04,9.52-3.38,14.2-1.08,3.78,4.79,5.39,5.87,1.62,1.34-4.69,2.64-9.38,3.38-14.2.59-3.84-5.28-5.49-5.87-1.62h0Z"/>
      <path class="cls-12" d="M268.23,453.71c2.26,6.48,5.49,12.49,9.1,18.31,2.06,3.33,7.33.27,5.26-3.07-3.33-5.37-6.4-10.88-8.49-16.86-1.28-3.68-7.16-2.1-5.87,1.62h0Z"/>
      <path class="cls-12" d="M129.01,383.79c-5.14,5.9-10.09,12.01-16.23,16.91-3.07,2.45,1.27,6.73,4.3,4.3,6.15-4.9,11.09-11.01,16.23-16.91,2.57-2.95-1.72-7.27-4.3-4.3h0Z"/>
      <path class="cls-12" d="M71.77,360.47c5.49-1.76,11.07-2.63,16.78-3.27,3.86-.43,3.9-6.53,0-6.09-6.24.7-12.39,1.57-18.39,3.49-3.72,1.19-2.13,7.07,1.62,5.87h0Z"/>
      <path class="cls-12" d="M34.78,291.25c0,5.2-.07,10.33-1.24,15.42-.88,3.82,4.99,5.44,5.87,1.62,1.3-5.62,1.46-11.3,1.46-17.04,0-3.93-6.09-3.93-6.09,0h0Z"/>
      <path class="cls-12" d="M28.69,399.47c-.05,6.12-.68,12.19-1.35,18.26-.43,3.9,5.66,3.86,6.09,0,.67-6.08,1.3-12.14,1.35-18.26.03-3.93-6.05-3.92-6.09,0h0Z"/>
      <path class="cls-12" d="M69.69,428.06c3.57,5.86,6.23,12.19,10.62,17.53,2.5,3.03,6.78-1.3,4.3-4.3-4.02-4.89-6.39-10.92-9.67-16.29-2.04-3.34-7.31-.29-5.26,3.07h0Z"/>
      <path class="cls-12" d="M106.13,485.71c7.51-.89,14.58-3.33,21.78-5.52,3.74-1.14,2.15-7.02-1.62-5.87-6.62,2.01-13.25,4.48-20.16,5.3-3.85.46-3.89,6.55,0,6.09h0Z"/>
    </g>
    <g>
      <polygon class="cls-23" points="231.94 494.82 218.41 486.25 198.76 506.38 194.5 414.76 216.72 380.31 203.19 371.74 192.99 382.2 192.03 361.61 162.27 361.61 157.35 467.45 135.89 445.47 122.37 454.03 155.58 505.54 147.39 681.53 206.91 681.53 200.5 543.58 231.94 494.82"/>
      <g class="cls-22">
        <g>
          <path class="cls-46" d="M177.8,349.13c1.41,3.39,2.31,6.99,3.04,10.59.92,4.55,1.45,8.74,1.84,13.35.83,9.76.84,19.67-.34,29.41-.24,2-.59,4.25-1.02,6.42-.4,1.98-.87,3.95-1.46,5.88-.28.9-.58,1.8-.91,2.68-.08.21-.16.41-.24.62-.03.07-.26.63-.13.31-.18.42-.37.84-.57,1.25-.93,1.92-2.16,3.88-3.42,5.47-.74.92-1.53,1.8-2.38,2.62-.41.4-.83.78-1.27,1.15s-.85.7-1.21.97c-.91.67-1.86,1.28-2.84,1.83-.43.24-.87.47-1.32.69-.27.13-.53.26-.8.38-.09.04-.18.08-.27.12-.05.02-.52.22-.34.15-2.02.84-4.14,1.46-6.28,1.9-2.29.47-4.22.69-6.61.82-9.29.52-18.54-1.04-27.73-2.15-1.07-.13-2.14-.25-3.21-.36-.77-.08-1.43.71-1.43,1.43,0,.84.66,1.35,1.43,1.43,9.36.97,18.68,2.71,28.13,2.6,9.33-.11,18.88-2.26,25.77-8.94,3.25-3.15,5.73-7.04,7.36-11.25,1.49-3.82,2.38-7.86,3.03-11.9,1.58-9.86,1.79-19.95,1.18-29.9-.3-4.84-.81-9.67-1.61-14.45-.66-3.93-1.5-7.85-2.79-11.62-.26-.76-.54-1.51-.85-2.25s-.95-1.22-1.76-1c-.67.18-1.3,1.04-1,1.76h0Z"/>
          <path class="cls-46" d="M214.47,417.69c-3.43,4.52-8.44,7.66-13.12,10.73-5.05,3.31-9.99,6.65-14.12,11.09-8.93,9.61-14.96,21.37-20.14,33.31-2.49,5.73-4.77,11.54-7.3,17.25s-5.24,11.35-7.98,16.96c-5.8,11.92-11.7,23.81-16.66,36.12s-8.62,23.91-9.85,36.53c-.14,1.48-.25,2.95-.31,4.44-.08,1.84,2.78,1.84,2.86,0,.53-12.4,4.05-24.5,8.43-36.04,4.67-12.32,10.48-24.17,16.25-36.01,2.76-5.66,5.52-11.32,8.14-17.04s4.84-11.24,7.22-16.88c4.98-11.79,10.44-23.66,18.69-33.57,1.99-2.39,4.1-4.71,6.46-6.74,2.19-1.88,4.57-3.52,6.97-5.12,4.9-3.26,10.07-6.32,14.26-10.51.96-.96,1.84-2,2.67-3.08.47-.62.1-1.6-.51-1.95-.73-.43-1.49-.1-1.95.51h0Z"/>
          <path class="cls-46" d="M211.6,457.08c-5.57,2.48-10.43,6.41-14.69,10.72-5.01,5.06-9.34,10.81-13.18,16.8-7.79,12.17-13.95,25.76-17.42,39.81-1.69,6.86-2.7,13.91-1.88,20.96,1.03,8.83,4.23,17.14,7.53,25.33,1.64,4.08,3.31,8.15,4.76,12.3,1.57,4.49,2.74,9.11,3.91,13.72,2.49,9.86,4.67,19.79,7.2,29.64s5.43,19.2,8.72,28.62c3.06,8.78,6.6,17.45,11.12,25.59,1.08,1.95,2.22,3.85,3.43,5.72.99,1.54,3.47.11,2.47-1.44-4.92-7.65-8.75-15.95-11.99-24.43-3.41-8.93-6.39-18.1-8.97-27.31-2.71-9.66-4.92-19.45-7.26-29.21-2.19-9.14-4.43-18.24-7.84-27.01-3.17-8.14-6.81-16.14-8.91-24.65-1.83-7.38-1.98-14.74-.58-22.19,2.58-13.72,8.19-26.99,15.16-39.03,3.57-6.15,7.59-12.07,12.27-17.44,4.05-4.65,8.62-9,13.95-12.15,1.18-.7,2.4-1.33,3.65-1.88,1.68-.75.22-3.21-1.44-2.47h0Z"/>
          <path class="cls-46" d="M214.31,478.73c-9.28,6.2-17.96,13.81-23.41,23.7-4.81,8.73-6.6,18.62-6.47,28.51.07,5.66.71,11.3,1.6,16.88.49,3.08,1.07,6.15,1.7,9.21.81,3.9,1.48,7.81,2.37,11.69,3.7,16.14,9.13,31.83,14.71,47.4,4.85,13.51,7.35,27.97,13.96,40.81.76,1.48,1.59,2.93,2.47,4.34l-.2-.72v.68c0,1.84,2.86,1.84,2.86,0,0-.56.01-1.01-.27-1.52-.43-.77-.92-1.5-1.35-2.27-.85-1.5-1.62-3.05-2.35-4.61-1.47-3.19-2.69-6.48-3.81-9.81-2.3-6.87-4.11-13.88-6.27-20.79-2.33-7.47-5.15-14.78-7.66-22.19-2.63-7.77-5.11-15.61-7.23-23.54s-3.53-15.23-5.03-22.92c-1.12-5.74-2.02-11.53-2.43-17.37-.68-9.67.04-19.63,4-28.59,4.31-9.74,11.87-17.5,20.38-23.73,1.27-.93,2.56-1.83,3.87-2.7,1.52-1.02.09-3.49-1.44-2.47h0Z"/>
          <path class="cls-46" d="M224.16,480.3c-5.52,5.56-8.59,13.19-10,20.79-1.51,8.11-1.38,16.59.49,24.63.96,4.1,2.41,8.14,4.55,11.77.93,1.58,3.4.15,2.47-1.44-3.65-6.21-5.26-13.69-5.61-20.89-.38-7.79.64-15.75,3.66-22.92,1.54-3.66,3.69-7.14,6.46-9.93,1.3-1.31-.72-3.33-2.02-2.02h0Z"/>
          <path class="cls-46" d="M196.69,369.04c.03,9.37,3.71,18.21,7.33,26.69.97,2.27,1.95,4.54,2.87,6.83.29.72.95,1.22,1.76,1,.68-.19,1.29-1.04,1-1.76-3.35-8.35-7.49-16.49-9.31-25.36-.5-2.44-.78-4.91-.79-7.4,0-1.84-2.86-1.84-2.86,0h0Z"/>
          <path class="cls-46" d="M129.51,490.13c5.5-1.97,9.47-6.81,12.43-11.64,3.35-5.46,5.77-11.58,7.37-17.78.77-3,1.35-6.07,1.54-9.16.05-.77-.69-1.43-1.43-1.43-.81,0-1.38.66-1.43,1.43-.03.57-.08,1.14-.15,1.7-.02.15-.03.3-.05.45-.01.08-.06.47-.02.2-.05.33-.1.66-.15,1-.21,1.33-.48,2.64-.79,3.95-.69,2.92-1.6,5.8-2.67,8.6-2.06,5.38-4.97,11.03-8.88,15.24-.52.56-1.06,1.1-1.63,1.61-.27.25-.55.49-.84.72-.32.26-.28.23-.68.52-.55.39-1.12.76-1.72,1.08-.3.16-.6.31-.91.46-.06.03-.11.05-.17.08-.37.16.15-.06-.06.03-.17.07-.35.14-.52.2-.73.26-1.21.97-1,1.76.19.7,1.03,1.26,1.76,1h0Z"/>
          <path class="cls-46" d="M138.57,444.41c-3.51,8.75-7.73,17.35-12.9,25.24-1.34,2.04-2.76,4.04-4.32,5.92-.49.59-.58,1.44,0,2.02.51.51,1.53.6,2.02,0,3.03-3.64,5.61-7.64,7.98-11.74,2.5-4.33,4.76-8.8,6.83-13.35,1.1-2.42,2.15-4.87,3.14-7.33.29-.72-.31-1.57-1-1.76-.81-.22-1.47.28-1.76,1h0Z"/>
          <path class="cls-46" d="M144.66,568.94c2.14,9.44,4.99,18.7,8.08,27.87s6.47,18.4,9.68,27.62c1.36,3.92,2.63,7.88,4.12,11.75,1.34,3.48,2.78,6.91,4.22,10.35,3.12,7.42,6.29,14.83,8.87,22.46,2.3,6.8,4.31,13.87,4.29,21,0,.79-.03,1.58-.09,2.36s.7,1.43,1.43,1.43c.82,0,1.37-.66,1.43-1.43.53-7.1-1.21-14.3-3.3-21.03-2.4-7.71-5.52-15.18-8.65-22.62-1.49-3.55-3-7.1-4.43-10.68s-2.69-7.2-3.93-10.84c-3.16-9.23-6.53-18.39-9.7-27.62-3.16-9.19-6.13-18.45-8.45-27.89-.28-1.16-.56-2.31-.82-3.48-.17-.75-1.04-1.2-1.76-1-.77.21-1.17,1-1,1.76h0Z"/>
          <path class="cls-46" d="M140.75,617.98c5.48,9.16,8.95,19.3,11.41,29.65s4,21.11,5.66,31.73c.91,5.83,1.86,11.65,3.07,17.42.16.76,1.05,1.19,1.76,1,.78-.22,1.16-1,1-1.76-2.18-10.4-3.55-20.95-5.27-31.44s-3.86-21.32-7.49-31.52c-2.04-5.73-4.55-11.3-7.67-16.52-.94-1.58-3.41-.14-2.47,1.44h0Z"/>
          <path class="cls-46" d="M161.94,349.08c.12.15-.16-.22.05.06.07.1.14.19.21.29.16.22.32.45.47.68.3.45.58.91.85,1.37.57.99,1.06,2.03,1.51,3.08-.13-.3.02.04.06.15.05.13.11.26.16.4.12.3.23.61.34.91.21.57.4,1.15.59,1.74.4,1.26.74,2.53,1.03,3.82s.57,2.68.78,4.04c.05.33.1.67.15,1,.02.1.03.21.04.31,0,.04.04.31.02.13s.01.08.02.13c.01.11.03.21.04.32.09.73.17,1.46.24,2.19.28,2.99.38,6,.32,9.01-.03,1.55-.11,3.09-.22,4.63-.06.75-.12,1.5-.2,2.25-.04.39-.08.77-.13,1.15-.02.18-.04.36-.07.54,0,.07-.08.64-.05.36-.41,3.02-.99,6.03-1.78,8.97-.38,1.41-.8,2.8-1.28,4.17-.24.68-.49,1.36-.75,2.03-.12.31-.25.62-.38.93-.09.23.13-.31-.03.06-.03.08-.07.15-.1.23-.07.17-.15.34-.23.51-1.09,2.44-2.4,4.79-3.98,6.94-.09.12-.18.24-.27.36-.05.06-.09.12-.14.18.18-.24.06-.07.02-.02-.21.26-.42.52-.64.78-.4.48-.82.94-1.26,1.39s-.87.86-1.33,1.27c-.21.19-.43.37-.65.55-.11.09-.22.18-.33.26.27-.22-.14.1-.22.16-.94.69-1.94,1.31-2.99,1.82-.25.12-.5.24-.76.35-.33.15.2-.07-.14.06-.16.06-.32.13-.49.19-.54.2-1.1.38-1.66.53s-1.18.28-1.78.38c-.76.13-1.19,1.07-1,1.76.22.81.99,1.12,1.76,1,5.08-.84,9.53-3.77,12.83-7.65,3.73-4.39,6.19-9.74,7.88-15.21,1.86-6,2.82-12.29,3.12-18.56s-.05-12.33-1.23-18.36c-.96-4.93-2.5-10-5.34-14.2-.34-.5-.7-.98-1.08-1.46-.48-.61-1.52-.5-2.02,0-.6.6-.48,1.41,0,2.02h0Z"/>
        </g>
      </g>
    </g>
  </g>
  <g class="cls-37">
    <g>
      <path class="cls-2" d="M693.05,408.41c-20.91-25.17-37.94-59.27-37.94-59.27,34.85-.81,61.95-13.8,59.63-20.3-2.32-6.5-25.55-23.55-55.75-58.27-30.2-34.73-47.54-79.76-47.54-79.76,35.62,4.87,55.75-15.43,51.11-18.86-4.65-3.43-47.24-38.79-89.05-79.39C531.68,51.97,504.87,0,488.61,0s-43.06,51.97-84.88,92.56-84.41,75.96-89.05,79.39c-4.65,3.43,15.49,23.73,51.11,18.86,0,0-17.34,45.03-47.54,79.76-30.2,34.73-53.43,51.78-55.75,58.27-2.32,6.5,24.78,19.49,59.63,20.3,0,0-17.04,34.1-37.94,59.27-20.91,25.17-45.69,43.61-46.46,50.23-.77,6.61,48.79,42.34,250.9,42.34s251.67-35.73,250.89-42.34c-.77-6.61-25.55-25.06-46.46-50.23Z"/>
      <g>
        <path class="cls-42" d="M346.67,441.85c4.42-4.47,8.42-9.33,11.94-14.54,2.65-3.92-3.69-7.57-6.31-3.69-3.18,4.7-6.81,9.03-10.8,13.06-3.32,3.35,1.85,8.52,5.17,5.17h0Z"/>
        <path class="cls-42" d="M394.21,357.17c4.61,2.35,9,5.15,13.06,8.36,3.65,2.89,8.86-2.25,5.17-5.17-4.57-3.61-9.35-6.85-14.54-9.5-4.19-2.14-7.89,4.17-3.69,6.31h0Z"/>
        <path class="cls-42" d="M356.17,344.86c-3.44-7.04-6.07-14.44-8.56-21.86-1.49-4.44-8.55-2.54-7.05,1.94,2.69,8.02,5.58,16,9.3,23.61,2.07,4.23,8.37.53,6.31-3.69h0Z"/>
        <path class="cls-42" d="M382.25,260.23c7.88.63,15.67-.71,23.55-.81,4.71-.06,4.71-7.37,0-7.31-7.87.11-15.67,1.44-23.55.81-4.7-.38-4.66,6.93,0,7.31h0Z"/>
        <path class="cls-42" d="M433.31,204.83c3.69-6.48,7.35-13.12,9.3-20.36,1.23-4.56-5.82-6.49-7.05-1.94-1.79,6.65-5.17,12.67-8.56,18.61-2.34,4.1,3.98,7.78,6.31,3.69h0Z"/>
        <path class="cls-42" d="M402.55,139.25c8.47-.88,16.72-3.1,25.17-4.06,4.63-.53,4.68-7.84,0-7.31-8.46.96-16.71,3.18-25.17,4.06-4.64.48-4.69,7.79,0,7.31h0Z"/>
        <path class="cls-42" d="M484.65,57.87c3.94,5.58,7.43,11.47,11.37,17.05,2.69,3.82,9.03.17,6.31-3.69-3.94-5.58-7.43-11.47-11.37-17.05-2.69-3.82-9.03-.17-6.31,3.69h0Z"/>
        <path class="cls-42" d="M487.96,132.62c8.25-2.03,15.65-6.47,22.8-10.92,3.99-2.48.32-8.81-3.69-6.31-6.63,4.13-13.4,8.3-21.05,10.19-4.57,1.13-2.63,8.17,1.94,7.05h0Z"/>
        <path class="cls-42" d="M567.91,144.37c-2.25,5.51-3.29,11.34-4.87,17.05-1.26,4.55,5.79,6.48,7.05,1.94,1.58-5.71,2.62-11.54,4.87-17.05,1.78-4.36-5.29-6.24-7.05-1.94h0Z"/>
        <path class="cls-42" d="M556.66,215.44c6.57,1.63,13.21,3.1,19.49,5.68,4.36,1.79,6.24-5.28,1.94-7.05-6.28-2.58-12.92-4.05-19.49-5.68-4.57-1.14-6.51,5.91-1.94,7.05h0Z"/>
        <path class="cls-42" d="M618.93,278.5c-.85,6.73-3.04,13.19-6,19.27-2.06,4.22,4.25,7.92,6.31,3.69,3.57-7.32,5.98-14.86,6.99-22.96.59-4.67-6.73-4.61-7.31,0h0Z"/>
        <path class="cls-42" d="M552.1,300.7c7-.98,13.7-3.23,20.3-5.68,4.38-1.63,2.48-8.69-1.94-7.05-6.6,2.45-13.3,4.7-20.3,5.68-4.65.65-2.66,7.69,1.94,7.05h0Z"/>
        <path class="cls-42" d="M596.7,363.98c3.49,5.9,8.19,10.95,11.37,17.05,2.18,4.18,8.48.49,6.31-3.69-3.18-6.1-7.88-11.15-11.37-17.05-2.4-4.05-8.71-.38-6.31,3.69h0Z"/>
        <path class="cls-42" d="M581.08,458.98c2.11-3.97,5.55-7.16,8.36-10.63,1.25-1.55,1.52-3.65,0-5.17-1.3-1.3-3.91-1.55-5.17,0-3.19,3.94-7.1,7.6-9.5,12.11-2.21,4.16,4.1,7.85,6.31,3.69h0Z"/>
        <path class="cls-42" d="M662.91,421.25c-1.75,5.32-3.21,10.7-4.06,16.24-.7,4.61,6.34,6.59,7.05,1.94.85-5.54,2.31-10.92,4.06-16.24,1.48-4.49-5.58-6.4-7.05-1.94h0Z"/>
      </g>
    </g>
    <g>
      <polygon class="cls-43" points="548.7 352.39 532.46 342.1 514.05 360.97 509.5 263.22 536.82 220.85 520.58 210.57 507.67 223.8 506.48 198.12 470.75 198.12 466.5 289.59 451.71 274.44 435.48 284.73 464.62 329.93 459.99 429.44 433.4 402.19 417.16 412.47 457.84 475.58 452.89 582.17 524.34 582.17 516.01 403.09 548.7 352.39"/>
      <g class="cls-41">
        <g>
          <path class="cls-34" d="M520.19,192.43c-1.01,11.9-5.62,23.49-10.58,34.3-2.6,5.66-5.4,11.23-8.22,16.78-2.61,5.14-5.15,10.28-8.22,15.17-6.02,9.58-13.37,18.23-21.39,26.19s-16.95,15.43-26.04,22.4c-9.07,6.95-18.4,13.54-27.73,20.15-1.12.79-2.23,1.58-3.35,2.37-.75.54-1.11,1.5-.62,2.35.44.75,1.59,1.15,2.35.62,9.4-6.67,18.84-13.28,28.05-20.22,9.39-7.08,18.55-14.48,27.06-22.61,8.31-7.94,15.99-16.59,22.43-26.13,3.25-4.82,6.02-9.86,8.64-15.04,2.8-5.52,5.62-11.04,8.28-16.63,5.33-11.21,10.39-22.97,12.24-35.33.22-1.45.4-2.91.52-4.37.08-.92-.84-1.72-1.72-1.72-.99,0-1.64.79-1.72,1.72h0Z"/>
          <path class="cls-34" d="M523.5,260.99c-2.68,7.48-6.71,14.4-11.19,20.94-4.72,6.89-9.99,13.38-15.27,19.85s-10.81,13.21-15.76,20.16-9.03,13.73-12.15,21.33c-1.49,3.63-2.7,7.38-3.51,11.22-.73,3.45-1.26,6.9-.71,10.42.92,5.92,4.99,10.54,9.78,13.83,5.34,3.67,11.57,5.98,17.69,8s11.91,3.51,17.73,5.66c7.98,2.94,14.88,8.07,20.82,14.08,6.25,6.33,11.59,13.47,17.53,20.07,1.53,1.7,3.11,3.37,4.72,5s3.99-.86,2.43-2.43c-6.36-6.38-11.83-13.52-17.79-20.26-5.84-6.61-12.36-12.68-20.21-16.83-5.86-3.1-12.26-4.85-18.57-6.78-6.19-1.9-12.34-3.83-17.97-6.73-1.35-.69-2.67-1.45-3.94-2.28s-2.1-1.44-3.22-2.44c-.52-.46-1.02-.94-1.49-1.44-.23-.25-.46-.5-.68-.76-.1-.12-.2-.24-.3-.36-.05-.06-.1-.12-.15-.18-.17-.21.15.19-.02-.02-.82-1.08-1.52-2.25-2.07-3.49.12.27-.03-.06-.06-.16-.06-.14-.11-.29-.16-.43-.12-.34-.23-.69-.33-1.04-.19-.66-.33-1.34-.44-2.02-.05-.33,0,.14-.02-.19-.02-.16-.03-.33-.05-.49-.03-.39-.05-.79-.06-1.18-.01-.77.02-1.54.1-2.3.07-.69.2-1.46.36-2.34.17-.97.37-1.93.59-2.89.44-1.91.97-3.8,1.58-5.66,2.48-7.52,6.35-14.5,10.72-21.08s9.75-13.37,14.96-19.79,10.78-13.12,15.8-19.97c4.74-6.47,9.12-13.26,12.4-20.59.81-1.81,1.55-3.64,2.22-5.51.31-.87-.35-1.88-1.2-2.11-.95-.26-1.8.32-2.11,1.2h0Z"/>
          <path class="cls-34" d="M522.86,295.5c-1.11,2.1-2.44,4.07-3.85,5.97-.19.25-.37.5-.56.75-.1.14-.21.27-.31.41-.04.06-.09.12-.13.18-.16.21.16-.2,0,0-.42.54-.84,1.07-1.27,1.6-.89,1.11-1.8,2.2-2.71,3.29-3.95,4.69-8.05,9.27-11.88,14.07s-7.33,9.56-9.91,14.97c-2.33,4.89-3.8,10.2-3.04,15.64.52,3.73,2.29,6.88,4.95,9.53,2.99,2.98,6.68,5.23,10.41,7.15,4.5,2.31,9.23,4.19,13.99,5.9s10.03,3.39,15.08,4.95c4.78,1.47,9.57,2.9,14.32,4.47,2.05.68,4.1,1.38,6.12,2.14.9.34,1.8.7,2.69,1.07.18.07-.19-.08-.17-.07.06.03.12.05.19.08.09.04.18.08.28.12.21.09.42.18.63.28.39.17.77.35,1.15.54.68.33,1.36.68,2.02,1.06.8.46,1.88.19,2.35-.62s.19-1.88-.62-2.35c-3.22-1.86-6.77-3.16-10.26-4.39-4.46-1.56-8.98-2.94-13.5-4.32-4.99-1.53-9.98-3.06-14.93-4.72-2.46-.83-4.91-1.69-7.33-2.61-1.17-.44-2.33-.9-3.48-1.37-.28-.11-.56-.23-.83-.35-.18-.08.08.03.09.04-.08-.04-.17-.07-.25-.11-.15-.06-.29-.13-.44-.19-.56-.24-1.12-.49-1.68-.74-2.09-.95-4.15-1.97-6.15-3.1-.91-.52-1.82-1.07-2.69-1.65-.43-.28-.85-.57-1.27-.87-.2-.14-.39-.28-.58-.43-.09-.07-.18-.13-.26-.2-.08-.06-.25-.2.09.07-.06-.04-.11-.09-.17-.13-1.42-1.13-2.72-2.36-3.87-3.76-.21-.26.1.14.04.05s-.13-.17-.2-.26c-.13-.17-.25-.35-.37-.53-.22-.32-.42-.66-.61-1s-.36-.7-.53-1.06c-.15-.33.12.31.02.05-.03-.08-.06-.16-.1-.24-.07-.19-.14-.38-.2-.57-.28-.86-.42-1.74-.57-2.63-.03-.2.02.11.02.12,0-.09-.02-.18-.03-.27-.01-.13-.03-.27-.04-.4-.03-.31-.05-.63-.06-.94-.02-.61-.02-1.22.02-1.82.02-.29.04-.59.07-.88.01-.14.03-.27.04-.41,0-.07.02-.14.02-.2.03-.26-.07.42,0-.02.1-.59.2-1.19.33-1.77.28-1.26.66-2.49,1.1-3.7.11-.3.22-.6.34-.89.06-.14.11-.28.17-.41.07-.18-.02.04-.03.07.04-.09.08-.18.12-.28.27-.63.56-1.25.86-1.86.63-1.27,1.31-2.5,2.03-3.72,1.52-2.53,3.21-4.96,4.98-7.32.22-.29.44-.59.67-.88.05-.07.1-.14.16-.2-.02.03-.13.16,0,0s.24-.32.37-.47c.48-.61.96-1.21,1.44-1.82.97-1.21,1.96-2.41,2.96-3.59,1.96-2.33,3.95-4.62,5.93-6.93,3.57-4.16,7.21-8.36,10.19-12.97.59-.91,1.15-1.85,1.65-2.81.43-.82.21-1.87-.62-2.35-.78-.45-1.91-.21-2.35.62h0Z"/>
          <path class="cls-34" d="M443.5,390.58c13.39,4.68,27.14,8.58,39.76,15.12,3.18,1.65,6.3,3.45,9.25,5.49s5.46,4.01,8.11,6.18c5.41,4.44,10.57,9.17,15.91,13.69,5.99,5.08,12.23,9.94,19.13,13.74.81.45,1.87.2,2.35-.62s.2-1.9-.62-2.35c-12.27-6.77-22.18-16.75-32.87-25.68-5.48-4.58-11.15-8.88-17.42-12.31s-13.07-6.26-19.86-8.75c-7.55-2.77-15.23-5.17-22.82-7.83-.87-.31-1.88.35-2.11,1.2-.26.95.32,1.8,1.2,2.11h0Z"/>
          <path class="cls-34" d="M423.2,393.83c8.69,2.2,16.82,6.1,24.53,10.62,4,2.34,7.9,4.86,11.73,7.46,3.42,2.31,6.72,4.88,10.27,7,5.37,3.2,10.97,6.01,16.3,9.27,2.48,1.52,4.95,3.14,7.15,4.96,2.01,1.66,3.95,3.58,5.28,5.59.66.99,1.28,2.18,1.59,3.04.2.55.37,1.1.5,1.67.07.28.12.57.17.86.07.39.04.23.08.69.22,2.68-.32,5.12-1.43,7.64-1.65,3.73-4.2,7.09-6.41,10.5-2.5,3.84-5,7.68-7.5,11.52-9.78,15.02-19.52,30.08-28.51,45.59-9.11,15.71-17.38,31.91-24.31,48.7-.86,2.09-1.7,4.19-2.52,6.29-.34.86.37,1.88,1.2,2.11.97.27,1.77-.33,2.11-1.2,6.7-17.21,14.9-33.79,24-49.84,8.96-15.81,18.77-31.12,28.67-46.35,2.52-3.87,5.04-7.74,7.56-11.61s5.07-7.47,7.32-11.36c2.95-5.09,4.44-11.14,2.13-16.78-2.18-5.29-6.69-9.16-11.28-12.35-5.19-3.61-10.83-6.5-16.34-9.59-1.35-.76-2.7-1.52-4.03-2.32-1.69-1.01-3.27-2.17-4.89-3.29-3.77-2.64-7.57-5.23-11.46-7.7-7.77-4.94-15.91-9.43-24.62-12.5-2.1-.74-4.23-1.39-6.39-1.93s-3.05,2.77-.91,3.31h0Z"/>
          <path class="cls-34" d="M398.9,417.75c4.7,4.37,10.05,7.95,15.78,10.82s11.76,5.11,17.8,7.21c5.36,1.87,10.77,3.58,16.09,5.56.53.2,1.06.4,1.59.6.27.1.53.21.8.32.12.05.24.1.36.15.06.02.64.27.32.13,1.17.49,2.32,1.02,3.45,1.59s2.14,1.13,3.17,1.76c.49.3.97.61,1.44.94.25.18.51.35.76.54.12.09.25.18.37.28-.29-.22.21.16.26.2.9.73,1.75,1.51,2.54,2.36.2.22.4.44.59.67.06.08.5.63.29.35.39.51.75,1.04,1.08,1.59.28.47.53.95.76,1.44.06.14.12.27.18.41-.16-.36.04.1.05.15.11.28.21.57.3.86.17.54.32,1.09.43,1.64.06.31.12.62.16.94-.06-.48,0,.26.01.39.04.79,0,1.58-.08,2.36-.01.11-.03.21-.04.32-.04.39.07-.41,0-.03-.03.2-.06.4-.1.6-.08.47-.18.93-.29,1.39-.21.89-.48,1.78-.78,2.65-.16.46-.32.91-.5,1.37-.09.22-.17.44-.26.66-.05.12-.1.24-.15.36.18-.42-.05.12-.09.2-1.84,4.23-4.26,8.2-6.86,12.01-2.95,4.34-5.77,7.95-9.09,11.94-5.66,6.8-11.7,13.27-17.93,19.55-.52.52-1.04,1.05-1.56,1.57-1.56,1.56.86,3.99,2.43,2.43,6.01-6.01,11.86-12.18,17.39-18.63,3.42-4,6.72-8.1,9.8-12.37,2.82-3.91,5.47-7.97,7.62-12.28,1.86-3.72,3.42-7.66,3.84-11.83.47-4.66-1.38-9.17-4.4-12.66-3.27-3.78-7.8-6.35-12.33-8.33-4.86-2.13-9.94-3.72-14.95-5.44-11.97-4.1-24.25-8.11-34.22-16.03-1.24-.98-2.44-2.02-3.6-3.1-.68-.63-1.75-.67-2.43,0s-.68,1.79,0,2.43h0Z"/>
          <path class="cls-19" d="M530.17,459.51c-6.38,9.17-14.76,16.71-22.01,25.16-1.87,2.18-3.66,4.41-5.28,6.77s-3.09,4.61-4.54,6.98c-2.92,4.73-5.6,9.6-8.05,14.58s-4.71,10.21-6.74,15.45c-1,2.6-1.89,5.25-2.95,7.82s-2.05,4.99-3.06,7.49c-4.24,10.5-8.26,21.12-11.5,31.98-3.23,10.83-5.73,21.96-6.53,33.26-.1,1.34-.16,2.69-.21,4.03-.07,2.21,3.36,2.21,3.43,0,.36-11.03,2.54-21.91,5.5-32.52s6.95-21.59,11.13-32.12c2.01-5.06,4.2-10.06,6.06-15.19s3.95-10.24,6.27-15.22,4.88-9.88,7.67-14.63c2.75-4.68,5.62-9.42,9.03-13.64,7.05-8.7,15.42-16.24,22.27-25.11.85-1.1,1.67-2.22,2.47-3.36.53-.76.14-1.91-.62-2.35-.85-.5-1.82-.15-2.35.62h0Z"/>
          <path class="cls-34" d="M540.18,500.58c-4.43,5.3-8.3,11.05-11.73,17.04-3.69,6.45-6.87,13.17-9.68,20.04-2.88,7.03-5.36,14.23-7.44,21.53s-3.71,14.36-4.96,21.66c-1.18,6.89-2.02,13.85-2.33,20.83-.03.8-.06,1.6-.08,2.4-.02.93.81,1.72,1.72,1.72s1.69-.79,1.72-1.72c.08-3.26.29-6.52.6-9.76.16-1.71.35-3.42.57-5.13.12-.96.17-1.35.31-2.33.12-.85.25-1.7.38-2.54,1.14-7.25,2.71-14.42,4.63-21.5s4.31-14.38,7.04-21.37,5.64-13.29,9.14-19.69c1.67-3.06,3.46-6.07,5.36-8.99.93-1.42,1.89-2.83,2.88-4.21.49-.68.98-1.35,1.48-2.01.55-.73.72-.95,1.29-1.67.5-.63,1.02-1.26,1.54-1.88.59-.71.7-1.73,0-2.43-.61-.61-1.83-.71-2.43,0h0Z"/>
          <path class="cls-34" d="M452.07,255.05c6.53-.63,12.82-2.7,18.36-6.23,5.38-3.42,9.89-7.98,13.7-13.07,3.92-5.22,7.04-11.01,9.65-16.98,2.68-6.14,4.85-12.48,6.64-18.93,1.64-5.9,2.97-11.89,4.08-17.91.13-.68.25-1.36.37-2.04.16-.91-.25-1.85-1.2-2.11-.83-.23-1.95.28-2.11,1.2-1.03,5.85-2.27,11.68-3.77,17.43-1.64,6.25-3.6,12.43-6.04,18.42-.14.36-.29.71-.44,1.07-.02.06-.13.3,0,.01-.04.09-.08.19-.12.28-.08.19-.16.38-.24.56-.32.75-.66,1.5-1,2.24-.68,1.48-1.39,2.94-2.15,4.38-1.48,2.84-3.11,5.6-4.91,8.24-.44.65-.9,1.29-1.36,1.92-.22.3-.44.59-.66.88-.03.04-.22.28-.09.12s-.06.08-.09.12c-.13.17-.27.34-.41.52-.96,1.21-1.97,2.38-3.03,3.5s-2.1,2.14-3.22,3.14c-.56.5-1.14.99-1.73,1.47-.15.12-.29.24-.44.35-.33.26.08-.06-.16.12-.32.24-.64.48-.96.71-1.22.88-2.49,1.7-3.8,2.44-.66.37-1.32.73-2,1.06-.32.16-.64.31-.96.46-.17.08-.35.16-.52.23-.09.04-.17.08-.26.11-.04.02-.41.17-.19.08.16-.07-.24.1-.32.13-.18.07-.36.14-.53.21-.38.15-.76.29-1.15.42-.71.25-1.43.48-2.15.68-1.53.44-3.08.78-4.65,1.03-.2.03-.4.06-.6.09-.1.01-.2.03-.3.04.07,0,.34-.04,0,0-.41.05-.82.1-1.23.14-.92.09-1.72.72-1.72,1.72,0,.86.79,1.81,1.72,1.72h0Z"/>
        </g>
      </g>
    </g>
  </g>
  <g>
    <path class="cls-36" d="M655.79,291.28c-2.81-6.52-12-12.98-28.45-17.21-14.11-3.63-33.96-5.32-51.62-3.98,5.75-.89,10.68-2.29,13.92-3.99,9.74-5.12,2.38-12.24-13.39-15.66-15.78-3.42-37.46-3.52-55.47-1.37-18.01,2.15-32.83,6.26-45.41,10.76,9.47-3.38-14.27-9.15-21.94-10.03-18.84-2.16-32.21,1.98-50.26,2.31-14.12.26-28.58-2.45-42.7-1.13-13.09,1.23-25.45,6.32-16.8,10.4-9.8-4.82-29.48-6.82-47.92-7.38-17.53-.53-35.83-.05-51.58,2.37-15.75,2.42-28.57,7-30.9,12.36-2.33,5.35,7.64,11.24,24.36,12.94-25.16,4.58-28.2,16.89-7.51,23.24,15.98,4.9,41.8,5.79,62.69,3.16-9.41,3.23-13.48,8.13-9.92,12.43,9.84,11.88,30.62,12.58,44.75,13.18,18,.76,36.14-3.64,47-19.16,1.04-1.49,3.18-.9,3.33.9,3.07,36.39,54.67,17.62,70.69,1.83,4.91-4.83,9.47-10.53,11.78-17.08.64-1.82,3.6-1.64,3.51.48-.06,1.37-.08,2.75-.04,4.13.75,28.66,27.11,41.23,52.58,43.29,10.15.82,65.55,1.34,61.56-18.89-1.2-6.09-9.39-11.82-18.27-17.28,15.6,3.33,36.39,4.25,54.44,2.42s32.92-6.38,38.95-11.91c3.88-3.55,4.21-7.4,2.61-11.12Z"/>
    <path class="cls-45" d="M392.37,272.05c0,13.66-6.01,24.74-13.43,24.74s-13.43-11.08-13.43-24.74,6.01-24.74,13.43-24.74,13.43,11.08,13.43,24.74Z"/>
    <g>
      <path class="cls-26" d="M386.07,473c-21.6-3.13-53.53,5.68-53.26,32.33.09,8.75,1.73,17.49,4.81,25.68h113.55c-11.38-27.07-36.04-53.8-65.1-58.02Z"/>
      <g>
        <g>
          <path class="cls-26" d="M401.93,339.56c-17.93.42-35.43,7.11-50.77,16.05-18.77,10.94-35.12,25.5-52.02,39.17-6.02,4.87-12.13,9.6-18.31,14.26l.09,85.52c25.42-19.38,49.58-40.49,76.1-58.36,24.84-16.74,53.03-31.56,71.31-55.46,3.65-4.78,7.01-10.29,6.86-16.3-.35-14.95-20.45-25.17-33.27-24.87Z"/>
          <path class="cls-11" d="M438.28,294.38c-.94,4.97-2.07,18.76-2.21,23.82-.21,7.56.76,15.82,6.04,21.24-3.27,4.5-8.23,8.2-13.62,9.57-5.39,1.38-11.26.81-16.28-1.57-1.37-.65-2.68-1.43-3.98-2.2-1.6-.95-3.2-1.91-4.8-2.86,6.93-11.95,4.16-26.86,2.3-40.55,3.46-.64,17.06-.4,20.53-1.04,1.5-.28,1.55-3.51,3.08-3.45,2.42.1,6.57-2.54,8.96-2.95Z"/>
          <path class="cls-17" d="M422.61,301.09c1.34,4.34,1.55,8.98.64,13.46-.96,4.73-3.07,9.88-6.88,13.03-2.68,2.21-5.78,2.8-8.93,2.48,1.21-9.11-.46-18.96-1.72-28.25,2.69-.5,11.47-.47,16.89-.73Z"/>
          <path class="cls-26" d="M352.06,443.2c.88,15.76,2.23,31.83,5.47,47.23,2.25,10.71,3.1,26.48,10.56,34.47,6.85,7.34,16.87,6.45,25.6,7.41,22.47,2.47,45.02-1.65,67.28-4.72.97-.13,2.24-.32,2.62-1.28,1.06-2.66,2.29-6.13,2.29-6.13,7.57-47.22,17.02-91.32,20.6-139.22,1.93-22.79-12.14-36.24-30.98-40.89-17.95-4.43-37.27-1.82-55.48-1.26-21.13.65-40.76,9.85-46.53,34.74-5.01,21.61-2.67,47.53-1.43,69.65Z"/>
          <g>
            <path class="cls-25" d="M384.85,293.46c.01.33.03.67.06,1,.01.17.03.34.04.51.01.1.02.21.03.31.03.32.07.64.11.95.01.1.03.19.04.28.07.46.14.92.23,1.38.09.48.19.96.31,1.44.04.17.08.34.13.5.03.1.05.2.08.3.11.41.22.8.35,1.2.3.96.65,1.91,1.05,2.83.09.22.19.44.29.66.9,1.98,2.01,3.84,3.29,5.57.28.37.57.74.86,1.1.16.2.32.38.48.58.27.31.55.62.83.93.69.75,1.42,1.45,2.17,2.13.36.31.72.62,1.08.92,1.51,1.22,3.12,2.29,4.84,3.21,1.29.69,2.64,1.29,4.04,1.8.31.11.61.22.92.32.22.07.44.14.66.21.12.04.24.07.36.11.11.03.23.06.34.09.36.1.72.19,1.08.28,2.16.51,4.39.78,6.7.8.51,0,1,0,1.5-.02,5.61-.22,10.86-1.98,15.32-4.86,8.4-5.42,14.03-14.82,14.12-25.51l.07-7.25.19-21.33.06-6.67.08-9.21c0-.51,0-1.01-.02-1.51-.01-.25-.02-.5-.04-.74-.01-.2-.02-.39-.04-.58-.01-.2-.03-.39-.06-.59,0-.05,0-.1-.01-.14-.01-.12-.02-.24-.04-.36-.01-.14-.03-.28-.05-.43,0-.09-.02-.17-.03-.26-.03-.21-.06-.42-.1-.63-.03-.18-.06-.35-.09-.53-.02-.1-.04-.21-.06-.31-.08-.41-.16-.81-.26-1.21-.05-.23-.11-.46-.17-.68-.05-.21-.11-.41-.17-.62-.06-.2-.12-.4-.18-.61,0,0,0-.01,0-.02-.06-.2-.13-.4-.19-.6-.07-.2-.14-.4-.21-.61-.07-.2-.15-.4-.22-.6-.15-.4-.32-.8-.48-1.2-.03-.08-.07-.15-.1-.23-.14-.33-.29-.65-.44-.97-.04-.07-.07-.15-.11-.22-.16-.33-.33-.66-.5-.98-.03-.05-.05-.1-.08-.15-5.15-9.51-15.18-16.06-26.71-16.16-12.97-.12-24.2,7.94-28.76,19.34-1.37,3.43-2.15,7.15-2.18,11.05l-.4,44.46c0,.51,0,1.03.03,1.54Z"/>
            <path class="cls-11" d="M379.15,295.7c.01.32.03.64.06.96.01.16.03.33.04.49.01.1.02.2.03.3.03.31.08.61.12.91.01.09.03.18.04.27.08.44.16.88.26,1.32.11.46.22.92.36,1.38.05.16.1.32.15.48.03.1.06.19.09.29.12.39.26.77.41,1.15.35.92.76,1.82,1.23,2.71.11.21.23.42.34.63,1.07,1.89,2.37,3.67,3.9,5.32.33.36.67.71,1.02,1.05.19.19.38.37.57.55.32.3.65.59.99.88.82.71,1.69,1.38,2.59,2.02.42.3.85.59,1.29.87,1.8,1.15,3.73,2.17,5.78,3.03,1.54.65,3.16,1.22,4.83,1.69.37.1.73.2,1.1.29.26.07.53.13.79.19.14.03.29.07.43.1.13.03.27.06.4.08.43.09.86.18,1.3.26,2.58.47,5.27.71,8.03.71.61,0,1.21-.01,1.81-.04,6.74-.27,13.05-2,18.44-4.81,10.14-5.28,16.98-14.37,17.2-24.63l.15-6.96.44-20.48.14-6.41.19-8.84c0-.49,0-.97-.01-1.45,0-.24-.02-.48-.04-.71-.01-.19-.03-.37-.05-.56-.01-.19-.04-.38-.06-.56,0-.05,0-.09-.02-.14-.01-.12-.03-.23-.05-.34-.02-.14-.04-.27-.06-.41-.01-.08-.02-.17-.04-.25-.03-.2-.07-.4-.11-.6-.03-.17-.07-.34-.11-.51-.02-.1-.04-.2-.07-.3-.09-.39-.19-.78-.3-1.16-.06-.22-.13-.44-.2-.65-.06-.2-.13-.4-.2-.6-.07-.19-.14-.39-.21-.58,0,0,0-.01,0-.02-.07-.19-.15-.38-.23-.58-.08-.19-.16-.39-.24-.58-.08-.19-.17-.38-.26-.57-.18-.39-.37-.77-.57-1.15-.04-.07-.08-.14-.12-.22-.17-.31-.34-.62-.52-.93-.04-.07-.09-.14-.13-.21-.19-.32-.39-.63-.59-.94-.03-.05-.06-.1-.1-.15-6.09-9.08-18.07-15.27-31.91-15.26-15.57.01-29.13,7.86-34.72,18.84-1.68,3.3-2.76-.03-2.84,3.71l-.8,49.61c0,.49,0,.99.02,1.48Z"/>
            <path class="cls-11" d="M468.76,272c-.07,8.05-6.66,14.51-14.7,14.44-8.05-.07-14.51-6.66-14.44-14.7.07-8.05,6.66-14.51,14.7-14.44,8.05.07,14.51,6.66,14.44,14.7Z"/>
          </g>
        </g>
        <g>
          <path class="cls-11" d="M323.19,770.4c-4.16,21.5-8.42,50.17-23.05,58.49-9.92,5.63-21.47,6.47-32.25,9.73-21.03,6.37-39.36,22.65-49.27,43.78h142.35v-99.91l-37.78-12.09Z"/>
          <path class="cls-13" d="M267.89,838.61c10.78-3.26,22.33-4.1,32.25-9.73,8.48-4.82,12.63-15.88,16.11-25.55,2.83,4.39,7.93,11.52,10.96,15.75,2.94,4.1,6.22,8.07,10.32,10.83,4.11,2.78,8.84,3.8,13.6,2.86,3.51-.69,6.8-2.34,9.83-4.44v54.06h-142.35c9.91-21.14,28.24-37.42,49.27-43.78Z"/>
          <path class="cls-13" d="M222.13,890.6h137.97c4.11,0,7.47-3.36,7.47-7.47v-.63c0-4.11-3.36-7.47-7.47-7.47h-137.97c-4.11,0-7.47,3.36-7.47,7.47v.63c0,4.11,3.36,7.47,7.47,7.47Z"/>
        </g>
        <polygon class="cls-40" points="465.88 520.17 426.3 626.21 369.21 811.42 273.96 808.26 297.73 734.82 298.39 732.75 301.7 722.52 324.93 650.68 325.59 648.63 331.45 630.55 367.05 520.5 465.88 520.17"/>
        <path class="cls-5" d="M352.05,435.28c-9.58-11.65-12.46-28.44-7.31-42.62"/>
        <path class="cls-5" d="M335.56,385.65c-3.58,6.86-4.22,15.03-2.7,22.62,1.52,7.59,8,21.47,19.19,27.02"/>
        <path class="cls-5" d="M308.95,872.21s5.81-24.76,52.48-29.08"/>
        <path class="cls-5" d="M287.97,834.49s-7.78,27.66-47.53,20.74"/>
      </g>
      <path class="cls-5" d="M458.78,273.32c-.13-2.74-3.7-4.26-6.26-3.26-2.56,1-4.13,3.58-5.14,6.13"/>
      <polyline class="cls-8" points="411.45 279.12 404.38 272.05 404.38 280.54"/>
      <path class="cls-8" d="M414.88,281.78s-6.96,6.53-11.21,2.29"/>
      <path class="cls-13" d="M409.12,269.88c0,1.89,3.67,3.43,8.19,3.43s8.19-1.53,8.19-3.43-3.67-3.43-8.19-3.43-8.19,1.53-8.19,3.43Z"/>
      <ellipse class="cls-13" cx="395.03" cy="269.12" rx="8.19" ry="3.43"/>
      <path class="cls-17" d="M417.3,266.45c-.59,0-1.17.03-1.72.08,1.01,2.4,2.31,4.67,3.97,6.64,3.43-.41,5.94-1.73,5.94-3.29,0-1.89-3.67-3.43-8.19-3.43Z"/>
      <path class="cls-17" d="M395.03,265.69c-1.08,0-2.11.09-3.05.25.48,2.39,1.37,4.64,2.82,6.6.08,0,.16,0,.24,0,4.52,0,8.19-1.53,8.19-3.43s-3.67-3.43-8.19-3.43Z"/>
      <path class="cls-28" d="M419.65,280.61c0,2.56,3.67,4.63,8.19,4.63s8.19-2.07,8.19-4.63-3.67-4.63-8.19-4.63-8.19,2.07-8.19,4.63Z"/>
      <path class="cls-28" d="M384.83,285.62c.03-1.2.05-2.4.05-3.59.07-1.85.12-3.69.11-5.54,4.38.09,7.88,2.12,7.88,4.62s-3.6,4.59-8.07,4.63c0-.04.03-.08.03-.12Z"/>
      <path class="cls-40" d="M335.82,634.69l-86.24,9.9,25.45,41-33.29,19.23-35.23,20.34-26.2,18.39-40.89-105.94c-1.47-5.03-2.19-10.21-2.19-15.35,0-8.84,2.13-17.63,6.33-25.58,7.2-13.61,19.79-23.57,34.71-27.43l71.31-22.22,84.83-26.86h110.91l-109.49,114.52Z"/>
      <line class="cls-5" x1="319.45" y1="532.31" x2="453.16" y2="532.9"/>
      <line class="cls-5" x1="414.99" y1="532.9" x2="410.75" y2="629.04"/>
      <path class="cls-5" d="M348.47,809.42c-.87,2.55,91.61-267.09,94.8-276.53"/>
      <line class="cls-5" x1="331.48" y1="635.19" x2="361.26" y2="532.9"/>
      <path class="cls-5" d="M339.97,533.06l-15.44,56.43c-2.56,9.35,4.48,18.58,14.18,18.58h0"/>
      <polyline class="cls-5" points="335.83 617 215.64 619.14 250.99 694.07"/>
      <path class="cls-5" d="M147.62,657.3s57.31-16.95,52.06-94.71"/>
      <path class="cls-17" d="M325.59,648.63l-.66,2.05c20.06,3.85,35.26,21.52,35.26,42.68,0,23.96-19.5,43.46-43.46,43.46-6.55,0-12.77-1.46-18.34-4.07l-.66,2.06c5.78,2.67,12.23,4.16,19,4.16,25.15,0,45.61-20.46,45.61-45.61,0-22.13-15.82-40.62-36.74-44.73Z"/>
      <path class="cls-8" d="M414.87,277.45s-2.01,7.43,7.18,9.5"/>
    </g>
    <g>
      <path class="cls-11" d="M298.56,770.12l-105.14,91.49c-6.25-21.98-3.2-45.78,8.26-64,5.87-9.33,13.85-17.38,17.56-27.91,4.21-11.97-3.89-28.91-12.74-44.53l35.23-20.34,56.83,65.3Z"/>
      <path class="cls-13" d="M201.67,797.6c5.86-9.34,13.86-17.38,17.56-27.91,3.17-9.01-.88-19.85-4.52-29.22,4.91,1.42,13.26,3.41,18.21,4.59,4.8,1.14,9.78,1.96,14.58,1.37,4.82-.59,8.97-2.87,11.89-6.63,2.15-2.77,3.51-6.1,4.41-9.6l34.75,39.93-105.13,91.49c-6.26-21.98-3.19-45.78,8.25-64Z"/>
      <path class="cls-13" d="M176.18,807.69h142.13c2.09,0,3.79,1.7,3.79,3.79v7.66c0,2.09-1.7,3.79-3.79,3.79h-142.13c-2.09,0-3.79-1.7-3.79-3.79v-7.66c0-2.09,1.7-3.79,3.79-3.79Z" transform="translate(968.97 1268.06) rotate(138.97)"/>
    </g>
    <line class="cls-10" x1="360.56" y1="874.33" x2="222.01" y2="874.33"/>
    <line class="cls-10" x1="191.29" y1="853.9" x2="293.19" y2="765.23"/>
    <path class="cls-10" d="M253.11,799.4s-2.85-27.59,23.65-55.14"/>
    <path class="cls-10" d="M190.09,826.41s29.5-26.39,21.53-42.29"/>
    <line class="cls-10" x1="220.26" y1="764.91" x2="235.44" y2="764.91"/>
    <line class="cls-10" x1="218.85" y1="773.4" x2="234.02" y2="773.4"/>
    <line class="cls-10" x1="303.57" y1="826.4" x2="317.73" y2="842.87"/>
    <line class="cls-10" x1="309.23" y1="819.33" x2="323.38" y2="835.8"/>
    <path class="cls-5" d="M426.3,261.45s-4.24-5.66-12.72-4.24"/>
    <path class="cls-36" d="M411.73,217.54c-3.47,5.81-5.83,12.28-6.89,18.96-.65,4.08-.72,8.6,1.68,11.97,1.12,1.57,2.7,2.76,4.4,3.68,8.54,4.64,19.89,2.15,26.84-4.66-2.57,2.67-3.67,6.67-2.83,10.28.84,3.61,3.59,6.71,7.07,7.98,1.3.47,2.69.7,4.08.69,2.58-1.89,5.38-4.72,8.13-6.37-2.8-7.81-1.19-16.54-3.09-24.62-1.81-7.7-6.95-14.55-13.83-18.46-6.88-3.9-18.02-1.86-25.56.54Z"/>
    <path class="cls-36" d="M396.96,245c-1.14,1.09-5.09,4.24-6.55,4.9-1.46.66-3.59.11-3.95-1.39,1.19,3.89,2.04,8,1.27,11.99s-3.48,7.83-7.5,9.06c2.45,2.93,2.18,7.63-.59,10.28-2.28-8.4-4.38-16.94-4.47-25.63-.09-8.68,1.98-17.62,7.37-24.59,3.04-3.93,7.08-7.15,11.67-9.28,7.05-3.27,16.09-4.23,17.76-2.62,5.45,5.24-8.34,20.87-15.02,27.29Z"/>
    <path class="cls-5" d="M388.13,261.45s4.24-5.66,12.72-4.24"/>
    <line class="cls-8" x1="404.45" y1="230.08" x2="412.16" y2="217.62"/>
    <path class="cls-6" d="M416.17,217.07s-5.99,42.58,34.94,18.38"/>
    <path class="cls-6" d="M382.16,239.14s12.33,1.81,22.22-21.52"/>
    <g>
      <ellipse class="cls-45" cx="455.28" cy="269.23" rx="13.43" ry="24.74"/>
      <path class="cls-8" d="M457.62,250.25c-9.53,6.84-10.98,28.69-3.75,35.94"/>
    </g>
    <path class="cls-9" d="M375.76,286.39l2.9-44.81c-1-20.74,15.54-38.1,36.3-38.1h.88c22,0,38.95,19.39,36.02,41.19l-.75,5.58"/>
    <path class="cls-26" d="M298.2,354.25c7.1,39.95,24.06,80.27,14.17,119.74-2.78,11.09-9.3,23.13-21.57,25.94-14.93,3.42-28.61-8.71-36.04-20.84-12.84-20.94-17.97-45.16-18.32-69.06-.36-23.9,3.86-47.66,8.75-71.16,15.92,8.62,35.15,10.75,53.01,15.38Z"/>
    <path class="cls-11" d="M315.54,297.37c-.18-3.09-.41-6.34-2.13-8.91s-5.47-4.06-8-2.29c-1.67,1.17-2.31,3.31-2.84,5.28-1.94,7.27-3.88,14.53-5.82,21.8-2.94-25.96-6.08-51.9-9.44-77.8-.44-3.38-.93-6.89-2.81-9.73-1.88-2.84-5.6-4.77-8.76-3.52-3.92,1.56-4.79,6.64-4.97,10.85-.7,16.52.09,33.1,2.36,49.47-17.9,4.49-33.71,18.63-37.68,36.66-7.38,33.56,23,49.75,51.78,47.53,33.99-2.62,29.8-43.73,28.3-69.34Z"/>
    <path class="cls-8" d="M273.17,282.81c5.11-1.94,11.79,1.11,14.31,5.96,4.54,8.72.93,23.34-3.46,32.13-4.39,8.79-12.7,15.41-22.09,18.31-2.39.74-4.93,1.25-7.38.76-4.03-.81-7.12-4.25-8.63-8.07-1.51-3.82-1.69-8.02-1.81-12.12"/>
    <path class="cls-8" d="M238.58,325.76c1.19,0,7.35,6.16,7.35,6.16"/>
    <path class="cls-8" d="M250.56,294.86c3.08-2.24,7.75-.56,9.92,2.57,2.17,3.13,2.45,7.17,2.43,10.97-.04,10.34-1.73,20.68-4.99,30.5"/>
    <path class="cls-8" d="M262.69,285.57c3.76-.5,7.47,1.84,9.54,5.01s2.79,7.03,3.14,10.8c1.08,11.83-1.12,23.94-6.29,34.63"/>
    <path class="cls-8" d="M305.32,320.77c-4.67.05-9.06,2.41-12.62,5.43-8.59,7.3-13.27,18.95-12.12,30.17"/>
    <path class="cls-26" d="M452.23,406.85c5.12,15.83,16.85,28.5,28.24,40.61,19.36,20.58,38.71,41.16,58.07,61.74,6.48,6.89,13.15,13.92,21.62,18.12,17.18,8.53,38.87,3.33,53.72-8.81,14.86-12.14,23.88-30.01,30.13-48.15,10.51-30.53,14.28-63.36,10.96-95.47-23.95-1.02-47.78-4.72-70.92-11.01-3.62,20.51-11.61,40.24-23.29,57.49-10.67-19.15-21.61-38.65-37.68-53.58-12.49-11.61-37.57-28.05-55.23-18.45-17.94,9.75-21.16,40.36-15.62,57.49Z"/>
    <path class="cls-11" d="M603.83,296.8c-9.17-3.36-16.62-11.09-19.65-20.37-3.43-10.49-1.95-27.46,8.88-33.27,11.19-6.01,27.77.65,27.91,14.3,5.01-7.8,17.99-5.74,23.71,1.55,5.72,7.29,6.24,17.25,6.53,26.51.91,29.93,1.82,59.86,2.72,89.79-22.96,1.68-48.65-.09-69.33-10.19.23-8.79.46-17.58.69-26.38-21.2-2.17-34.86-23.89-40.14-44.54-4.03-15.74-5.14-32.22-3.26-48.35.27-2.36.66-4.83,2.11-6.71,4.43-5.74,14.19-1.1,17.22,5.48s2.79,14.45,6.56,20.65c-.33-23.04,1.37-46.12,5.05-68.86.98-6.02,5.06-13.86,10.75-11.66,3.23,1.25,4.35,5.18,4.98,8.58,3.24,17.56,4.57,35.47,3.97,53.32"/>
    <path class="cls-8" d="M601.83,267.34c-1.72,8.54-3.43,17.45-1.17,25.86,2.09,7.75,4.14,18.24,20.84,17.04"/>
    <path class="cls-8" d="M378.08,255.03c-6.49,7.79-8.52,19.06-5.16,28.62"/>
    <path class="cls-6" d="M468.86,270.14c4.06-2.85,9.19-4.13,14.12-3.53,1.1.13,2.23.38,3.09,1.06.93.73,1.44,1.86,1.81,2.97,2.3,6.85.71,14.33-1,21.35,13.58-13.46,32.27-21.63,51.38-22.46"/>
    <path class="cls-6" d="M346.93,333.95c4.85-9.07,3.51-20.37-.55-29.83-9.19-21.42-32.35-36.01-55.64-35.04"/>
    <path class="cls-6" d="M329.33,256.32c-1.21,6.49.45,13.47,4.45,18.72,1.6,2.1,3.59,3.96,5.99,5.09,4.73,2.22,10.48,1.25,15.01-1.34,4.53-2.59,8.06-6.62,11.28-10.72"/>
    <path class="cls-6" d="M472.16,325.34c11.58-9.48,24.38-19.19,39.32-19.96,1.61-.08,3.31-.04,4.71.75,1.28.72,2.17,1.98,2.81,3.31,4.09,8.47-.93,18.32-5.81,26.36,14.46-7.58,30.74-11.65,47.06-11.76"/>
    <path class="cls-8" d="M592.56,244.13c-5.1,1.23-9.19,5.28-11.48,10-2.29,4.72-2.98,10.05-3.12,15.29-.18,6.46.56,13.3,4.4,18.5,3.83,5.2,13.42,9.11,18.86,5.63-.36-.09-.84-2.3-1.19-2.39"/>
    <path class="cls-8" d="M622.35,272.83c-1.73,6.83-2.79,13.83-3.15,20.87-.38,7.45.14,15.35,4.21,21.61,2.06,3.17,5.43,5.94,9.2,5.68,2.85-.19,5.37-2.11,6.97-4.48,1.6-2.37,2.42-5.17,3.18-7.93,1.47-5.37,2.76-11,1.69-16.46"/>
    <path class="cls-8" d="M584.98,319.65c2.51-3.39,5.33-6.6,8.76-9.06,3.43-2.46,7.5-4.14,11.72-4.24-6.81-3.49-15.56-3.28-21.5,1.54"/>
    <path class="cls-8" d="M441.43,337.73c-8.83,12.56-16.47,29.41-17.88,44.9-.59,6.5.67,13.43,4.8,18.48,3.6,4.39,9.01,6.94,14.49,8.4,30.88,8.19,65.26-12.57,85.96-33.95"/>
    <path class="cls-8" d="M355.57,458.45c11.27-11.64,27.53-17.05,43.52-19.7,6.88-1.14,14.1-1.82,20.68.49s12.29,8.38,12.11,15.35c-.1,4.15-2.2,7.97-4.34,11.53-12.68,21.08-29.07,39.92-48.18,55.41"/>
    <path class="cls-8" d="M298.17,363.57c-7.99,10.36-16.03,20.81-21.88,32.51-5.85,11.7-9.45,24.88-7.96,37.88.74,6.5,3.25,13.48,9.03,16.54,6.26,3.31,14.05.85,20.05-2.92,10.98-6.9,18.91-17.66,25.94-28.56,13.42-20.77,24.6-42.98,33.29-66.13"/>
    <path class="cls-8" d="M539.75,389.92c-3.63,11.8-7.04,23.91-6.65,36.24.39,12.34,5.14,25.11,15.08,32.43,9.94,7.32,25.49,7.36,33.68-1.88"/>
    <path class="cls-8" d="M641.89,375.22c1.67,16.15-3.33,32.9-13.58,45.49"/>
  </g>
  <g>
    <g>
      <g>
        <path class="cls-20" d="M682.67,777.07c0-80.13,52.23-145.32,116.43-145.32s116.43,65.19,116.43,145.32-52.23,145.32-116.43,145.32-116.43-65.19-116.43-145.32ZM694.32,777.07c0,73.7,47,133.67,104.78,133.67s104.78-59.96,104.78-133.67-47-133.67-104.78-133.67-104.78,59.96-104.78,133.67Z"/>
        <path class="cls-33" d="M686.9,777.07c0-71.03,46.21-128.82,103.01-128.82s103.01,57.79,103.01,128.82-46.21,128.82-103.01,128.82-103.01-57.79-103.01-128.82ZM695.23,777.07c0,66.44,42.47,120.5,94.68,120.5s94.68-54.06,94.68-120.5-42.47-120.5-94.68-120.5-94.68,54.06-94.68,120.5Z"/>
      </g>
      <g>
        <path class="cls-33" d="M777.18,777.07c0,11.63,7.48,21.06,16.7,21.06s16.7-9.43,16.7-21.06-7.48-21.06-16.7-21.06-16.7,9.43-16.7,21.06Z"/>
        <ellipse class="cls-32" cx="788.53" cy="777.07" rx="16.7" ry="21.06"/>
      </g>
      <rect class="cls-33" x="637.31" y="772.91" width="151.22" height="8.32"/>
      <g>
        <ellipse class="cls-33" cx="963.68" cy="898.98" rx="21.72" ry="27.4"/>
        <path class="cls-32" d="M934.99,898.98c0,15.13,9.73,27.4,21.72,27.4s21.72-12.27,21.72-27.4-9.73-27.4-21.72-27.4-21.72,12.27-21.72,27.4Z"/>
      </g>
      <g>
        <rect class="cls-29" x="787.96" y="584.06" width="172.05" height="66.43" transform="translate(1747.96 1234.55) rotate(180)"/>
        <path class="cls-33" d="M815.84,810.28h144.16v-8.32h-144.16c-13.04,0-23.65-10.61-23.65-23.65v-360.93c0-17.63-14.34-31.97-31.97-31.97h-19.43v8.32h19.43c13.04,0,23.65,10.61,23.65,23.65v360.93c0,17.63,14.34,31.97,31.97,31.97Z"/>
        <path class="cls-33" d="M955.84,871.58h8.32v-290.94c0-15.87-12.91-28.78-28.78-28.78h-147.35v8.32h147.35c11.28,0,20.46,9.18,20.46,20.46v290.94Z"/>
        <rect class="cls-20" x="715.02" y="381" width="51.56" height="16.55" transform="translate(1481.59 778.55) rotate(180)"/>
      </g>
      <rect class="cls-20" x="637.3" y="436.21" width="146.99" height="201.36" transform="translate(1421.6 1073.79) rotate(180)"/>
    </g>
    <g>
      <g>
        <g>
          <g>
            <path class="cls-15" d="M1040.91,888.03c-4.76,1.59-144.64.69-149.81-2.64-.62-.36-.81-13.01-.78-30.33v-.34c-.02-10.97-3.13-104.72-3.13-104.72l87.54-.48,5.2,92.32s18.87,7.93,35.3,15.81c.02.02.04.02.04.04,10.14,4.83,18.94,9.23,20.96,10.85,5.25,4.23,9.42,17.94,4.66,19.49Z"/>
            <path class="cls-30" d="M1040.91,888.03c-4.76,1.59-144.64.7-149.82-2.65-.62-.35-.8-13.01-.78-30.31v-.34c0-.76,0-1.54-.03-2.32,0-.56,0-1.12-.03-1.68,0-.82-.03-1.66-.06-2.5-.16-7.29-.5-19.12-.9-32.09l89.18-.33,1.46,26.04s18.87,7.94,35.3,15.81c.02.02.04.02.04.04,10.13,4.83,18.94,9.24,20.95,10.85,5.25,4.24,9.44,17.94,4.67,19.49Z"/>
            <g>
              <path class="cls-27" d="M1041.49,888.56c-4.91,1.59-144.96.35-150.27-3.07-2.02-1.29-3.93-22.9-1.8-46.76l90.29.91s51.67,24.46,57.09,28.84c5.39,4.38,9.6,18.49,4.69,20.08Z"/>
              <g>
                <path class="cls-20" d="M1039.53,882.94c-23.47-.78-118.21-1.73-141.48-.73-.19,0-.19.14,0,.15,23.25,1.29,118,1.47,141.48.96.49-.01.5-.37,0-.38Z"/>
                <path class="cls-20" d="M987.05,842.06c-9.4-.21-20.32,3.01-26.23,10.64-.23.3.19.62.47.48,8.53-4.3,16.64-7.49,25.9-9.96.65-.17.52-1.14-.15-1.16Z"/>
                <path class="cls-20" d="M994.28,844.95c-9.4-.21-20.32,3.01-26.23,10.64-.23.3.2.62.48.48,8.53-4.3,16.64-7.49,25.9-9.96.65-.17.52-1.14-.15-1.16Z"/>
                <path class="cls-20" d="M1001.51,847.84c-9.4-.21-20.32,3.01-26.23,10.64-.23.3.2.62.48.48,8.53-4.3,16.64-7.49,25.9-9.96.65-.17.52-1.14-.15-1.16Z"/>
                <path class="cls-20" d="M1008.74,850.73c-9.4-.21-20.32,3.01-26.23,10.64-.23.3.19.62.48.48,8.53-4.3,16.64-7.5,25.9-9.96.65-.17.52-1.14-.15-1.16Z"/>
              </g>
              <path class="cls-39" d="M891.21,885.49c2.88,1.86,45.43,3.06,84.55,3.52l-42.22-49.84-44.13-.43c-2.12,23.86-.22,45.46,1.8,46.75Z"/>
            </g>
          </g>
          <g>
            <path class="cls-38" d="M698.19,483.32l69.73,1.33,13.87,34.67s131.34,17.58,162.59,59.52c35.89,48.17,45.14,258.43,45.14,258.43l-103.41-1.98s-12.78-186.07-23.29-200.4c-10.51-14.33-157.96-28.41-186.39-50.45-28.43-22.04-6.9-101.66-6.9-101.66l28.66.55Z"/>
            <g>
              <path class="cls-20" d="M887.38,816.36c3.11-.4,6.25-.39,9.38-.47,3.1-.08,6.19-.1,9.29-.16,6.35-.11,12.7-.04,19.05,0,12.7.06,25.39.16,38.08.46,3.56.08,7.12.12,10.68.27,3.55.15,7.15.2,10.67.67.14.02.21.27.03.29-6.14.74-12.45.58-18.63.65-6.35.07-12.7.12-19.05.12-12.7,0-25.39-.11-38.09-.29-3.56-.05-7.12-.19-10.68-.3-3.55-.11-7.15-.12-10.67-.62-.31-.04-.46-.57-.07-.62Z"/>
              <path class="cls-20" d="M682.42,570.85c21.71,9.4,44.84,15.11,68.03,19.47,23.34,4.39,46.9,7.37,70.37,10.92,11.78,1.78,23.78,3.33,35.19,6.86,4.95,1.53,10.17,3.33,14.17,6.74,4.11,3.5,5.88,8.5,6.92,13.65,2.49,12.2,4.24,24.6,6.11,36.9,1.91,12.53,3.61,25.09,5.25,37.65,3.29,25.3,6.04,50.67,8.8,76.03.33,3.06.62,6.12.92,9.18.03.32-.45.44-.5.11-3.25-24.96-6.11-49.98-9.39-74.94-3.28-24.97-6.84-49.91-11.03-74.74-.93-5.51-1.44-11.48-3.69-16.65-2.24-5.15-6.66-8.19-11.7-10.28-11.02-4.56-23.06-6.29-34.76-8.15-23.13-3.69-46.38-6.6-69.42-10.84-23.01-4.23-45.62-9.92-67.46-18.4-2.66-1.03-5.3-2.11-7.92-3.24-.17-.07-.08-.35.09-.28Z"/>
            </g>
          </g>
        </g>
        <g>
          <g>
            <path class="cls-15" d="M965.61,889.29c-4.76,1.59-144.64.69-149.81-2.64-.62-.36-.81-13.01-.78-30.33v-.34c-.02-10.97-3.13-104.72-3.13-104.72l87.55-.48,5.2,92.32s18.87,7.93,35.3,15.81c.02.02.04.02.04.04,10.14,4.83,18.94,9.23,20.96,10.85,5.25,4.23,9.42,17.94,4.66,19.49Z"/>
            <path class="cls-30" d="M965.62,889.28c-4.76,1.59-144.64.7-149.82-2.65-.62-.35-.8-13.01-.78-30.31v-.34c0-.76,0-1.54-.03-2.32,0-.56,0-1.12-.03-1.68,0-.82-.03-1.66-.06-2.5-.16-7.29-.5-19.12-.9-32.09l89.18-.33,1.46,26.04s18.87,7.94,35.3,15.81c.02.02.04.02.04.04,10.13,4.83,18.94,9.24,20.95,10.85,5.25,4.24,9.44,17.94,4.67,19.49Z"/>
            <g>
              <path class="cls-27" d="M966.19,889.82c-4.91,1.59-144.96.35-150.27-3.07-2.02-1.29-3.93-22.9-1.8-46.76l90.29.91s51.67,24.46,57.09,28.84c5.39,4.38,9.6,18.49,4.69,20.08Z"/>
              <g>
                <path class="cls-20" d="M964.23,884.2c-23.47-.78-118.21-1.73-141.48-.73-.19,0-.19.14,0,.15,23.25,1.29,118,1.47,141.48.96.5-.01.5-.37,0-.38Z"/>
                <path class="cls-20" d="M911.76,843.31c-9.4-.21-20.32,3.01-26.23,10.64-.23.3.19.62.48.48,8.53-4.3,16.64-7.49,25.9-9.96.65-.17.52-1.14-.15-1.16Z"/>
                <path class="cls-20" d="M918.98,846.2c-9.4-.21-20.32,3.01-26.23,10.64-.23.3.2.62.48.48,8.53-4.3,16.64-7.49,25.9-9.96.65-.17.52-1.14-.15-1.16Z"/>
                <path class="cls-20" d="M926.21,849.1c-9.4-.21-20.32,3.01-26.23,10.64-.23.3.19.62.48.48,8.53-4.3,16.64-7.49,25.9-9.96.65-.17.52-1.14-.15-1.16Z"/>
                <path class="cls-20" d="M933.44,851.99c-9.4-.21-20.32,3.01-26.23,10.64-.23.3.19.62.48.48,8.53-4.3,16.64-7.5,25.9-9.96.65-.17.52-1.14-.15-1.16Z"/>
              </g>
            </g>
          </g>
          <g>
            <path class="cls-38" d="M910.65,838.44l-100.98-.32s11.58-198.22-7.3-212.02c-16.42-12-100.03-14.97-141.54-44.97-33.72-24.36-3.87-101.43-3.87-101.43l90.67,1.73s12.22,28.32,14.27,36.89c0,0,98.41,26.89,125.8,61.61,30.71,38.92,22.94,258.52,22.94,258.52Z"/>
            <g>
              <path class="cls-20" d="M812.04,820.86c3.05-.4,6.14-.4,9.22-.48,3.04-.08,6.09-.11,9.13-.17,6.24-.12,12.48-.05,18.72-.03,12.48.05,24.96.13,37.44.42,3.5.08,7,.11,10.5.26,3.49.15,7.03.19,10.49.66.14.02.21.27.03.29-6.03.75-12.24.6-18.31.67-6.24.08-12.48.14-18.72.14-12.48,0-24.96-.09-37.44-.25-3.5-.05-7-.18-10.5-.29-3.49-.11-7.03-.12-10.49-.61-.31-.04-.45-.57-.07-.62Z"/>
              <path class="cls-20" d="M762.08,516.68c25.69,8.21,50.82,18.42,75.41,29.47,11.08,4.98,22.38,9.89,32.51,16.65,9.38,6.27,17.21,14.41,22.55,24.39,5.32,9.92,8.25,20.95,10.17,31.98,2.12,12.13,3.18,24.45,4.33,36.69,2.58,27.57,4.34,55.22,4.97,82.91.63,27.79.2,55.55-1.13,83.31-.17,3.5-.43,6.99-.61,10.48-.01.24-.39.23-.38-.02,1.03-27.34.84-54.8.15-82.14-.69-27.36-2.11-54.73-4.39-82.01-1.09-13.06-2.25-26.15-3.97-39.15-1.46-11.05-3.5-22.19-7.61-32.6-4.15-10.51-10.48-19.84-19.3-26.98-9.07-7.34-19.66-12.51-30.21-17.34-24.18-11.08-48.89-20.98-73.97-29.85-3.11-1.1-6.23-2.19-9.34-3.3-1.58-.56-.81-3,.8-2.49Z"/>
              <path class="cls-20" d="M662.13,496.04c.9-3.55,1.92-7.05,3.1-10.51.12-.37.68-.19.57.18-4.04,14.27-6.89,28.75-7.64,43.59-.36,7.06-.55,14.35.79,21.32,1.23,6.36,4.51,13.45,8.98,18.13,8.93,9.33,21.41,15.39,33.48,19.21,13.78,4.36,28.02,7.07,42.08,10.34,14.61,3.4,61.09,15.58,64.19,16.9,2.51,1.07,4.55,2.73,5.75,5.22,1.37,2.86,1.99,6.14,2.74,9.2,6.89,28.26,7.53,55.12,7.66,84.06.14,30.58-.4,61.13-1.76,91.68-.17,3.7-.33,7.39-.45,11.09,0,.24-.38.23-.38-.02.45-15.33.43-30.7.47-46.04.04-15.34.16-30.69.15-46.03,0-29.33.1-56.61-5.52-85.52-.71-3.67-3.74-17.62-5.98-19.95-2.36-2.45-49.33-14.44-64.05-17.85-14.03-3.25-28.25-5.93-42.09-9.97-12.15-3.54-25.4-9.46-35.17-17.76-4.4-3.74-7.56-9.41-9.77-14.78-2.57-6.23-2.99-13.03-2.87-19.69.27-14.41,2.18-28.83,5.72-42.8Z"/>
              <path class="cls-20" d="M668.38,515.74c6.76-2.23,14.9-3.16,20.35-8.19,2.5-2.31,4.05-5.51,4.96-8.74.54-1.91.86-3.88,1.11-5.84.27-2.05.7-4.22.74-6.29,0-.24.37-.22.38.02.02,2.3.46,4.59.44,6.92-.02,2.05-.24,4.1-.67,6.1-.77,3.6-2.36,7.03-4.95,9.69-2.63,2.69-6.23,3.99-9.8,4.89-4.09,1.02-8.3,1.92-12.51,2.14-.42.02-.41-.57-.06-.69Z"/>
            </g>
          </g>
        </g>
      </g>
      <g>
        <g>
          <g>
            <path class="cls-16" d="M762.9,387.33c21.95,39.18,68.47,88.77,86.17,87.73,8.42-.49,23.59.44,33.94-10.02,22.58-22.83,36.01-56.32,44.32-72.78,3.77-7.47-42.41-38.5-47.83-31.39-12.7,16.66-26.56,48.56-29.02,48.55-9.1-.04-46.18-27.59-72.81-45.96-29.84-20.59-23.51,8.25-14.76,23.86Z"/>
            <g>
              <g>
                <path class="cls-16" d="M924.07,395.77c4.78-4.63,24.8-27.77,28.93-35.46,4.13-7.69,14.42-30.67,8.85-34.43-5.57-3.76-9.11,2.73-9.11,2.73,0,0,2.81-10.39-3.14-13.67-5.95-3.28-11.14,7-11.14,7,0,0,2.1-10.88-4.06-13.73-6.17-2.84-9.65,8.36-9.65,8.36,0,0,2.39-9.86-3.68-10.07-7.3-.25-9.64,18.43-14.84,26.57-1.18,1.85-26.59,35.78-26.59,35.78l44.44,26.91Z"/>
                <g>
                  <path class="cls-20" d="M925.06,315.62c-1.76,13.73-4.9,19.43-13.58,29.94-.17.2.1.5.29.31,9.44-9.51,14.41-16.1,13.96-30.19-.02-.69-.59-.7-.67-.05Z"/>
                  <path class="cls-20" d="M938.58,320.84c-3.07,14.1-6.43,20.32-14.71,31.99-.12.17.15.38.28.22,9.08-10.77,13.9-17.45,15.11-31.95.06-.66-.55-.91-.69-.27Z"/>
                  <path class="cls-20" d="M952.3,329.19c-3.96,13.44-7.35,20.41-16.84,30.71-.22.24.11.59.36.37,10.7-9.56,14.99-18.23,16.88-30.92.13-.87-.15-1.01-.4-.16Z"/>
                </g>
              </g>
              <g>
                <path class="cls-16" d="M873.85,375.01s.67-17.33,2.64-24.88c1.97-7.55,19.69-32.98,25.39-29.46,7.37,4.54.04,21.23-4.62,28.94,0,0,17.06,10.48,14.39,23.6-2.67,13.12-37.81,1.81-37.81,1.81Z"/>
                <path class="cls-20" d="M903.51,322.58c3.74,8.99-3.03,18.71-6.99,26.52-.3.59.07,1.05.57,1.19,6.86,4.87,15.11,13.73,15.03,22.61,0,.26.37.3.4.04,1.38-9.51-6.02-18.88-13.87-23.73,4.19-7.95,10.55-18,4.95-26.66-.03-.05-.11-.02-.08.04Z"/>
              </g>
            </g>
          </g>
          <g>
            <path class="cls-27" d="M869.12,374.15l52.26,40.05s-27.56,50.68-47.97,58.08c-20.41,7.4-26.84,5.21-32.56,4.1-5.72-1.11-48.62-35.09-77.31-87.39-27.11-49.41,4.47-34.58,27.93-17.41,13.37,9.78,56.09,35.2,57.74,34.64,1.65-.56,19.92-32.06,19.92-32.06Z"/>
            <path class="cls-13" d="M801.42,378.29c-2.07.85-4.13,1.83-6,3.26,2.66-.14,5.09-.87,7.51-1.71.18-.06.34-.14.52-.2-.68-.46-1.37-.91-2.03-1.35ZM879.55,403.08c-2.38.93-4.69,1.97-6.81,3.58,2.66-.16,5.09-.87,7.51-1.73,2.36-.91,4.67-1.95,6.81-3.58-2.66.16-5.11.87-7.51,1.73ZM839.11,472.51c-1.03.4-2.05.83-3.04,1.29.68.46,1.29.85,1.85,1.19.62-.2,1.25-.4,1.87-.62,2.36-.93,4.69-1.97,6.81-3.58-2.66.14-5.11.87-7.49,1.73ZM873.67,443.65c-.93-2.36-1.97-4.67-3.58-6.79.14,2.64.87,5.09,1.71,7.51.93,2.36,1.97,4.67,3.6,6.79-.16-2.64-.89-5.09-1.73-7.51ZM770.07,358.46c-.75-.34-1.49-.66-2.22-.97.77,1.73,1.65,3.42,2.86,4.99-.08-1.39-.32-2.72-.64-4.03ZM835.75,424.79c-2.32-1.03-4.71-1.93-7.35-2.3,1.99,1.79,4.23,3.02,6.52,4.11,2.34,1.03,4.71,1.91,7.35,2.26-1.99-1.75-4.23-2.98-6.52-4.07ZM907.44,428.46c-1.03,2.32-1.91,4.69-2.28,7.33,1.77-1.97,3-4.21,4.09-6.5,1.03-2.34,1.93-4.73,2.28-7.37-1.75,1.99-2.98,4.23-4.09,6.54Z"/>
            <path class="cls-20" d="M865.15,386.01c8.16,6.02,16.13,12.29,24.06,18.61,3.89,3.1,18.84,16.03,23.15,19.67.17.14-.22.61-.41.48-4.23-3.07-20.02-15.69-23.85-18.85-7.81-6.45-15.57-12.95-23.13-19.69-.13-.12.04-.32.18-.21Z"/>
            <path class="cls-39" d="M831.41,470.4c-15.55-12.01-45.87-41.34-67.88-81.42-14.42-26.3-12.21-34.39-3.45-33.64,7.61,12.01,48.9,78.74,71.33,115.06Z"/>
          </g>
        </g>
        <g>
          <path class="cls-27" d="M781.79,519.32s-134.52-5.53-135.06-6.46c-1.46-2.52,35.23-120.57,91-156.69,9.83-6.37,24.61-1.7,30.98,3.43,3.19,2.56,12.31,21.88,13.4,37.57,1.08,15.67-.32,122.15-.32,122.15Z"/>
          <path class="cls-13" d="M763.96,405.56c-1.05,2.32-1.93,4.71-2.28,7.35,1.75-1.99,2.98-4.23,4.07-6.52,1.03-2.34,1.93-4.71,2.3-7.35-1.77,1.99-3,4.23-4.09,6.52ZM688.07,445.51c-1.03,2.32-1.93,4.73-2.3,7.37,1.79-2.01,3.02-4.25,4.11-6.54,1.03-2.32,1.91-4.71,2.28-7.35-1.77,1.99-3,4.23-4.09,6.52ZM741.95,507.29c-1.03,2.34-1.93,4.71-2.28,7.35,1.77-1.97,3-4.21,4.09-6.52,1.03-2.34,1.91-4.71,2.28-7.35-1.77,1.97-3,4.23-4.09,6.52ZM721.37,369.49v.02c-.3,1.01-.54,2.05-.68,3.14,1.69-1.89,2.9-4.03,3.95-6.22-1.11.97-2.19,1.99-3.26,3.06ZM685.41,511.96c-2.34-1.03-4.71-1.93-7.35-2.3,1.97,1.79,4.23,3,6.52,4.11,1.25.54,2.52,1.07,3.85,1.47h.04c.89.06,1.77.1,2.68.14-1.79-1.43-3.75-2.48-5.74-3.42ZM742.88,445.35c-2.32-1.03-4.71-1.91-7.35-2.28,1.99,1.77,4.23,3,6.52,4.09,2.34,1.03,4.73,1.93,7.37,2.28-2.01-1.75-4.25-2.98-6.54-4.09ZM770.67,362.08v-.02c-.62-.97-1.17-1.71-1.63-2.17.46.89,1.03,1.75,1.67,2.6,0-.14-.02-.26-.04-.4ZM711.33,477.61c-.93-2.38-1.97-4.71-3.58-6.83.14,2.66.87,5.09,1.71,7.51.93,2.36,1.97,4.69,3.58,6.81-.14-2.66-.87-5.09-1.71-7.49ZM716.68,407.41c-2.36.93-4.67,1.97-6.79,3.58,2.64-.16,5.09-.89,7.51-1.71,2.36-.93,4.67-1.99,6.79-3.6-2.64.16-5.09.89-7.51,1.73ZM770.37,475.17c-2.4.91-4.71,1.95-6.83,3.56,2.66-.14,5.11-.87,7.51-1.71,2.38-.93,4.69-1.95,6.81-3.58-2.66.14-5.11.87-7.49,1.73ZM659.39,479.66c-.93.36-1.83.75-2.72,1.17-.26.64-.5,1.27-.72,1.91,1.41-.3,2.78-.72,4.13-1.21,2.4-.93,4.71-1.97,6.83-3.6-2.66.16-5.11.89-7.51,1.73Z"/>
        </g>
        <g>
          <g>
            <path class="cls-16" d="M721.31,371.86c-21.2,23.96-71.89,114.06-54.63,129.79,17.39,15.84,110.11-8.53,136.02-21.73,7.71-3.93-23.25-51.81-32.46-52.7-7.66-.74-46.24,18.16-47.43,15.94-1.34-2.5,4.36-21.41,12.85-55.59,9.79-39.41-4.99-26.3-14.35-15.71Z"/>
            <g>
              <g>
                <path class="cls-16" d="M808.61,410.48c18.9-3.15,24.24-1.05,38.78-12.18,9.54-7.3,18.3-4.34,13.05,7-8.59,18.55-32.13,27.73-41.2,28.56l-10.63-23.38Z"/>
                <path class="cls-16" d="M758.7,430.09s21-12.41,40.81-17.75c13.7-3.7,44.4-8.42,74.69,21.19,7.18,7.02,12.44,22.13-3.46,14.92-11.29-5.12-16.91-11.78-24.02-13.56,0,0,4.4,20-2.91,26.92-3.27,3.09-12.39,11.33-20.41,16.72,0,0-1.64-1.43-3.47-3.54,0,0-7.45,5.82-21.78,4.84l-39.45-49.74Z"/>
                <g>
                  <path class="cls-16" d="M813.15,410.89c6.68,3.26,20.73,10.41,30.19,20.26,10.51,10.94,27.8,34.84,19.64,42.51-5.98,5.63-13.38-2.92-13.38-2.92,0,0,5.06,11.39-1.45,15.29-5.93,3.55-11.27-3.4-11.27-3.4,0,0,1.88,7.44-4.49,9.76-7.67,2.79-10.36-13.25-20.57-17.13-2.29-.87,1.33-64.37,1.33-64.37Z"/>
                  <g>
                    <path class="cls-20" d="M829.94,440.33c5.78,4.1,16.53,16.78,19.76,30.12.07.3-.12.52-.24.26-6.68-13.93-15.56-25.57-19.63-30.28-.05-.06.04-.14.1-.1Z"/>
                    <path class="cls-20" d="M819.2,451.25c4.63,4.05,15.12,17.61,17.93,31.24.06.3-.14.51-.26.24-6.38-14.85-14.01-26.45-17.78-31.39-.05-.07.05-.14.11-.09Z"/>
                  </g>
                </g>
              </g>
              <path class="cls-20" d="M846.72,434.75c6.23,1.66,10.33,4.58,15.65,8.07,2.63,1.72,5.29,3.41,8.1,4.83,2.56,1.3,6.32,3.26,8.95,1.05,1.46-1.23,1.38-3.39,1-5.08-.42-1.9-2.41-5.39-3.59-6.94-.06-.08.08-.19.14-.11,1.08,1.39,3.23,4.53,3.88,6.17.59,1.48,1.07,3.21.69,4.81-.82,3.43-4.83,3.99-7.7,3.13-1.72-.52-3.35-1.38-4.93-2.23-1.52-.82-3-1.71-4.46-2.64-2.99-1.91-5.87-3.99-8.84-5.93-3.26-2.13-5.5-3.16-8.98-4.92-.12-.06-.04-.24.09-.21Z"/>
              <path class="cls-20" d="M860.25,456.16c-1.69-3.48-10.75-17.94-13.65-21.26-.07-.08.04-.2.12-.12,4.94,4.44,13.01,16.37,14.92,20.21,1.89,3.79,4.07,8.65,4.19,12.93.17,6.46-4.08,7.8-5.66,8.16-1.88.43-3.8.08-5.52-.75-1.92-.93-3.8-2.91-5.11-4.55-.07-.09.05-.21.12-.12,2.31,2.48,6.09,4.9,9.59,4.34,1.52-.24,3.04-.98,3.94-2.26,1.05-1.51,1.09-3.47.89-5.23-.44-3.99-2.1-7.76-3.84-11.33Z"/>
            </g>
          </g>
          <g>
            <path class="cls-27" d="M758.7,430.09l31.58,62.11s-116.26,29.39-126.9,9.29c-10.64-20.09,32.67-100.99,52.52-124.74,23.01-27.53,26.28-18.46,21.69,5.52-4.81,25.1-14.41,61.48-14.41,61.48l35.53-13.66Z"/>
            <path class="cls-13" d="M663.94,478.35h-.02c-.14.56-.28,1.13-.4,1.69,1.17-.6,2.3-1.29,3.38-2.11-1.01.06-1.99.2-2.96.42ZM770.37,475.17c-2.4.91-4.71,1.95-6.83,3.56,2.66-.14,5.11-.87,7.51-1.71,2.38-.93,4.69-1.95,6.81-3.58-2.66.14-5.11.87-7.49,1.73ZM716.68,407.41c-2.36.93-4.67,1.97-6.79,3.58,2.64-.16,5.09-.89,7.51-1.71,2.36-.93,4.67-1.99,6.79-3.6-2.64.16-5.09.89-7.51,1.73ZM711.33,477.61c-.93-2.38-1.97-4.71-3.58-6.83.14,2.66.87,5.09,1.71,7.51.93,2.36,1.97,4.69,3.58,6.81-.14-2.66-.87-5.09-1.71-7.49ZM742.88,445.35c-2.32-1.03-4.71-1.91-7.35-2.28,1.99,1.77,4.23,3,6.52,4.09,2.34,1.03,4.73,1.93,7.37,2.28-2.01-1.75-4.25-2.98-6.54-4.09ZM721.01,370.88v.02c-.12.58-.24,1.15-.32,1.75,1.35-1.49,2.38-3.16,3.28-4.87-.95.93-1.93,1.97-2.96,3.1ZM745.08,501.93c.28-.06.54-.1.81-.14.06-.34.12-.68.16-1.03-.34.38-.66.77-.97,1.17ZM688.07,445.51c-1.03,2.32-1.93,4.73-2.3,7.37,1.79-2.01,3.02-4.25,4.11-6.54,1.03-2.32,1.91-4.71,2.28-7.35-1.77,1.99-3,4.23-4.09,6.52Z"/>
            <g>
              <path class="cls-20" d="M688.07,461.44c5.3-3.93,10.98-7.35,16.79-10.47,5.75-3.09,11.81-5.55,17.95-7.76,3.51-1.26,7.06-2.35,10.61-3.47.11-.03.16.13.05.17-6.19,2.12-12.23,4.8-18.14,7.62-5.88,2.81-11.7,5.72-17.47,8.75-3.27,1.71-6.45,3.58-9.66,5.4-.15.09-.27-.13-.14-.23Z"/>
              <path class="cls-20" d="M758.38,429.91c-.58.17-32.29,11.58-33.32,12.1.12-.49,5.41-17.65,6.2-20.16.08-.25.15-.5.22-.75.55-1.13,1.11-2.25,1.62-3.4.65-1.47,1.29-2.95,1.94-4.42.02-.05-.05-.08-.07-.04-.71,1.44-1.42,2.88-2.12,4.33-.32.67-.63,1.35-.93,2.03.52-1.77,1.01-3.55,1.5-5.34.79-2.85,1.48-5.71,2.17-8.58.02-.09-.12-.12-.14-.03-1.57,5.01-3.29,9.96-4.87,14.96-1.58,4.99-7.68,23.43-7.62,23.42.06.05,34.9-13.37,35.57-13.67.26-.12.14-.52-.14-.43Z"/>
              <path class="cls-20" d="M761.63,470.89c-3.48-6.93-6.9-13.9-10.64-20.7-2.12-3.87-4.23-7.75-6.38-11.59-.08-.15-.34-.03-.27.13,3.22,7.1,6.46,14.21,10,21.16,3.52,6.91,6.99,13.86,10.6,20.73,2.05,3.91,4.22,7.74,6.51,11.51.05.07.18.02.14-.07-2.98-7.21-6.45-14.18-9.95-21.16Z"/>
              <path class="cls-20" d="M787.73,486.63c-.34-.49-.73-.38-.45.14.94,1.73,1.73,3.69,2.66,5.47-1.63.37-3.27.71-4.91,1.09-1.89.45-3.77.9-5.66,1.35-3.69.86-7.4,1.69-11.11,2.48-7.52,1.6-15.07,3.04-22.65,4.31-15.19,2.56-30.52,4.57-45.89,5.54-4.3.27-8.61.46-12.92.52-4.05.05-14.2-.71-17.05-1.93-3.55-1.52-6.11-4.16-7.21-7.93-1.13-3.87-.55-7.93.42-11.77,1.02-4.04,2.32-8.02,3.58-11.99,4.98-15.65,11.18-30.86,18.37-45.62,4.05-8.3,8.36-16.48,12.91-24.51.1-.17-.16-.31-.27-.15-3.27,5.05-6.34,10.22-9.24,15.47.55-1.76,1.14-3.51,1.82-5.22.05-.12-.13-.23-.19-.1-.88,2.11-1.62,4.27-2.27,6.46-5.2,9.51-9.83,19.33-13.98,29.36-3.27,7.92-6.24,15.96-8.89,24.11-1.36,4.17-2.73,8.39-3.72,12.66-.88,3.8-1.27,7.8-.19,11.6,1.15,4.05,3.91,7.18,7.81,8.71,5.03,1.97,18.95,2.3,28.17,1.84,7.77-.38,15.53-1.01,23.25-1.92,15.31-1.82,30.55-4.3,45.66-7.39,4.23-.86,8.46-1.78,12.67-2.74,2.13-.49,4.25-.97,6.37-1.5,2.12-.53,7.2-1.51,6.99-1.84-1.22-1.91-2.78-4.66-4.08-6.51Z"/>
            </g>
          </g>
        </g>
        <g>
          <g>
            <g>
              <path class="cls-16" d="M764.98,380.34c-7.58.75-18.69-12.17-22.45-21.94-.25-.67,5.68-25.28,6.35-30.27.13-1.03,30.33,11.82,30.33,11.82,0,0-4.49,10.06-5.6,18.78-.09.73-1.3,20.87-8.63,21.61Z"/>
              <path class="cls-20" d="M773.52,359.75c-.04.39-.07.85-.12,1.39-.97.02-1.98-.07-3.09-.24-17-2.69-19.94-24.39-20.44-32.67.02,0,.04,0,.07.03.17.04.38.1.58.18.38.12.79.26,1.28.42.21.08.45.16.69.25.3.11.62.24.96.35.15.05.32.13.51.19.34.11.69.25,1.07.4,1.12.43,2.32.9,3.59,1.4.11.05.24.08.36.13.32.13.62.24.93.39,2.54,1,5.27,2.12,7.84,3.18.26.1.54.21.8.34,1.34.55,2.65,1.09,3.86,1.6.32.13.65.26.95.39.19.08.35.15.54.23.19.08.37.16.54.23.5.21.97.41,1.4.59.26.1.52.21.75.31.19.08.35.15.52.23.19.06.36.13.5.21,1.01.42,1.6.67,1.6.67,0,0-4.5,10.06-5.61,18.78l-.07.69c0,.08-.02.15,0,.21v.12Z"/>
            </g>
            <g>
              <path class="cls-16" d="M746.79,295.52c-3.79,11.1,1.07,43.67,8.8,51.15,11.21,10.85,30.1,12.47,39.45-1.13,9.06-13.18,1.98-55.52-6.71-62.38-12.8-10.09-35.95-4.03-41.55,12.36Z"/>
              <g>
                <g>
                  <path class="cls-20" d="M778.31,316.18c-.03-.08-.16.13-.14.22.39,2.19.46,4.75-1.42,5.77-.06.03-.04.14.04.12,2.37-.69,2.24-4.1,1.53-6.11Z"/>
                  <path class="cls-20" d="M776.02,314.17c-3.57.24-2.83,7.36.48,7.14,3.26-.22,2.51-7.34-.48-7.14Z"/>
                </g>
                <g>
                  <path class="cls-20" d="M790.53,315.24c0-.09.18.09.19.18.16,2.21.72,4.72,2.79,5.25.06.02.07.13,0,.12-2.47-.09-3.18-3.43-2.97-5.55Z"/>
                  <path class="cls-20" d="M792.26,312.73c3.52-.64,4.54,6.45,1.28,7.04-3.21.58-4.23-6.5-1.28-7.04Z"/>
                </g>
                <path class="cls-20" d="M772.86,311.21c.94-.35,1.76-.82,2.66-1.26,1.01-.49,1.87-.78,2.46-1.8.32-.55.07-1.44-.43-1.8-1.17-.83-2.56-.54-3.8,0-1.35.59-2.24,1.39-2.91,2.7-.65,1.27.78,2.6,2.03,2.15Z"/>
                <path class="cls-20" d="M794.64,308.85c-1-.06-1.92-.28-2.91-.44-1.11-.18-2.02-.21-2.88-1.01-.46-.43-.48-1.36-.1-1.85.88-1.14,2.3-1.25,3.64-1.09,1.46.18,2.55.69,3.57,1.75.99,1.03,0,2.72-1.32,2.64Z"/>
                <path class="cls-20" d="M777.82,336.9c.58.46,1.18,1.12,1.99,1.1.77-.02,1.64-.46,2.31-.8.07-.03.15.03.11.1-.48.91-1.63,1.56-2.68,1.49-1.02-.07-1.6-.88-1.94-1.77-.05-.12.12-.19.2-.12Z"/>
                <path class="cls-20" d="M779.44,330.05c1.44,1.79,3.36,2.64,5.36,2.82.89.08,1.82.02,2.72-.16.18-.02.35-.06.51-.11.16-.04.3-.07.48-.12.25-.06.37-.29.39-.54v-.02c-.01-.08-.02-.14-.05-.22v-.02s-.03-.19-.03-.19c-.13-1.7-.57-4.27-.57-4.27.65.25,3.97,1.34,3.82.46-1.21-7.3-2.55-15.42-5.29-22.43-.08-.24-.44-.14-.4.1.88,7.06,3,13.92,4,21-1.05-.28-2.77-.82-3.66-.71-.23.09.93,4.94.93,5.71,0,0,0,.03,0,.08-2.82.66-5.06.03-8.03-1.6-.18-.11-.34.06-.19.22Z"/>
                <g>
                  <path class="cls-20" d="M786.43,331.96s-1.29,2.19-3.28,3.14c-.73.35-1.54.55-2.42.41-1.81-.28-2.02-1.89-1.84-3.31.14-1.17.57-2.2.57-2.2,0,0,2.82,2.14,6.98,1.96Z"/>
                  <path class="cls-21" d="M783.15,335.1c-.73.35-1.54.55-2.42.41-1.81-.28-2.02-1.89-1.84-3.31,1.91,0,3.91,1.08,4.26,2.9Z"/>
                </g>
              </g>
              <g>
                <path class="cls-20" d="M747.66,322.31c6.15-.73,4.68-15.78,4.68-15.78,0,0,9.32-2.24,13.18-15.43,0,0,12.56,6.9,22.62,4.47,15.76-3.82,14.13-24.49,7.93-28.36-8.79-5.49-23.34,4.09-23.34,4.09,0,0-23.15-5.02-29.03,10.78,0,0-10.13,1.03-10.18,12.29-.05,11.26,9.57,28.48,14.15,27.94Z"/>
                <path class="cls-20" d="M750.23,308.43c4.47-1.16,8.66-3.5,11.52-7.19,2.96-3.82,4.46-9.5,2.82-14.15-.09-.25.33-.38.4-.11,1.44,5.2,1.44,10.62-1.65,15.26-2.83,4.25-7.86,7.07-13.03,6.65-.25-.02-.33-.38-.06-.45Z"/>
                <path class="cls-20" d="M732.31,287.84c2.9-4.16,7.66-5.06,12.4-5.17.27,0,.27.43,0,.42-4.69-.26-9.2,3.12-11.41,7.07-2.16,3.88-1.35,8.55-.15,12.62,2.31,7.82,7.38,14.69,14.35,18.94.12.07.01.25-.1.18-7.89-4.39-13.9-11.92-16.08-20.72-1.06-4.29-1.69-9.52.98-13.36Z"/>
                <path class="cls-20" d="M772.14,272.09c1.96-3.39,4.69-5.92,8.36-7.21,4.22-1.49,9.19-1.2,13.3.58,3.48,1.51,5.57,4.86,6.03,8.63.53,4.3-1.25,8.48-3.49,12-.06.1-.22.01-.16-.09,1.78-3.31,3.09-7.02,2.63-10.87-.45-3.81-2.66-6.9-6.19-8.23-6.7-2.53-16.24-1.49-20.13,5.41-.13.23-.49.02-.36-.21Z"/>
              </g>
              <g>
                <path class="cls-18" d="M774.25,326.91c-4.24-.09-8.05-3.04-9.05-7.35-1.18-5.1,2.01-10.21,7.1-11.39,5.1-1.18,10.21,2,11.39,7.1h0c1.18,5.1-2,10.21-7.1,11.39-.79.18-1.57.26-2.35.24ZM774.63,309.19c-.67-.01-1.35.05-2.03.21-4.42,1.02-7.18,5.45-6.16,9.87,1.03,4.42,5.46,7.18,9.87,6.15,4.42-1.03,7.18-5.45,6.16-9.87-.87-3.74-4.17-6.29-7.84-6.37Z"/>
                <path class="cls-18" d="M795.93,324.72c-3.63-.08-6.85-3.87-7.32-8.8-.24-2.49.25-4.9,1.36-6.8,1.15-1.96,2.85-3.14,4.77-3.33,1.93-.19,3.81.65,5.31,2.36,1.46,1.65,2.39,3.93,2.63,6.42.5,5.21-2.25,9.75-6.13,10.13-.21.02-.42.03-.62.02ZM795.34,307.04c-.16,0-.32,0-.48.02-1.5.14-2.85,1.1-3.8,2.71-.98,1.67-1.41,3.81-1.19,6.03.43,4.51,3.36,7.94,6.56,7.63,3.18-.3,5.42-4.23,4.99-8.74-.21-2.22-1.04-4.25-2.32-5.7-1.1-1.24-2.42-1.93-3.76-1.95Z"/>
                <path class="cls-18" d="M783.49,316.39l-.91-.89c1.32-1.34,4.48-3.28,7.02-1.03l-.84.95c-2.28-2.02-5.15.85-5.28.97Z"/>
                <path class="cls-18" d="M741.61,322.86l-1.18-.47c.22-.55,2.23-5.39,5.01-6.12,2.6-.67,19.69-.71,20.41-.71v1.27c-4.9,0-18.09.14-20.09.67-1.83.48-3.62,4.03-4.16,5.36Z"/>
              </g>
              <g>
                <path class="cls-16" d="M752.85,322.14s-7.19-10.57-11.98-8.02c-4.79,2.55.53,17.81,6.08,19.95,5.55,2.15,7.64-2.95,7.64-2.95l-1.75-8.98Z"/>
                <path class="cls-20" d="M742.5,318.45c-.09,0-.11.12-.03.15,3.89,1.63,5.91,5.29,7.3,9.07-1.15-1.46-2.72-2.28-4.68-.92-.1.07,0,.23.1.21,1.61-.32,2.76-.03,3.83,1.27.76.92,1.26,2.07,1.8,3.13.18.35.81.17.68-.23,0-.03-.02-.06-.03-.09.16-4.99-3.63-12.02-8.98-12.59Z"/>
              </g>
            </g>
          </g>
          <path class="cls-20" d="M774.59,368.13c0-.06-.11-.06-.11,0-.01,5.54-.45,18.37-10.42,17.04-4.02-.54-7.54-2.91-10.46-5.22-3-2.36-5.62-5.06-7.96-7.92-2.6-3.17-5.27-6.5-7.22-10-.08-.15-.35-.01-.26.14,2.13,3.5,3.86,7.12,6.38,10.45,2.43,3.21,5.24,6.22,8.58,8.75,3.13,2.37,6.89,4.76,11.16,5.15,4.06.37,7.18-1.64,8.61-4.81,1.88-4.18,2.17-9.17,1.7-13.59Z"/>
        </g>
      </g>
    </g>
    <g>
      <rect class="cls-20" x="821" y="889.25" width="184" height="19.46"/>
      <g>
        <rect class="cls-29" x="632.81" y="584.17" width="172.3" height="66.43" transform="translate(1437.92 1234.76) rotate(180)"/>
        <path class="cls-33" d="M660.95,810.38h144.16v-8.32h-144.16c-13.04,0-23.65-10.61-23.65-23.65v-360.93c0-17.63-14.34-31.97-31.97-31.97h-19.43v8.32h19.43c13.04,0,23.65,10.61,23.65,23.65v360.93c0,17.63,14.34,31.97,31.97,31.97Z"/>
        <path class="cls-33" d="M800.95,896.45h8.32v-315.71c0-15.87-12.91-28.78-28.78-28.78h-147.35v8.32h147.35c11.28,0,20.46,9.18,20.46,20.46v315.71Z"/>
        <rect class="cls-20" x="560.12" y="381.1" width="51.56" height="16.55" transform="translate(1171.81 778.75) rotate(180)"/>
      </g>
      <g>
        <path class="cls-20" d="M529.73,777.07c0-80.13,52.23-145.32,116.43-145.32s116.43,65.19,116.43,145.32-52.23,145.32-116.43,145.32-116.43-65.19-116.43-145.32ZM541.38,777.07c0,73.7,47,133.67,104.78,133.67s104.78-59.96,104.78-133.67-47-133.67-104.78-133.67-104.78,59.96-104.78,133.67Z"/>
        <path class="cls-33" d="M533.97,777.07c0-71.03,46.21-128.82,103.01-128.82s103,57.79,103,128.82-46.21,128.82-103,128.82-103.01-57.79-103.01-128.82ZM542.29,777.07c0,66.44,42.47,120.5,94.68,120.5s94.68-54.06,94.68-120.5-42.47-120.5-94.68-120.5-94.68,54.06-94.68,120.5Z"/>
        <g>
          <path class="cls-33" d="M624.22,777.07c0,11.63,7.48,21.06,16.7,21.06s16.7-9.43,16.7-21.06-7.48-21.06-16.7-21.06-16.7,9.43-16.7,21.06Z"/>
          <ellipse class="cls-32" cx="635.56" cy="777.07" rx="16.7" ry="21.06"/>
        </g>
      </g>
      <g>
        <ellipse class="cls-33" cx="806.92" cy="898.98" rx="21.72" ry="27.4"/>
        <ellipse class="cls-32" cx="799.96" cy="898.98" rx="21.72" ry="27.4"/>
      </g>
    </g>
  </g>
  <g>
    <path class="cls-35" d="M945.32,281.83l-34.86-1.31c-.69-.03-1.32.17-1.83.54h-.02s0,.01-.02.03h-.02s0,.01-.02.03h-.02s0,.01-.02.03h-.02s0,.01-.02.03h-.02s0,.01-.02.03h-.02s0,.01-.02.03h-.02s0,.01-.02.03h-.02s0,.01-.02.03h-.02s0,.01-.02.03h-.02s0,.01-.02.03h-.02s0,.01-.02.03h-.02s0,.01-.02.03h-.02s0,.01-.02.03h-.02s0,.01-.02.03h-.02s0,.01-.02.03h-.02s0,.01-.02.03h-.02s0,.01-.02.03h-.02s0,.01-.02.03h-.02s0,.01-.02.03h-.02s0,.01-.02.03h-.02s0,.01-.02.03h-.02s0,.01-.02.03h-.02s0,.01-.02.03h-.02s0,.01-.02.03h-.02s0,.01-.02.03h-.02s0,.01-.02.03h-.02s0,.01-.02.03h-.02s0,.01-.02.03h-.02s0,.01-.02.03h-.02s0,.01-.02.03h-.02s0,.01-.02.03h-.02s0,.01-.02.03h-.02s0,.01-.02.03h-.02s0,.01-.02.03h-.02s0,.01-.02.03h-.02s0,.01-.02.03h-.02s0,.01-.02.03h-.02s0,.01-.02.03h-.02s0,.01-.02.03h-.02s0,.01-.02.03h-.02s0,.01-.02.03h-.02s0,.01-.02.03h-.02s0,.01-.02.03h-.02s0,.01-.02.03h-.02s0,.01-.02.03h-.02s0,.01-.02.03h-.02s0,.01-.02.03h-.02s0,.01-.02.03h-.02s0,.01-.02.03h-.02s0,.01-.02.03h-.02s0,.01-.02.03h-.02s0,.01-.02.03h-.02s0,.01-.02.03h-.02s0,.01-.02.03h-.02s0,.01-.02.03h-.02s0,.01-.02.03h-.02s0,.01-.02.03h-.02s0,.01-.02.03h-.02s0,.01-.02.03h-.02s0,.01-.02.03c-.86.61-1.4,1.61-1.29,2.76l6.93,73.46c.14,1.49,1.36,2.64,2.86,2.71l34.86,1.31c.69.03,1.32-.17,1.83-.54h.02s0-.01.02-.03h.02s0-.01.02-.03h.02s0-.01.02-.03h.02s0-.01.02-.03h.02s0-.01.02-.03h.02s0-.01.02-.03h.02s0-.01.02-.03h.02s0-.01.02-.03h.02s0-.01.02-.03h.02s0-.01.02-.03h.02s0-.01.02-.03h.02s0-.01.02-.03h.02s0-.01.02-.03h.02s0-.01.02-.03h.02s0-.01.02-.03h.02s0-.01.02-.03h.02s0-.01.02-.03h.02s0-.01.02-.03h.02s0-.01.02-.03h.02s0-.01.02-.03h.02s0-.01.02-.03h.02s0-.01.02-.03h.02s0-.01.02-.03h.02s0-.01.02-.03h.02s0-.01.02-.03h.02s0-.01.02-.03h.02s0-.01.02-.03h.02s0-.01.02-.03h.02s0-.01.02-.03h.02s0-.01.02-.03h.02s0-.01.02-.03h.02s0-.01.02-.03h.02s0-.01.02-.03h.02s0-.01.02-.03h.02s0-.01.02-.03h.02s0-.01.02-.03c0,0,0,0,.02-.01h.02s0-.01.02-.03h.02s0-.01.02-.03h.02s0-.01.02-.03h.02s0-.01.02-.03h.02s0-.01.02-.03h.02s0-.01.02-.03h.02s0-.01.02-.03h.02s0-.01.02-.03h.02s0-.01.02-.03h.02s0-.01.02-.03h.02s0-.01.02-.03h.02s0-.01.02-.03h.02s0-.01.02-.03h.02s0-.01.02-.03h.02s0-.01.02-.03h.02s0-.01.02-.03h.02s0-.01.02-.03h.02s0-.01.02-.03h.02s0-.01.02-.03h.02s0-.01.02-.03h.02s0-.01.02-.03h.02s0-.01.02-.03h.02s0-.01.02-.03h.02c.85-.62,1.4-1.63,1.29-2.77l-6.93-73.46c-.14-1.49-1.36-2.64-2.86-2.71Z"/>
    <path class="cls-3" d="M948.81,363.69l-34.86-1.31c-1.49-.07-2.71-1.22-2.86-2.71l-6.93-73.46c-.18-1.8,1.3-3.35,3.09-3.28l34.86,1.31c1.49.07,2.71,1.22,2.86,2.71l6.93,73.46c.18,1.8-1.3,3.35-3.09,3.28Z"/>
    <path class="cls-35" d="M946.92,356.79l-31.97-1.22c-1.37-.07-2.48-1.11-2.63-2.48l-6.13-60.63c-.17-1.66,1.2-3.06,2.83-3l31.98,1.22c1.37.07,2.48,1.11,2.63,2.48l6.13,60.63c.15,1.64-1.19,3.06-2.83,3Z"/>
    <g class="cls-31">
      <g class="cls-14">
        <g>
          <path class="cls-13" d="M948.86,364.41c.11.54.23,1.06.34,1.6-3.21-13.89-6.46-27.82-11.33-41.2-1.2-3.28-2.52-6.6-4.7-9.34-2.15-2.76-5.29-4.93-8.77-5.24-3.39-.28-7.46,1-9.79-1.5-1.41-1.51-1.46-3.8-1.36-5.87.38-7.9,1.68-15.76,3.84-23.37l-10.4,6.38c-2.18,7.75-3,15.9-2.36,23.94.18,2.23.46,4.48,1.41,6.5.95,2.02,2.64,3.79,4.81,4.33,1.57.39,3.22.12,4.82.3,4.4.54,7.57,4.41,9.79,8.22,7.78,13.27,10,29,15.77,43.28l8.27-6.45"/>
          <path class="cls-13" d="M955.92,354.42l-5.76.06c-1.07-10.97-3.63-22.82-6.27-33.53-.77-3.1-1.61-6.21-3.18-8.98-1.58-2.77-4-5.18-7.05-6.1-1.5-.46-3.14-.58-4.55-1.29-2.73-1.42-3.83-4.72-4.41-7.73-1.68-8.64-1.34-17.68.99-26.2l3.8-.44c-.52,6.59-.52,13.21-.04,19.83.17,2.3.44,4.71,1.81,6.59,2.5,3.33,7.42,3.47,10.94,5.74,3.93,2.53,5.56,7.37,6.77,11.9,3.5,13.04,6.97,40.2,6.95,39.91"/>
        </g>
      </g>
    </g>
    <path class="cls-13" d="M931.24,359.03c-.28-.87-1.24-1.35-2.11-1.07s-1.35,1.24-1.07,2.11c.28.87,1.24,1.35,2.11,1.07s1.35-1.24,1.07-2.11Z"/>
    <path class="cls-13" d="M932.41,287.15c-.03-.22-.1-.23-.17-.24,0,0-.03-.04-.08-.03-.01-.02-.06-.05-.1-.05-.07-.01-.11.02-.19.04-.04.03-.06.04-.13.03l-.04.03s-.06-.05-.1-.05c-.03-.04-.08-.07-.12-.04-.07-.01-.11-.02-.17-.03h-.07s-.26-.07-.39-.04h-.02s-.09.02-.17.04c-.06.04-.12.09-.19.08,0,0-.05-.03-.08-.03l-.03-.04s-.28-.01-.39,0c-.13.03-.23-.02-.36-.08,0,0-.05-.03-.08-.03,0,0-.07-.01-.12,0-.02.01-.04.03-.1.04-.04.03-.08.02-.1.04,0,0-.04.03-.07-.01,0,0-.05-.03-.08-.03l-.03-.04s-.11.02-.16,0c-.06-.05-.14-.02-.23-.02h-.09s-.16,0-.21,0h-.12s-.15.04-.23.07c-.04.03-.08.06-.15.05-.04.03-.09,0-.14-.02-.15-.04-.35-.06-.51-.03-.02.01-.06,0-.07-.01l-.03-.04s-.06-.05-.1-.05c-.01-.02-.07-.01-.11-.02h-.14s-.16,0-.16,0l-.04.03s-.1-.02-.15-.04c-.07-.01-.15-.04-.21-.03,0,0-.04.03-.08.02-.02.01-.06,0-.08.02-.06,0-.1-.02-.17-.03-.08-.03-.19-.05-.28-.01l-.04.03-.06.04s-.05-.03-.08-.03c-.13-.09-.27-.08-.4-.05l-.19.04-.22.03-.17.03h-.14s-.08.03-.12,0l-.03-.04h-.12s-.09,0-.12,0c-.06,0-.11.02-.16,0l-.04-.06s-.1-.05-.15-.04c-.02.01-.08.02-.11.02h-.02s-.11.03-.16,0l-.08-.03h-.12s-.22,0-.33.02c-.13.03-.27,0-.39-.03-.12-.04-.24-.08-.4-.05-.08.02-.18,0-.26-.03-.05-.03-.11-.02-.14-.02-.02.01-.07-.01-.11-.02-.01-.02-.08-.03-.1-.05-.03-.04-.1-.05-.17-.06-.07-.01-.14.01-.19.04l-.06.04h-.07s-.14,0-.23-.03l-.08-.03s-.13-.06-.2-.07c-.12-.04-.25,0-.37.08-.04.03-.12,0-.19-.01-.01-.02-.07-.01-.08-.03-.14-.02-.23-.02-.37,0h-.09s-.2.02-.25.34c0,.04-.02.1,0,.16,0,.13,0,.25.01.36.03.26.13.31.16.31.05.03.12.04.17.03.06,0,.13-.03.21-.06l.13-.03.13-.03s.02-.01.06,0l.04-.03s.11.02.16,0c.06,0,.09,0,.14-.01.09,0,.17.03.26.06,0,0,.05.03.08.03l.04.06c.04.06.12.04.17.03l.04-.03s.16,0,.24-.01c0,0,.37,0,.49.08.06.05.13.06.2.07,0,0,.02-.01.06,0l.04-.03s.09,0,.1.02c.05.03.12,0,.18,0l.06-.04.06-.04c.06-.04.12,0,.21.03.06.05.15.08.22.06.02-.01.04-.03.1-.04l.04-.03s.09,0,.16,0l.04.06s.11.02.14.02c.11.02.22,0,.33.04.29.07.56.09.81.1h.02s.11,0,.16,0l.06-.04h.02s.04-.04.06-.06c.06,0,.12.04.17.06.05.03.11.07.18.08.06,0,.11-.02.17-.03,0,0,.17-.03.22-.03.04-.03.09,0,.13-.03.02-.01.07.01.1.05l.03.04s.15.04.23.02c.04-.03.11-.02.13-.03.06,0,.09,0,.21-.09.08-.06.12-.09.18,0s.09.12.18.12c0,0,.09,0,.15-.01.07-.02.13-.03.19.02.3.16.54.2.78.18l.1-.07s.06-.04.1-.04c0,0,.05.03.1.05.04.06.11.07.19.05l.1-.07.06-.04c.06-.04.12,0,.21.03.05.03.1.05.17.06.02-.01.08-.02.13-.03l.06-.04s.07.01.08.03c.03.04.05.03.11.02.12,0,.27,0,.42.04h.07s.26.07.42.08c0,0,.28.01.42-.02l.06-.04h.02s.01,0,.05.01c0,0,.05.03.08.03.02-.01.08-.02.1-.04h.02s.09-.02.12-.01c.11.02.21.03.31.05l.08.03s.15.04.24.04l.06-.04s.03,0,.06,0l.04-.03s.11-.02.14-.01c0,0,.06.05.1.05.05.03.08.03.12.04.06,0,.11-.02.16-.03,0,0,.12-.05.17-.19.04-.12.06-.26.07-.38,0-.09,0-.16-.01-.23l.14-.07Z"/>
  </g>
</svg>