<svg width="26" height="27" viewBox="0 0 26 27" fill="none" xmlns="http://www.w3.org/2000/svg">
<circle cx="12.9496" cy="13.5375" r="12.6" fill="#7D82B8"/>
<path fill-rule="evenodd" clip-rule="evenodd" d="M13.1815 7.9375C9.94967 7.9375 7.34961 10.5376 7.34961 13.7694C7.34961 16.3452 9.02628 18.5321 11.3347 19.3097C11.6263 19.3583 11.7235 19.1882 11.7235 19.0181C11.7235 18.8723 11.7235 18.5078 11.7235 18.0218C10.0955 18.3863 9.75527 17.2443 9.75527 17.2443C9.48797 16.5639 9.09918 16.3938 9.09918 16.3938C8.56459 16.0293 9.14778 16.0293 9.14778 16.0293C9.73097 16.0779 10.0469 16.6368 10.0469 16.6368C10.5572 17.5358 11.4076 17.2686 11.7478 17.1228C11.7964 16.734 11.9422 16.491 12.1123 16.3452C10.8245 16.1994 9.46368 15.6891 9.46368 13.4535C9.46368 12.8217 9.68237 12.2871 10.0712 11.8983C10.0226 11.7525 9.80387 11.1693 10.1198 10.3432C10.1198 10.3432 10.6058 10.1974 11.7235 10.9507C12.1852 10.8292 12.6955 10.7563 13.1815 10.7563C13.6675 10.7563 14.1778 10.8292 14.6395 10.9507C15.7573 10.1974 16.2433 10.3432 16.2433 10.3432C16.5592 11.145 16.3648 11.7282 16.2919 11.8983C16.6564 12.3114 16.8994 12.8217 16.8994 13.4535C16.8994 15.6891 15.5386 16.1751 14.2264 16.3209C14.4451 16.491 14.6152 16.8555 14.6152 17.39C14.6152 18.1676 14.6152 18.7994 14.6152 18.9938C14.6152 19.1396 14.7124 19.334 15.0283 19.2854C17.3367 18.5321 19.0134 16.3452 19.0134 13.7694C19.0134 10.5376 16.4134 7.9375 13.1815 7.9375Z" fill="#1F1B20"/>
</svg>
