<svg width="249" height="64" viewBox="0 0 249 64" fill="none" xmlns="http://www.w3.org/2000/svg">
<path d="M24.7829 6.56573C29.5081 3.14476 35.8958 3.14476 40.621 6.56573L48.022 11.924L55.4051 17.307C60.1188 20.7438 62.0927 26.8189 60.2993 32.3699L57.4903 41.0645L54.6523 49.7497C52.8404 55.2947 47.6726 59.0493 41.839 59.0591L32.702 59.0743L23.5649 59.0591C17.7313 59.0493 12.5635 55.2947 10.7516 49.7497L7.91356 41.0645L5.10457 32.3699C3.31119 26.8189 5.28511 20.7438 9.9988 17.307L18.4683 10.2475" stroke="#4C956C" stroke-width="8" stroke-linecap="round"/>
<path d="M33.3685 46.5584C31.8697 46.5584 30.3575 46.4112 28.832 46.1168C27.3332 45.7956 25.9414 45.3406 24.6568 44.7518C23.3988 44.1362 22.3818 43.4002 21.6056 42.5438C20.8295 41.6606 20.4414 40.6435 20.4414 39.4927C20.4414 38.0206 20.9098 36.843 21.8465 35.9598C22.7833 35.0766 23.8806 34.6617 25.1385 34.7153C26.1288 34.742 27.1191 34.9561 28.1093 35.3576C29.0996 35.7323 30.1033 36.107 31.1203 36.4817C32.1641 36.8564 33.2079 37.0437 34.2517 37.0437C35.2955 37.0437 36.0182 36.9099 36.4196 36.6423C36.8211 36.3746 37.0218 36.0133 37.0218 35.5583C37.0218 35.023 36.7408 34.5814 36.1787 34.2335C35.6167 33.8856 34.9074 33.6179 34.051 33.4306L32.0838 32.9488C30.0497 32.4671 28.2298 31.9318 26.6239 31.343C25.0181 30.7274 23.7468 29.9245 22.81 28.9342C21.9001 27.9171 21.4451 26.5656 21.4451 24.8794C21.4451 23.0327 21.9536 21.5339 22.9706 20.383C23.9877 19.2054 25.366 18.349 27.1057 17.8137C28.8454 17.2784 30.7858 17.0107 32.9269 17.0107C35.1216 17.0107 37.0486 17.2382 38.708 17.6932C40.3673 18.1482 41.652 18.8039 42.562 19.6604C43.4988 20.5169 43.9671 21.5607 43.9671 22.7918C43.9671 24.1033 43.6058 25.1337 42.8832 25.8831C42.1873 26.6057 41.2506 26.967 40.0729 26.967C39.2968 26.967 38.4805 26.8332 37.624 26.5656C36.7943 26.2979 35.9111 26.0437 34.9744 25.8028C34.0644 25.5351 33.0875 25.4013 32.0437 25.4013C31.1069 25.4013 30.3977 25.5485 29.9159 25.8429C29.4342 26.1106 29.1933 26.4719 29.1933 26.9269C29.1933 27.4889 29.5145 27.9038 30.1568 28.1714C30.7991 28.4391 31.8563 28.7602 33.3284 29.1349L35.5766 29.6568C37.4233 30.1118 39.0425 30.6605 40.4343 31.3028C41.826 31.9452 42.9099 32.7882 43.6861 33.832C44.4623 34.8758 44.8503 36.2408 44.8503 37.927C44.8503 39.961 44.3686 41.6204 43.4051 42.9051C42.4416 44.163 41.1034 45.0864 39.3905 45.6752C37.6775 46.264 35.6702 46.5584 33.3685 46.5584Z" fill="#F8F9FA"/>
<path d="M85.3475 45.6691C83.0207 45.6691 80.8625 45.4484 78.873 45.0071C76.9171 44.5318 75.3491 43.8018 74.1688 42.8172C72.9886 41.7987 72.3984 40.4576 72.3984 38.7941C72.3984 37.3342 72.8368 36.1289 73.7136 35.1783C74.5903 34.2276 75.7537 33.7523 77.2037 33.7523C78.1142 33.7523 79.0247 33.9051 79.9352 34.2107C80.8794 34.4823 81.8742 34.7539 82.9195 35.0255C83.9649 35.2971 85.0946 35.4329 86.3085 35.4329C87.3876 35.4329 88.1126 35.382 88.4836 35.2801C88.8545 35.1443 89.04 34.9067 89.04 34.5672C89.04 34.1597 88.8039 33.8881 88.3318 33.7523C87.8935 33.6165 87.1347 33.4468 86.0556 33.2431L82.4137 32.5301C80.8963 32.2245 79.4125 31.8341 77.9625 31.3588C76.5462 30.8495 75.3659 30.1026 74.4217 29.118C73.5112 28.1335 73.056 26.7924 73.056 25.0948C73.056 22.7862 74.0677 20.9868 76.0909 19.6967C78.148 18.4065 81.1154 17.7614 84.9934 17.7614C87.219 17.7614 89.2086 17.9821 90.9621 18.4235C92.7494 18.8649 94.1657 19.5269 95.211 20.4096C96.2564 21.2584 96.7791 22.3278 96.7791 23.618C96.8128 25.01 96.4419 26.1304 95.6663 26.9791C94.8907 27.8279 93.9127 28.2523 92.7325 28.2523C91.8895 28.2523 91.0296 28.1504 90.1528 27.9467C89.3098 27.7091 88.3824 27.4714 87.3708 27.2338C86.3929 26.9622 85.2632 26.8094 83.9818 26.7754C83.0713 26.7075 82.3294 26.7584 81.7561 26.9282C81.1829 27.098 80.8963 27.3696 80.8963 27.743C80.8963 28.1504 81.2335 28.439 81.9079 28.6088C82.5823 28.7446 83.594 28.9313 84.9428 29.169L88.5342 29.831C90.7261 30.2045 92.4627 30.6798 93.7441 31.2569C95.0593 31.8002 96.0035 32.5641 96.5767 33.5486C97.15 34.5332 97.4366 35.8912 97.4366 37.6227C97.4366 39.4221 96.914 40.933 95.8686 42.1552C94.8569 43.3435 93.4406 44.2262 91.6197 44.8034C89.7987 45.3805 87.708 45.6691 85.3475 45.6691Z" fill="#F8F9FA"/>
<path d="M97.6528 12.4651C97.6528 11.0052 98.0912 9.83391 98.9679 8.95118C99.8784 8.03451 101.126 7.57617 102.711 7.57617C104.397 7.57617 105.645 8.01753 106.454 8.90026C107.297 9.78298 107.719 10.9543 107.719 12.4142C107.719 13.8401 107.297 14.9944 106.454 15.8772C105.645 16.7259 104.397 17.1503 102.711 17.1503C101.059 17.1503 99.7941 16.7259 98.9174 15.8772C98.0743 14.9944 97.6528 13.8571 97.6528 12.4651ZM102.711 45.0071C101.126 45.0071 99.9459 44.5657 99.1703 43.683C98.3947 42.8003 98.0069 41.6968 98.0069 40.3728V22.9559C98.0069 21.4961 98.3947 20.3417 99.1703 19.4929C99.9459 18.6442 101.126 18.2198 102.711 18.2198C104.296 18.2198 105.476 18.6442 106.252 19.4929C107.061 20.3417 107.466 21.4621 107.466 22.8541V40.3728C107.466 41.6968 107.044 42.8003 106.201 43.683C105.392 44.5657 104.228 45.0071 102.711 45.0071Z" fill="#F8F9FA"/>
<path d="M120.471 55.4979C118.414 55.4979 116.661 55.2772 115.211 54.8359C113.794 54.3945 112.429 53.7155 111.114 52.7988C109.967 51.984 109.158 50.8466 108.686 49.3867C108.214 47.9268 108.45 46.45 109.394 44.9561C110.001 44.0395 110.675 43.4114 111.417 43.0719C112.193 42.7324 112.935 42.5965 113.643 42.6645C114.385 42.6984 115.025 42.8512 115.565 43.1228C116.745 43.7 117.656 44.1243 118.296 44.396C118.971 44.6336 119.729 44.7524 120.572 44.7524C121.82 44.7524 122.866 44.3111 123.709 43.4283C124.585 42.5456 125.024 41.3064 125.024 39.7107V35.5857H124.113C123.877 37.3851 123.186 38.811 122.039 39.8635C120.927 40.882 119.392 41.3913 117.436 41.3913C115.953 41.3913 114.503 41.0178 113.086 40.2709C111.67 39.524 110.507 38.3357 109.596 36.7061C108.686 35.0764 108.23 32.9205 108.23 30.2384C108.23 26.3001 109.09 23.3634 110.81 21.4281C112.53 19.4929 114.756 18.5253 117.487 18.5253C119.375 18.5253 120.994 19.1704 122.343 20.4605C123.692 21.7167 124.366 23.4822 124.366 25.7569L124.518 25.706V22.8541C124.518 21.6658 124.889 20.6303 125.631 19.7476C126.406 18.8309 127.603 18.3726 129.222 18.3726C130.942 18.3726 132.173 18.8309 132.915 19.7476C133.69 20.6303 134.078 21.6658 134.078 22.8541L134.129 38.8959C134.162 42.4268 133.724 45.4315 132.813 47.9099C131.937 50.3883 130.487 52.2726 128.463 53.5627C126.474 54.8528 123.81 55.4979 120.471 55.4979ZM116.728 29.3727C116.728 31.206 117.942 32.1227 120.37 32.1227C121.955 32.1227 123.068 31.902 123.709 31.4606C124.349 31.0193 124.67 30.3233 124.67 29.3727C124.67 28.3881 124.332 27.7091 123.658 27.3356C123.017 26.9622 121.904 26.7754 120.32 26.7754C119.173 26.7754 118.279 26.9622 117.639 27.3356C117.032 27.7091 116.728 28.3881 116.728 29.3727Z" fill="#F8F9FA"/>
<path d="M139.88 45.0071C138.363 45.0071 137.149 44.5657 136.238 43.683C135.362 42.7663 134.923 41.6459 134.923 40.3218V23.4652C134.923 22.0393 135.345 20.834 136.188 19.8494C137.065 18.8649 138.295 18.3726 139.88 18.3726C141.431 18.3726 142.595 18.8649 143.37 19.8494C144.146 20.834 144.534 22.0732 144.534 23.5671V26.1134H145.444C145.444 23.2275 146.051 21.2244 147.265 20.1041C148.479 18.9497 149.98 18.3726 151.767 18.3726C154.06 18.3726 155.746 19.0855 156.825 20.5115C157.904 21.9374 158.444 23.8047 158.444 26.1134H159.354C159.354 24.1782 159.675 22.6504 160.315 21.53C160.956 20.4096 161.766 19.6118 162.743 19.1365C163.755 18.6272 164.8 18.3726 165.88 18.3726C168.071 18.3726 169.673 18.8988 170.685 19.9513C171.73 21.0038 172.405 22.4127 172.708 24.1782C173.012 25.9436 173.163 27.9298 173.163 30.1366V40.3218C173.163 41.6459 172.708 42.7663 171.798 43.683C170.921 44.5657 169.741 45.0071 168.257 45.0071C166.773 45.0071 165.576 44.5657 164.666 43.683C163.755 42.7663 163.3 41.6459 163.3 40.3218V31.3079C163.3 30.0856 163.148 29.135 162.845 28.456C162.541 27.777 161.934 27.4375 161.024 27.4375C160.046 27.4375 159.405 27.8109 159.102 28.5578C158.832 29.3048 158.697 30.2554 158.697 31.4097V40.3218C158.697 41.6459 158.275 42.7663 157.432 43.683C156.589 44.5657 155.426 45.0071 153.942 45.0071C152.425 45.0071 151.211 44.5657 150.3 43.683C149.423 42.7663 148.985 41.6459 148.985 40.3218V31.3079C148.985 30.0856 148.833 29.135 148.53 28.456C148.226 27.777 147.636 27.4375 146.759 27.4375C145.782 27.4375 145.158 27.8109 144.888 28.5578C144.652 29.3048 144.534 30.2554 144.534 31.4097V40.3218C144.534 41.6459 144.129 42.7663 143.32 43.683C142.511 44.5657 141.364 45.0071 139.88 45.0071Z" fill="#F8F9FA"/>
<path d="M174.009 31.7662C174.009 29.0841 174.531 26.7245 175.577 24.6874C176.656 22.6504 178.173 21.0547 180.129 19.9004C182.119 18.746 184.479 18.1689 187.211 18.1689C189.335 18.1689 191.24 18.5593 192.926 19.3402C194.646 20.121 195.995 21.1735 196.973 22.4976C197.951 23.7877 198.44 25.2137 198.44 26.7754C198.44 28.4051 197.968 29.5594 197.024 30.2384C196.079 30.9174 194.68 31.2569 192.825 31.2569H182.203C182.203 32.1397 182.54 32.8696 183.215 33.4468C183.923 34.0239 185.103 34.3125 186.755 34.3125C187.598 34.3125 188.374 34.2276 189.082 34.0579C189.824 33.8881 190.566 33.7354 191.308 33.5996C192.083 33.4298 192.943 33.3449 193.887 33.3449C195.236 33.3449 196.349 33.8372 197.226 34.8218C198.103 35.7724 198.541 37.0965 198.541 38.7941C198.541 40.7972 197.512 42.3589 195.455 43.4793C193.432 44.5997 190.768 45.1598 187.463 45.1598C185.137 45.1598 182.945 44.7015 180.888 43.7848C178.865 42.8682 177.212 41.4252 175.931 39.4561C174.649 37.453 174.009 34.8897 174.009 31.7662ZM190.397 29.5764C190.903 29.5764 191.072 29.3387 190.903 28.8634C190.768 28.3881 190.364 27.8958 189.689 27.3865C189.015 26.8773 188.037 26.6226 186.755 26.6226C185.272 26.6226 184.159 26.9452 183.417 27.5902C182.709 28.2353 182.355 28.8974 182.355 29.5764H190.397Z" fill="#F8F9FA"/>
<path d="M204.174 45.0071C202.69 45.0071 201.493 44.5657 200.583 43.683C199.706 42.7663 199.268 41.6459 199.268 40.3218V23.4652C199.268 22.0393 199.689 20.834 200.532 19.8494C201.375 18.8649 202.589 18.3726 204.174 18.3726C205.725 18.3726 206.906 18.8649 207.715 19.8494C208.524 20.834 208.929 22.0732 208.929 23.5671V26.1134H209.839C209.839 24.1782 210.177 22.6504 210.851 21.53C211.559 20.4096 212.453 19.6118 213.532 19.1365C214.611 18.6272 215.69 18.3726 216.769 18.3726C219.366 18.3726 221.271 19.3232 222.485 21.2244C223.699 23.0917 224.306 25.7569 224.306 29.2199V40.3218C224.306 41.6459 223.868 42.7663 222.991 43.683C222.114 44.5657 220.934 45.0071 219.45 45.0071C217.933 45.0071 216.719 44.5657 215.808 43.683C214.931 42.7663 214.493 41.6459 214.493 40.3218V31.3079C214.493 30.0856 214.257 29.135 213.785 28.456C213.346 27.777 212.689 27.4375 211.812 27.4375C210.8 27.4375 210.059 27.8109 209.587 28.5578C209.148 29.3048 208.929 30.2554 208.929 31.4097V40.3218C208.929 41.6459 208.507 42.7663 207.664 43.683C206.821 44.5657 205.658 45.0071 204.174 45.0071Z" fill="#F8F9FA"/>
<path d="M239.043 45.1598C237.256 45.1598 235.637 44.7524 234.187 43.9376C232.771 43.1228 231.658 41.9685 230.848 40.4746C230.039 38.9468 229.634 37.1644 229.634 35.1273V26.1643L227.763 26.4189C226.751 26.5547 225.858 26.1983 225.082 25.3495C224.306 24.5007 223.919 23.4313 223.919 22.1411C223.919 20.851 224.306 19.7985 225.082 18.9837C225.858 18.1349 226.751 17.7784 227.763 17.9142L229.634 18.1689L229.584 14.7059C229.55 13.3478 229.938 12.2784 230.747 11.4975C231.557 10.6827 232.737 10.2753 234.288 10.2753C235.839 10.2753 237.036 10.6827 237.879 11.4975C238.722 12.2784 239.11 13.3478 239.043 14.7059L238.942 18.1689L241.622 17.8124C243.443 17.5408 244.826 17.8803 245.77 18.8309C246.714 19.7476 247.186 20.851 247.186 22.1411C247.186 23.4313 246.714 24.5516 245.77 25.5023C244.86 26.4189 243.528 26.7584 241.774 26.5208L238.942 26.1643V33.7523C238.942 34.1937 239.093 34.6011 239.397 34.9746C239.7 35.3141 240.071 35.4159 240.51 35.2801C241.015 35.1443 241.538 34.8557 242.078 34.4144C242.651 33.973 243.376 33.7523 244.253 33.7523C245.568 33.7523 246.579 34.2276 247.288 35.1783C247.996 36.1289 248.35 37.3002 248.35 38.6922C248.35 39.7786 247.962 40.8311 247.186 41.8496C246.445 42.8342 245.382 43.6321 244 44.2432C242.617 44.8543 240.965 45.1598 239.043 45.1598Z" fill="#F8F9FA"/>
</svg>
