<svg width="170" height="166" viewBox="0 0 170 166" fill="none" xmlns="http://www.w3.org/2000/svg">
<path d="M62.8563 13.1744C76.0689 3.60855 93.9304 3.60855 107.143 13.1744L127.838 28.1573L148.483 43.2095C161.663 52.8194 167.183 69.8067 162.168 85.3287L154.314 109.641L146.378 133.926C141.311 149.432 126.861 159.93 110.549 159.958L84.9997 160L59.4503 159.958C43.1384 159.93 28.6881 149.432 23.6215 133.926L15.6857 109.641L7.83116 85.3287C2.81646 69.8067 8.33598 52.8194 21.5165 43.2095L45.1991 23.4694" stroke="#2E282A" stroke-width="12" stroke-linecap="round"/>
<path d="M86.8639 125.004C82.6729 125.004 78.4445 124.593 74.1787 123.77C69.9878 122.871 66.0962 121.599 62.5039 119.953C58.9865 118.231 56.1426 116.173 53.9723 113.779C51.802 111.309 50.7168 108.465 50.7168 105.247C50.7168 101.131 52.0265 97.8379 54.6458 95.3683C57.2652 92.8986 60.3336 91.7386 63.851 91.8883C66.62 91.9631 69.3891 92.5618 72.1581 93.6844C74.9271 94.7321 77.7336 95.7799 80.5774 96.8276C83.4962 97.8754 86.4149 98.3992 89.3336 98.3992C92.2523 98.3992 94.2729 98.025 95.3955 97.2766C96.5181 96.5283 97.0794 95.5179 97.0794 94.2457C97.0794 92.7489 96.2936 91.5141 94.722 90.5412C93.1504 89.5683 91.1671 88.8199 88.7723 88.296L83.2716 86.9489C77.5839 85.6018 72.4949 84.105 68.0045 82.4586C63.5142 80.7373 59.9594 78.4921 57.34 75.7231C54.7955 72.8792 53.5232 69.0999 53.5232 64.385C53.5232 59.2212 54.9452 55.0302 57.7891 51.8121C60.6329 48.5192 64.4871 46.1244 69.3516 44.6276C74.2162 43.1308 79.642 42.3824 85.6291 42.3824C91.7658 42.3824 97.1542 43.0186 101.794 44.2908C106.434 45.5631 110.026 47.3966 112.571 49.7915C115.19 52.1863 116.5 55.105 116.5 58.5476C116.5 62.2147 115.49 65.096 113.469 67.1915C111.523 69.2121 108.904 70.2225 105.611 70.2225C103.441 70.2225 101.158 69.8483 98.7633 69.0999C96.4433 68.3515 93.9736 67.6405 91.3542 66.967C88.8097 66.2186 86.0781 65.8444 83.1594 65.8444C80.54 65.8444 78.5568 66.256 77.2097 67.0792C75.8626 67.8276 75.1891 68.8379 75.1891 70.1102C75.1891 71.6818 76.0871 72.8418 77.8833 73.5902C79.6794 74.3386 82.6355 75.2366 86.7516 76.2844L93.0381 77.7437C98.202 79.016 102.73 80.5502 106.621 82.3463C110.513 84.1425 113.544 86.4999 115.714 89.4186C117.885 92.3373 118.97 96.1541 118.97 100.869C118.97 106.557 117.623 111.197 114.928 114.789C112.234 118.306 108.492 120.888 103.703 122.535C98.9129 124.181 93.3 125.004 86.8639 125.004Z" fill="#2E282A"/>
</svg>
