<svg width="91" height="77" viewBox="0 0 91 77" fill="none" xmlns="http://www.w3.org/2000/svg">
<g clip-path="url(#clip0_370_2632)">
<path d="M13.1343 42.1813C18.0739 42.1813 22.0782 38.1935 22.0782 33.2743C22.0782 28.355 18.0739 24.3672 13.1343 24.3672C8.19475 24.3672 4.19043 28.355 4.19043 33.2743C4.19043 38.1935 8.19475 42.1813 13.1343 42.1813Z" fill="#CD8B76"/>
<path d="M34.2351 66.8245C36.7758 62.7276 35.5006 57.3553 31.3868 54.825C27.273 52.2947 21.8784 53.5647 19.3377 57.6616C16.797 61.7584 18.0722 67.1308 22.186 69.661C26.2998 72.1913 31.6944 70.9214 34.2351 66.8245Z" fill="#7D82B8"/>
<path d="M48.0337 42.3508C53.8505 42.3508 58.566 37.6548 58.566 31.8619C58.566 26.0691 53.8505 21.373 48.0337 21.373C42.2169 21.373 37.5015 26.0691 37.5015 31.8619C37.5015 37.6548 42.2169 42.3508 48.0337 42.3508Z" fill="#FFD215"/>
<path d="M77.1975 64.9483C77.1975 58.2947 71.7833 52.8965 65.0958 52.8965C58.4084 52.8965 52.9941 58.2884 52.9941 64.9483C52.9941 71.602 58.4084 77.0002 65.0958 77.0002C71.7833 77.0002 77.1975 71.6082 77.1975 64.9483Z" fill="#CD8B76"/>
<path d="M88.6943 47.6489H1.42344C1.01374 47.6489 0.679688 47.9816 0.679688 48.3896C0.679688 48.7976 1.01374 49.1303 1.42344 49.1303H88.6943C89.104 49.1303 89.438 48.7976 89.438 48.3896C89.438 47.9816 89.104 47.6489 88.6943 47.6489Z" fill="#D5D4D4"/>
<path d="M12.7501 37.9507C12.3404 37.9507 12.0063 38.2834 12.0063 38.6914V48.3893C12.0063 48.7973 12.3404 49.13 12.7501 49.13C13.1598 49.13 13.4938 48.7973 13.4938 48.3893V38.6914C13.4938 38.2834 13.1598 37.9507 12.7501 37.9507Z" fill="#D5D4D4"/>
<path d="M26.5221 48.019C26.1124 48.019 25.7783 48.3517 25.7783 48.7597V58.4577C25.7783 58.8657 26.1124 59.1984 26.5221 59.1984C26.9318 59.1984 27.2658 58.8657 27.2658 58.4577V48.7597C27.2658 48.3517 26.9318 48.019 26.5221 48.019Z" fill="#D5D4D4"/>
<path d="M47.9205 37.21C47.5108 37.21 47.1768 37.5426 47.1768 37.9506V47.6486C47.1768 48.0566 47.5108 48.3893 47.9205 48.3893C48.3302 48.3893 48.6643 48.0566 48.6643 47.6486V37.9506C48.6643 37.5426 48.3302 37.21 47.9205 37.21Z" fill="#D5D4D4"/>
<path d="M90.6798 12.5728C90.6798 5.63047 85.0261 0 78.055 0C71.0839 0 65.4302 5.63047 65.4302 12.5728C65.4302 19.5152 71.0839 25.1457 78.055 25.1457C85.0261 25.1457 90.6798 19.5152 90.6798 12.5728Z" fill="#4C956C"/>
<path d="M77.9415 19.1133C77.5318 19.1133 77.1978 19.446 77.1978 19.854V47.6485C77.1978 48.0565 77.5318 48.3892 77.9415 48.3892C78.3512 48.3892 78.6853 48.0565 78.6853 47.6485V19.854C78.6853 19.446 78.3512 19.1133 77.9415 19.1133Z" fill="#D5D4D4"/>
<path d="M65.3922 48.019C64.9825 48.019 64.6484 48.3517 64.6484 48.7597V58.4577C64.6484 58.8657 64.9825 59.1984 65.3922 59.1984C65.8019 59.1984 66.1359 58.8657 66.1359 58.4577V48.7597C66.1359 48.3517 65.8019 48.019 65.3922 48.019Z" fill="#D5D4D4"/>
</g>
<defs>
<clipPath id="clip0_370_2632">
<rect width="90" height="77" fill="white" transform="translate(0.679688)"/>
</clipPath>
</defs>
</svg>
