<svg width="1551" height="1878" viewBox="0 0 1551 1878" fill="none" xmlns="http://www.w3.org/2000/svg">
<path d="M1025.03 1828.04C901.513 1861.13 783.158 1877.67 669.96 1877.66C557.969 1874.99 462.187 1850.47 382.613 1804.11C302.457 1755.56 248.082 1677.94 219.49 1571.23C194.398 1477.59 196.954 1394.04 227.156 1320.6C257.359 1247.15 310.946 1200.11 387.917 1179.49C436.248 1166.54 487.205 1163.39 540.787 1170.04C595.577 1174.03 653.051 1177.3 713.21 1179.85C773.369 1182.41 835.669 1175.05 900.111 1157.78C957.392 1142.44 995.002 1128.86 1012.94 1117.05C1030.3 1103.06 1036.06 1085.18 1030.22 1063.4C1023.22 1037.27 1006.02 1023.2 978.629 1021.21C953.024 1018.73 909.831 1018.64 849.049 1020.92L643.471 1026.99C557.668 1028.97 472.196 1025.03 387.055 1015.17C303.121 1002.65 227.632 971.524 160.589 921.801C95.336 871.597 48.1215 792.052 18.9456 683.166C-20.7336 535.081 2.04097 405.273 87.2694 293.741C174.288 181.73 320.724 98.1451 526.578 42.9866C644.72 11.3305 754.125 -2.813 854.793 0.556185C957.251 3.44573 1043.81 25.7664 1114.47 67.5183C1184.55 107.092 1230.68 168.256 1252.85 251.01C1278.57 339.817 1278.13 416.957 1251.55 482.432C1224.97 547.907 1180.35 589.038 1117.7 605.825C1072.95 617.816 1025.55 623.514 975.509 622.918C926.673 619.665 873.363 617.611 815.577 616.756C758.998 613.244 696.406 619.512 627.801 635.56C578.303 644.155 539.798 657.974 512.285 677.016C484.772 696.059 474.225 717.557 480.643 741.512C487.645 767.645 510.506 781.359 549.224 782.655C587.359 781.773 644.269 779.361 719.955 775.42L921.973 766.804C1044.74 759.582 1145.1 765.369 1223.04 784.164C1302.19 800.302 1365.44 835.87 1412.79 890.87C1460.14 945.87 1498.7 1028.9 1528.46 1139.97C1559.39 1255.39 1557.61 1359.73 1523.12 1452.99C1489.84 1543.6 1429.83 1620.37 1343.09 1683.29C1256.35 1746.21 1150.33 1794.46 1025.03 1828.04Z" fill="#2E282A" fill-opacity="0.05"/>
</svg>
