<svg width="25" height="24" viewBox="0 0 25 24" fill="none" xmlns="http://www.w3.org/2000/svg">
<path fill-rule="evenodd" clip-rule="evenodd" d="M13.6953 3.85138C14.3576 3.74955 15.027 3.98618 15.4781 4.48167C15.8563 4.89702 15.9305 5.45808 15.9631 5.84167C15.9993 6.26752 15.9993 6.8238 15.9993 7.47918V7.52528V16.474V16.5201C15.9993 17.1754 15.9993 17.7317 15.9631 18.1576C15.9305 18.5411 15.8563 19.1022 15.4781 19.5176C15.027 20.0131 14.3576 20.2497 13.6953 20.1478C13.1401 20.0625 12.7298 19.6727 12.4633 19.3949C12.1675 19.0864 11.8179 18.6537 11.406 18.144L11.377 18.1081L9.70176 16.035C9.60736 15.9182 9.5596 15.8596 9.52293 15.8187C9.52193 15.8176 9.52097 15.8165 9.52004 15.8155C9.51867 15.8154 9.51723 15.8153 9.51574 15.8152C9.46088 15.8124 9.38527 15.8121 9.23508 15.8121H7.81175C7.76587 15.8121 7.72043 15.8122 7.67544 15.8122C7.05649 15.813 6.52139 15.8137 6.05821 15.6607C5.15621 15.3627 4.44865 14.6552 4.15067 13.7532C3.99765 13.29 3.99834 12.7549 3.99914 12.1359C3.99919 12.0909 3.99925 12.0455 3.99925 11.9996C3.99925 11.9537 3.99919 11.9083 3.99914 11.8633C3.99834 11.2444 3.99765 10.7093 4.15067 10.2461C4.44865 9.34408 5.15621 8.63651 6.05821 8.33853C6.52139 8.18551 7.05649 8.1862 7.67545 8.187C7.72044 8.18706 7.76587 8.18711 7.81175 8.18711H9.23508C9.38527 8.18711 9.46088 8.18681 9.51574 8.18399C9.51723 8.18392 9.51867 8.18384 9.52004 8.18376C9.52097 8.18274 9.52193 8.18167 9.52293 8.18056C9.5596 8.13966 9.60736 8.08104 9.70176 7.96423L11.377 5.89112L11.406 5.85527C11.8179 5.3455 12.1675 4.91283 12.4633 4.60435C12.7298 4.3265 13.1401 3.93675 13.6953 3.85138ZM13.9068 5.98865C13.6773 6.22802 13.3814 6.59279 12.9326 7.14816L11.2573 9.22127C11.2454 9.2361 11.2331 9.25138 11.2205 9.26704C11.0844 9.43648 10.9131 9.64978 10.6899 9.81044C10.4965 9.94962 10.2798 10.0531 10.05 10.1161C9.78471 10.1887 9.51115 10.1879 9.29383 10.1872C9.27375 10.1872 9.25415 10.1871 9.23508 10.1871H7.81175C6.97644 10.1871 6.79984 10.1998 6.68557 10.2376C6.38491 10.3369 6.14905 10.5728 6.04972 10.8734C6.01198 10.9877 5.99925 11.1643 5.99925 11.9996C5.99925 12.8349 6.01198 13.0115 6.04972 13.1258C6.14905 13.4265 6.38491 13.6623 6.68557 13.7616C6.79984 13.7994 6.97644 13.8121 7.81175 13.8121H9.23508C9.25415 13.8121 9.27375 13.8121 9.29383 13.812C9.51115 13.8113 9.78471 13.8105 10.05 13.8832C10.2798 13.9461 10.4965 14.0496 10.6899 14.1888C10.9131 14.3495 11.0844 14.5627 11.2205 14.7322C11.2331 14.7479 11.2454 14.7631 11.2573 14.778L12.9326 16.8511C13.3814 17.4064 13.6773 17.7712 13.9068 18.0106C13.9269 18.0315 13.9455 18.0504 13.9626 18.0673C13.9652 18.0434 13.9678 18.0171 13.9703 17.9881C13.9984 17.6577 13.9993 17.188 13.9993 16.474V7.52528C13.9993 6.81124 13.9984 6.34155 13.9703 6.01108C13.9678 5.98215 13.9652 5.95581 13.9626 5.93189C13.9455 5.94884 13.9269 5.96769 13.9068 5.98865ZM18.6779 7.66085C19.0545 7.25693 19.6873 7.23484 20.0912 7.61149C20.6907 8.1705 21.1693 8.84641 21.4974 9.59752C21.8256 10.3486 21.9964 11.159 21.9992 11.9787C22.0021 12.7983 21.837 13.6099 21.5141 14.3633C21.1912 15.1166 20.7173 15.7959 20.1218 16.3591C19.7205 16.7385 19.0876 16.7208 18.7081 16.3196C18.3286 15.9183 18.3463 15.2854 18.7476 14.9059C19.1446 14.5305 19.4605 14.0776 19.6758 13.5754C19.8911 13.0731 20.0011 12.5321 19.9992 11.9857C19.9973 11.4392 19.8835 10.899 19.6647 10.3982C19.4459 9.89748 19.1269 9.44687 18.7272 9.0742C18.3233 8.69754 18.3012 8.06476 18.6779 7.66085Z" fill="#2E282A"/>
</svg>
